<svg width="796" height="714" viewBox="0 0 796 714" fill="none" xmlns="http://www.w3.org/2000/svg">
<g clip-path="url(#clip0_3241_83794)">
<mask id="mask0_3241_83794" style="mask-type:luminance" maskUnits="userSpaceOnUse" x="0" y="0" width="796" height="714">
<path d="M796 0H0V714H796V0Z" fill="white"/>
</mask>
<g mask="url(#mask0_3241_83794)">
<mask id="mask1_3241_83794" style="mask-type:luminance" maskUnits="userSpaceOnUse" x="-216" y="-106" width="3459" height="3837">
<path d="M-216 -106H3243V3731H-216V-106Z" fill="white"/>
</mask>
<g mask="url(#mask1_3241_83794)">
<g opacity="0.5">
<path d="M111.438 355.146L485.597 140.168Z" fill="white"/>
<path d="M111.438 355.146L485.597 140.168" stroke="#FFF888" stroke-width="92.0138" stroke-linecap="round"/>
</g>
<g opacity="0.5">
<path d="M200.438 496.146L574.597 281.168Z" fill="white"/>
<path d="M200.438 496.146L574.597 281.168" stroke="#FFF888" stroke-width="92.0138" stroke-linecap="round"/>
</g>
<g opacity="0.5">
<path d="M670.438 227.146L699.598 210.17Z" fill="white"/>
<path d="M670.438 227.146L699.598 210.17" stroke="#FFF888" stroke-width="92.0138" stroke-linecap="round"/>
</g>
<g opacity="0.5">
<path d="M332.438 612.146L616.597 446.169Z" fill="white"/>
<path d="M332.438 612.146L616.597 446.169" stroke="#FFF888" stroke-width="92.0138" stroke-linecap="round"/>
</g>
<path d="M686.109 462.386C690.659 462.864 693.966 466.947 693.488 471.498C693.009 476.048 688.926 479.355 684.376 478.877C679.825 478.398 676.518 474.315 676.997 469.765C677.475 465.214 681.558 461.908 686.109 462.386Z" stroke="#CAB605" stroke-width="4.28355" style="mix-blend-mode:hard-light"/>
<path d="M202.403 631.175C209.886 631.961 215.323 638.675 214.537 646.158C213.75 653.642 207.036 659.079 199.553 658.292C192.07 657.506 186.632 650.792 187.419 643.308C188.205 635.825 194.92 630.388 202.403 631.175Z" stroke="#FEE719" stroke-width="7.044" style="mix-blend-mode:hard-light"/>
<path d="M393.567 72.3503C401.05 73.1367 406.487 79.8511 405.701 87.3343C404.914 94.8175 398.2 100.255 390.717 99.4683C383.234 98.6818 377.796 91.9675 378.583 84.4843C379.369 77.0011 386.084 71.5638 393.567 72.3503Z" stroke="#FEE719" stroke-width="7.044" style="mix-blend-mode:hard-light"/>
<path d="M77.7051 249.901C81.1426 249.901 83.9336 252.692 83.9336 256.129C83.9336 259.567 81.1426 262.358 77.7051 262.358C74.2676 262.358 71.4766 259.567 71.4766 256.129C71.4766 252.692 74.2676 249.901 77.7051 249.901Z" stroke="#FEE719" stroke-width="5.14888" style="mix-blend-mode:hard-light"/>
<path d="M561.471 656.074C564.908 656.074 567.699 658.865 567.699 662.303C567.699 665.741 564.908 668.532 561.471 668.532C558.033 668.532 555.242 665.741 555.242 662.303C555.242 658.865 558.033 656.074 561.471 656.074Z" stroke="#FEE719" stroke-width="5.14888" style="mix-blend-mode:hard-light"/>
<path d="M632.223 70.3242L639.948 46.5478" stroke="#FEE719" stroke-width="3" style="mix-blend-mode:hard-light"/>
<path d="M624.59 54.7532L648.366 62.4786" stroke="#FEE719" stroke-width="3" style="mix-blend-mode:hard-light"/>
<path d="M102.641 478.453L109.532 454.422" stroke="#FEE719" stroke-width="3" style="mix-blend-mode:hard-light"/>
<path d="M94.4648 463.158L118.496 470.049" stroke="#CAB605" stroke-width="3" style="mix-blend-mode:hard-light"/>
<path d="M622.273 586.619L627.897 562.26" stroke="#FEE719" stroke-width="3"/>
<path d="M613.309 571.772L637.668 577.396" stroke="#CAB605" stroke-width="3" style="mix-blend-mode:hard-light"/>
</g>
<path d="M398.11 177.281C497.314 177.281 577.86 257.827 577.86 357.031C577.86 456.235 497.314 536.781 398.11 536.781C298.905 536.781 218.359 456.235 218.359 357.031C218.359 257.827 298.905 177.281 398.11 177.281Z" fill="#FEE719"/>
<path d="M398.11 177.281C497.314 177.281 577.86 257.827 577.86 357.031C577.86 456.235 497.314 536.781 398.11 536.781C298.905 536.781 218.359 456.235 218.359 357.031C218.359 257.827 298.905 177.281 398.11 177.281Z" fill="#FEE719"/>
<path d="M398 194.281C487.821 194.281 560.749 267.209 560.749 357.031C560.749 446.853 487.821 519.781 398 519.781C308.178 519.781 235.25 446.853 235.25 357.031C235.25 267.209 308.178 194.281 398 194.281Z" fill="#FDFBDB"/>
</g>
<g filter="url(#filter0_d_3241_83794)">
<path d="M388.228 297.289C391.147 288.306 403.855 288.306 406.774 297.289L417.202 329.384C418.507 333.401 422.251 336.121 426.475 336.121H460.222C469.667 336.121 473.594 348.207 465.953 353.759L438.651 373.595C435.234 376.077 433.804 380.478 435.109 384.496L445.537 416.591C448.456 425.573 438.175 433.043 430.534 427.491L403.232 407.656C399.815 405.173 395.187 405.173 391.77 407.656L364.468 427.491C356.827 433.043 346.546 425.573 349.465 416.591L359.893 384.496C361.198 380.478 359.768 376.077 356.351 373.595L329.05 353.759C321.408 348.207 325.335 336.121 334.78 336.121H368.527C372.751 336.121 376.495 333.401 377.8 329.384L388.228 297.289Z" fill="#FFEC42"/>
</g>
</g>
<defs>
<filter id="filter0_d_3241_83794" x="276" y="241" width="243" height="243" filterUnits="userSpaceOnUse" color-interpolation-filters="sRGB">
<feFlood flood-opacity="0" result="BackgroundImageFix"/>
<feColorMatrix in="SourceAlpha" type="matrix" values="0 0 0 0 0 0 0 0 0 0 0 0 0 0 0 0 0 0 127 0" result="hardAlpha"/>
<feOffset dy="6"/>
<feGaussianBlur stdDeviation="12"/>
<feColorMatrix type="matrix" values="0 0 0 0 0.301961 0 0 0 0 0 0 0 0 0 0.705882 0 0 0 0.25 0"/>
<feBlend mode="normal" in2="BackgroundImageFix" result="effect1_dropShadow_3241_83794"/>
<feBlend mode="normal" in="SourceGraphic" in2="effect1_dropShadow_3241_83794" result="shape"/>
</filter>
<clipPath id="clip0_3241_83794">
<rect width="796" height="714" fill="white"/>
</clipPath>
</defs>
</svg>
