<svg width="374" height="289" viewBox="0 0 374 289" fill="none" xmlns="http://www.w3.org/2000/svg">
<path fill-rule="evenodd" clip-rule="evenodd" d="M129.075 -25C118.133 -25 109.263 -16.1299 109.263 -5.18805C109.263 1.28344 112.366 7.03022 117.165 10.6458C118.629 10.4775 120.152 10.9547 121.275 12.0773C121.675 12.4773 121.993 12.9283 122.229 13.4092C124.363 14.1949 126.669 14.6239 129.075 14.6239C134.398 14.6239 139.23 12.5248 142.79 9.10928L140.709 6.79656C138.861 4.74401 139.028 1.58256 141.08 -0.26474C143.133 -2.11203 146.294 -1.94564 148.141 0.106907L148.164 0.132374C148.635 -1.56066 148.887 -3.34496 148.887 -5.18805C148.887 -16.1299 140.017 -25 129.075 -25ZM129.075 24.6239C136.97 24.6239 144.148 21.5549 149.482 16.5448L231.704 107.903C231.624 108.792 231.583 109.693 231.583 110.604C231.583 127.068 244.931 140.416 261.395 140.416C276.684 140.416 289.285 128.907 291.007 114.081L341.162 63.9255C342.877 62.2104 343.085 59.5593 341.788 57.6165C342.547 57.6745 343.314 57.704 344.089 57.704C360.553 57.704 373.9 44.3567 373.9 27.892C373.9 11.4274 360.553 -1.91991 344.089 -1.91991C327.624 -1.91991 314.277 11.4274 314.277 27.892C314.277 41.1266 322.901 52.347 334.835 56.2401C334.573 56.4172 334.323 56.622 334.091 56.8544L289.707 101.238C285.78 89.3617 274.588 80.7917 261.395 80.7917C249.968 80.7917 240.043 87.2209 235.039 96.6595L155.613 8.40849C157.706 4.3317 158.887 -0.290245 158.887 -5.18805C158.887 -21.6527 145.54 -35 129.075 -35C112.61 -35 99.263 -21.6527 99.263 -5.18805C99.263 3.65345 103.112 11.596 109.226 17.0554L58.1256 68.1554C54.2012 56.2748 43.0078 47.7013 29.812 47.7013C13.3473 47.7013 0 61.0486 0 77.5133C0 93.978 13.3473 107.325 29.812 107.325C45.0967 107.325 57.6949 95.8224 59.422 81.0012L117.946 22.4773C121.385 23.8618 125.141 24.6239 129.075 24.6239ZM241.583 110.604C241.583 110.138 241.599 109.676 241.631 109.219C242.275 108.129 242.475 106.84 242.215 105.624C244.423 97.0923 252.174 90.7917 261.395 90.7917C272.337 90.7917 281.207 99.6618 281.207 110.604C281.207 121.545 272.337 130.416 261.395 130.416C250.453 130.416 241.583 121.545 241.583 110.604ZM324.277 27.892C324.277 16.9502 333.147 8.08009 344.089 8.08009C355.03 8.08009 363.9 16.9502 363.9 27.892C363.9 38.8339 355.03 47.704 344.089 47.704C333.147 47.704 324.277 38.8339 324.277 27.892ZM29.812 57.7013C18.8701 57.7013 10 66.5714 10 77.5133C10 88.4551 18.8701 97.3252 29.812 97.3252C40.7538 97.3252 49.6239 88.4551 49.6239 77.5133C49.6239 66.5714 40.7538 57.7013 29.812 57.7013ZM15 190.039C15 187.277 12.7615 185.039 10 185.039C7.23861 185.039 5.00003 187.277 5.00003 190.039L5.00003 295.828C5.00003 298.589 7.2386 300.828 10 300.828C12.7614 300.828 15 298.589 15 295.828L15 190.039ZM175.378 185.039C178.139 185.039 180.378 187.277 180.378 190.039V295.828C180.378 298.589 178.139 300.828 175.378 300.828C172.616 300.828 170.378 298.589 170.378 295.828V190.039C170.378 187.277 172.616 185.039 175.378 185.039ZM345.799 190.039C345.799 187.277 343.56 185.039 340.799 185.039C338.037 185.039 335.799 187.277 335.799 190.039V295.828C335.799 298.589 338.037 300.828 340.799 300.828C343.56 300.828 345.799 298.589 345.799 295.828V190.039ZM263.106 223.125C263.106 220.363 260.867 218.125 258.106 218.125C255.344 218.125 253.106 220.363 253.106 223.125V295.831C253.106 298.593 255.344 300.831 258.106 300.831C260.867 300.831 263.106 298.593 263.106 295.831V223.125ZM97.6845 123.872C97.6845 121.111 95.4459 118.872 92.6845 118.872C89.9231 118.872 87.6845 121.111 87.6845 123.872L87.6845 295.827C87.6845 298.588 89.9231 300.827 92.6845 300.827C95.446 300.827 97.6845 298.588 97.6845 295.827L97.6845 123.872Z" fill="url(#paint0_linear_4115_84864)"/>
<defs>
<linearGradient id="paint0_linear_4115_84864" x1="-48.1499" y1="-6.18334" x2="368.39" y2="280.37" gradientUnits="userSpaceOnUse">
<stop stop-color="#FFB84E"/>
<stop offset="1" stop-color="#FF9900" stop-opacity="0"/>
</linearGradient>
</defs>
</svg>
