<svg width="502" height="479" viewBox="0 0 502 479" fill="none" xmlns="http://www.w3.org/2000/svg">
<path d="M182.658 61.6877L218.326 10.4288C218.513 10.1602 218.82 10 219.147 10H283.365C283.691 10 283.997 10.159 284.184 10.426L319.553 60.8824M182.658 61.6877C174.709 73.0279 161.496 78.5847 147.473 77.594M182.658 61.6877C174.67 73.0008 161.496 78.6307 147.473 77.594M147.473 77.594L84.7319 73.6551C84.411 73.635 84.1 73.7703 83.8961 74.0188L43.0375 123.816C42.8213 124.079 42.7542 124.435 42.8595 124.759L61.5917 182.449M61.5917 182.449C63.6296 189.057 63.8903 196.135 62.4319 202.821M61.5917 182.449C63.6585 189.045 63.9096 196.109 62.4223 202.889M62.4319 202.821C60.9542 209.427 57.7863 215.666 53.0828 220.717M62.4319 202.821L62.4223 202.889M53.0828 220.717L11.0103 265.967C10.7819 266.212 10.6918 266.556 10.7705 266.882L25.5086 327.956C25.587 328.281 25.8226 328.546 26.1365 328.661L83.9408 349.846C90.4698 352.373 96.1102 356.48 100.379 361.653M53.0828 220.717C57.8153 215.707 60.9542 209.489 62.4223 202.889M100.379 361.653C104.619 366.841 107.507 373.103 108.627 379.883M100.379 361.653C104.658 366.841 107.555 373.087 108.627 379.883M100.379 361.653L100.311 361.579C100.031 361.24 99.732 360.885 99.4422 360.556M108.627 379.883L118.461 440.288C118.514 440.616 118.726 440.895 119.027 441.035L177.027 467.963C177.318 468.099 177.656 468.086 177.936 467.929L231.567 437.925M231.567 437.925C237.642 434.512 244.422 432.801 251.202 432.793M231.567 437.925C233.972 436.556 236.492 435.464 239.081 434.644C243.012 433.399 247.107 432.785 251.202 432.793M251.202 432.793C254.727 432.8 258.252 433.266 261.691 434.187C264.888 435.043 267.998 436.292 270.943 437.925M251.202 432.793C258.011 432.783 264.83 434.494 270.943 437.925M270.943 437.925L326.668 468.091C326.949 468.243 327.286 468.252 327.575 468.114L385.272 440.557C385.571 440.414 385.78 440.132 385.829 439.804L394.694 380.745M394.694 380.745C395.766 373.927 398.615 367.618 402.846 362.385M394.694 380.745C395.728 373.912 398.596 367.612 402.846 362.385M402.846 362.385C407.047 357.205 412.62 353.078 419.11 350.526M402.846 362.385C407.037 357.185 412.591 353.046 419.11 350.526M419.11 350.526L477.176 327.77C477.484 327.649 477.712 327.384 477.786 327.061L491.777 265.807C491.851 265.485 491.761 265.148 491.537 264.905L449.437 219.32M449.437 219.32C444.646 214.251 441.305 208.196 439.682 201.761M449.437 219.32C447.187 216.953 445.255 214.364 443.681 211.62C441.884 208.504 440.542 205.187 439.682 201.761M439.682 201.761C438.089 195.371 438.185 188.601 440.204 182.047L458.548 123.248C458.648 122.926 458.58 122.575 458.366 122.315L418.145 73.3949C417.939 73.144 417.623 73.009 417.299 73.0327L355.028 77.594M355.028 77.594C348.055 78.0864 341.197 76.758 335.093 73.9005M355.028 77.594C348.045 78.1147 341.197 76.7757 335.093 73.9005M335.093 73.9005C328.951 71.0064 323.561 66.556 319.553 60.8824M335.093 73.9005C328.941 71.017 323.542 66.5785 319.553 60.8824M62.4223 202.889L62.4416 202.789M328.864 239.41C328.864 282.148 293.437 316.794 249.744 316.794C206.05 316.794 170.623 282.148 170.623 239.41C170.623 196.671 206.05 162.026 249.744 162.026C293.437 162.026 328.864 196.671 328.864 239.41Z" stroke="url(#paint0_linear_4180_87968)" stroke-width="20"/>
<defs>
<linearGradient id="paint0_linear_4180_87968" x1="11" y1="54.5" x2="517" y2="331" gradientUnits="userSpaceOnUse">
<stop stop-color="#19A5FF"/>
<stop offset="1" stop-color="#19A5FF" stop-opacity="0"/>
</linearGradient>
</defs>
</svg>
