<svg width="35" height="32" viewBox="0 0 35 32" fill="none" xmlns="http://www.w3.org/2000/svg">
<path fill-rule="evenodd" clip-rule="evenodd" d="M12.1702 2C11.4887 2 10.9362 2.5525 10.9362 3.23404C10.9362 3.91559 11.4887 4.46809 12.1702 4.46809C12.8518 4.46809 13.4043 3.91559 13.4043 3.23404C13.4043 2.5525 12.8518 2 12.1702 2ZM8.93617 3.23404C8.93617 1.44793 10.3841 0 12.1702 0C13.9563 0 15.4043 1.44793 15.4043 3.23404C15.4043 3.3971 15.3922 3.55733 15.3689 3.7139L22.0552 11.1431C22.6104 10.6944 23.3171 10.4257 24.0866 10.4257C25.0178 10.4257 25.8571 10.8193 26.4472 11.4492L29.3216 8.57481C28.6907 7.98463 28.2964 7.14466 28.2964 6.21258C28.2964 4.42647 29.7444 2.97854 31.5305 2.97854C33.3166 2.97854 34.7645 4.42647 34.7645 6.21258C34.7645 7.9987 33.3166 9.44663 31.5305 9.44663C31.3953 9.44663 31.262 9.43833 31.1312 9.42222C31.0855 9.57724 31.0015 9.72336 30.8792 9.84567L27.3114 13.4135C27.3175 13.4948 27.3206 13.5769 27.3206 13.6598C27.3206 15.4459 25.8727 16.8938 24.0866 16.8938C22.3004 16.8938 20.8525 15.4459 20.8525 13.6598C20.8525 13.397 20.8838 13.1416 20.943 12.897L14.3754 5.5997C13.7977 6.13844 13.0224 6.46809 12.1702 6.46809C11.6616 6.46809 11.1804 6.35068 10.7523 6.1415L6.45889 10.4349C6.46498 10.516 6.46809 10.598 6.46809 10.6807C6.46809 12.4668 5.02015 13.9147 3.23404 13.9147C1.44793 13.9147 0 12.4668 0 10.6807C0 8.89456 1.44793 7.44663 3.23404 7.44663C4.16542 7.44663 5.00484 7.84034 5.59495 8.47042L9.31366 4.75171C9.07271 4.29914 8.93617 3.78254 8.93617 3.23404ZM30.2964 6.21258C30.2964 5.53104 30.8489 4.97854 31.5305 4.97854C32.212 4.97854 32.7645 5.53104 32.7645 6.21258C32.7645 6.89413 32.212 7.44663 31.5305 7.44663C30.8489 7.44663 30.2964 6.89413 30.2964 6.21258ZM3.23404 9.44663C2.5525 9.44663 2 9.99913 2 10.6807C2 11.3622 2.5525 11.9147 3.23404 11.9147C3.91559 11.9147 4.46809 11.3622 4.46809 10.6807C4.46809 9.99913 3.91559 9.44663 3.23404 9.44663ZM24.0866 12.4257C23.405 12.4257 22.8525 12.9782 22.8525 13.6598C22.8525 14.3413 23.405 14.8938 24.0866 14.8938C24.7681 14.8938 25.3206 14.3413 25.3206 13.6598C25.3206 12.9782 24.7681 12.4257 24.0866 12.4257ZM18 20C18.5523 20 19 20.4477 19 21V29.4255C19 29.9778 18.5523 30.4255 18 30.4255C17.4477 30.4255 17 29.9778 17 29.4255V21C17 20.4477 17.4477 20 18 20ZM32.7847 22.3622C32.7847 21.8099 32.3369 21.3622 31.7847 21.3622C31.2324 21.3622 30.7847 21.8099 30.7847 22.3622V30.7878C30.7847 31.34 31.2324 31.7878 31.7847 31.7878C32.3369 31.7878 32.7847 31.34 32.7847 30.7878V22.3622ZM25.3408 25.3408C25.3408 24.7885 24.893 24.3408 24.3408 24.3408C23.7885 24.3408 23.3408 24.7885 23.3408 25.3408V30.7876C23.3408 31.3399 23.7885 31.7876 24.3408 31.7876C24.893 31.7876 25.3408 31.3399 25.3408 30.7876V25.3408ZM3.00033 22.3622C3.00033 21.8099 2.55262 21.3622 2.00033 21.3622C1.44805 21.3622 1.00033 21.8099 1.00033 22.3622L1.00033 30.7878C1.00033 31.34 1.44805 31.7878 2.00033 31.7878C2.55262 31.7878 3.00033 31.34 3.00033 30.7878L3.00033 22.3622ZM10.4442 16.4046C10.4442 15.8523 9.99652 15.4046 9.44423 15.4046C8.89195 15.4046 8.44423 15.8523 8.44423 16.4046L8.44423 30.7876C8.44423 31.3399 8.89195 31.7876 9.44423 31.7876C9.99652 31.7876 10.4442 31.3399 10.4442 30.7876L10.4442 16.4046Z" fill="#FF9900"/>
</svg>
