<svg width="35" height="44" viewBox="0 0 35 44" fill="none" xmlns="http://www.w3.org/2000/svg">
<path fill-rule="evenodd" clip-rule="evenodd" d="M15.5789 4.60526C15.5789 6.04411 14.4125 7.21053 12.9737 7.21053C11.5348 7.21053 10.3684 6.04411 10.3684 4.60526C10.3684 3.16642 11.5348 2 12.9737 2C14.4125 2 15.5789 3.16642 15.5789 4.60526ZM17.5789 4.60526C17.5789 7.14868 15.5171 9.21053 12.9737 9.21053C10.4303 9.21053 8.36842 7.14868 8.36842 4.60526C8.36842 2.06185 10.4303 0 12.9737 0C15.5171 0 17.5789 2.06185 17.5789 4.60526ZM27.7105 10.8947C29.1494 10.8947 30.3158 9.72832 30.3158 8.28947C30.3158 6.85063 29.1494 5.68421 27.7105 5.68421C26.2717 5.68421 25.1053 6.85063 25.1053 8.28947C25.1053 9.72832 26.2717 10.8947 27.7105 10.8947ZM27.7105 12.8947C30.2539 12.8947 32.3158 10.8329 32.3158 8.28947C32.3158 5.74606 30.2539 3.68421 27.7105 3.68421C25.1671 3.68421 23.1053 5.74606 23.1053 8.28947C23.1053 10.8329 25.1671 12.8947 27.7105 12.8947ZM22.0311 13.2143C21.7172 12.0938 20.4615 11.4315 19.3174 11.9219L3.21216 18.8241C2.80952 18.9967 2.4844 19.2915 2.27262 19.6543C2.79551 19.4036 3.38136 19.2632 4 19.2632H16.0864C15.8612 18.7201 15.7368 18.1246 15.7368 17.5C15.7368 14.9566 17.7987 12.8947 20.3421 12.8947C20.9383 12.8947 21.5081 13.008 22.0311 13.2143ZM24.1053 14.8447V13.7601C24.1053 10.8885 21.1691 8.95236 18.5296 10.0836L2.42432 16.9858C0.953588 17.6161 0 19.0623 0 20.6624V23.2632V25.7895V39.3684C0 41.5776 1.79086 43.3684 4 43.3684H25.6316C27.8407 43.3684 29.6316 41.5776 29.6316 39.3684V35H31.1579C32.8147 35 34.1579 33.6569 34.1579 32V28.7895C34.1579 27.1326 32.8147 25.7895 31.1579 25.7895H29.6316V23.2632C29.6316 21.054 27.8407 19.2632 25.6316 19.2632H24.5978C24.823 18.7201 24.9474 18.1246 24.9474 17.5C24.9474 16.5112 24.6357 15.5951 24.1053 14.8447ZM17.6868 21.2632C18.4372 21.7936 19.3533 22.1053 20.3421 22.1053C21.3309 22.1053 22.247 21.7936 22.9974 21.2632H25.6316C26.7361 21.2632 27.6316 22.1586 27.6316 23.2632V25.7895H20.5789C18.9221 25.7895 17.5789 27.1326 17.5789 28.7895V32C17.5789 33.6569 18.9221 35 20.5789 35H27.6316V39.3684C27.6316 40.473 26.7361 41.3684 25.6316 41.3684H4C2.89543 41.3684 2 40.473 2 39.3684V25.7895V23.2632C2 22.1586 2.89543 21.2632 4 21.2632H17.6868ZM22.1053 15.582C21.6413 15.1553 21.0221 14.8947 20.3421 14.8947C18.9033 14.8947 17.7368 16.0612 17.7368 17.5C17.7368 18.18 17.9974 18.7992 18.4241 19.2632H22.1053V15.582ZM31.1579 27.7895H20.5789C20.0267 27.7895 19.5789 28.2372 19.5789 28.7895V32C19.5789 32.5523 20.0267 33 20.5789 33H31.1579C31.7102 33 32.1579 32.5523 32.1579 32V28.7895C32.1579 28.2372 31.7102 27.7895 31.1579 27.7895Z" fill="#FF9900"/>
</svg>
