<svg width="145" height="163" viewBox="0 0 145 163" fill="none" xmlns="http://www.w3.org/2000/svg">
<g opacity="0.25">
<path d="M144.102 90.4497C144.102 115.903 130.903 138.272 110.977 151.087C110.625 151.314 110.27 151.538 109.912 151.758C98.9101 158.571 85.9384 162.501 72.0508 162.501C58.0105 162.501 44.9075 158.482 33.8279 151.535C33.4694 151.311 33.1144 151.084 32.763 150.853C13.0392 138.002 0 115.747 0 90.4497C0 50.6542 32.2589 18.3989 72.0508 18.3989C111.843 18.3989 144.102 50.6542 144.102 90.4497Z" fill="#7C6F66"/>
</g>
<path d="M105.456 24.3252C105.456 24.3252 107.7 40.3151 114.433 50.975C124.142 66.348 111.628 68.3679 114.153 79.0279C116.677 89.6878 136.034 98.6647 113.03 123.071C97.9756 139.043 79.9284 107.922 79.9284 107.922L74.8789 67.2458L105.456 24.3252Z" fill="#563C00"/>
<path d="M129.48 133.018C116.317 150.218 95.5744 161.308 72.2402 161.308C48.9096 161.308 28.167 150.218 15 133.022C18.6103 117.327 30.2118 104.686 45.2922 99.6126C48.015 98.6931 50.8515 98.0257 53.7731 97.6281C56.6202 96.4601 59.6022 95.5549 62.6907 94.9372C65.7792 94.3231 68.9742 94 72.2402 94C78.7793 94 85.0167 95.2922 90.7109 97.6281C105.951 99.6942 118.83 109.19 125.583 122.347C127.297 125.687 128.618 129.266 129.48 133.018Z" fill="#863F38"/>
<path d="M125.576 122.347C121.028 122.897 116.353 123.185 111.581 123.185C104.006 123.185 96.6714 122.461 89.7028 121.105C88.7514 120.924 87.8071 120.728 86.8699 120.519C70.0961 116.795 55.6086 109.383 45.2852 99.613C48.008 98.6936 50.8445 98.0262 53.7661 97.6286C56.6132 96.4606 59.5952 95.5554 62.6837 94.9377C65.7722 94.3235 68.9672 94.0005 72.2332 94.0005C78.7333 94.0005 84.9351 95.2785 90.6009 97.586C90.6364 97.6002 90.6684 97.6144 90.7039 97.6286C91.634 97.7528 92.5534 97.909 93.4622 98.0865C107.492 100.866 119.235 109.993 125.576 122.347Z" fill="#FFD9BB"/>
<path d="M34.0142 133.785V150.342C33.6557 150.118 33.3007 149.891 32.9492 149.661V133.785C32.9492 133.49 33.1906 133.252 33.4817 133.252C33.7764 133.252 34.0142 133.49 34.0142 133.785Z" fill="#752926"/>
<path d="M111.163 133.785V149.895C110.811 150.123 110.456 150.346 110.098 150.566V133.785C110.098 133.491 110.339 133.253 110.63 133.253C110.925 133.253 111.163 133.491 111.163 133.785Z" fill="#752926"/>
<path d="M93.4629 98.087C93.4522 103.234 92.8913 112.248 89.7034 121.105C88.3154 124.971 86.4268 128.809 83.8637 132.284C83.5868 132.66 83.1569 132.859 82.7202 132.859C82.4291 132.859 82.1313 132.77 81.8792 132.582C81.2473 132.117 81.1124 131.23 81.5775 130.598C83.8672 127.492 85.5854 124.034 86.8705 120.519C90.101 111.683 90.6051 102.478 90.6016 97.5864C90.6371 97.6006 90.669 97.6148 90.7045 97.629C91.6346 97.7533 92.5541 97.9095 93.4629 98.087Z" fill="#863F38"/>
<path d="M71.9603 112.253C65.3136 112.253 59.9258 106.865 59.9258 100.218V59.8254C59.9258 53.1787 65.3136 47.7905 71.9603 47.7905C78.6069 47.7905 83.9948 53.1787 83.9948 59.8254V100.218C83.9948 106.865 78.6069 112.253 71.9603 112.253Z" fill="#FFD9BB"/>
<path d="M83.9934 59.823V92.5231C75.1453 91.9576 66.9207 89.0817 59.9258 84.4827V59.823C59.9258 53.1781 65.3147 47.7896 71.9596 47.7896C75.2841 47.7896 78.2949 49.1354 80.4711 51.3161C82.6472 53.4923 83.9934 56.4981 83.9934 59.823Z" fill="#F4C7A6"/>
<path d="M107.61 55.3463C107.61 58.5381 105.022 61.1257 101.83 61.1257C98.6384 61.1257 96.0508 58.5381 96.0508 55.3463C96.0508 52.1545 98.6384 49.5669 101.83 49.5669C105.022 49.5669 107.61 52.1545 107.61 55.3463Z" fill="#F6C9A7"/>
<path d="M86.4507 80.947C77.7929 87.1684 66.1305 87.1684 57.4727 80.947C47.8693 74.0458 42.1758 62.9436 42.1758 51.1178V36.9544C42.1758 20.504 55.5114 7.16846 71.9617 7.16846C88.412 7.16846 101.748 20.504 101.748 36.9544V51.1178C101.748 62.9436 96.0541 74.0458 86.4507 80.947Z" fill="#FFD9BB"/>
<path d="M71.9572 74.6484C67.5734 74.6484 64.0195 71.0947 64.0195 66.7109H79.895C79.895 71.0947 76.341 74.6484 71.9572 74.6484Z" fill="white"/>
<path d="M71.9477 61.617C70.0623 61.617 68.5873 59.9925 68.7691 58.116L69.4226 51.3639C69.5487 50.0635 70.6413 49.0713 71.9477 49.0713C73.2541 49.0713 74.3468 50.0635 74.4729 51.3639L75.1264 58.116C75.3082 59.9925 73.8331 61.617 71.9477 61.617Z" fill="#F4C7A6"/>
<path d="M59.2919 54.5632C57.383 54.5632 55.8359 53.0161 55.8359 51.1073C55.8359 49.1985 57.383 47.6514 59.2919 47.6514C61.2007 47.6514 62.7478 49.1985 62.7478 51.1073C62.7478 53.0161 61.2007 54.5632 59.2919 54.5632Z" fill="#563C00"/>
<path d="M84.077 54.5632C82.1682 54.5632 80.6211 53.0161 80.6211 51.1073C80.6211 49.1985 82.1682 47.6514 84.077 47.6514C85.9859 47.6514 87.5329 49.1985 87.5329 51.1073C87.5329 53.0161 85.9859 54.5632 84.077 54.5632Z" fill="#563C00"/>
<path d="M62.0239 43.2523H56.0904C55.1837 43.2523 54.4492 42.5174 54.4492 41.6108C54.4492 40.7041 55.1837 39.9692 56.0904 39.9692H62.0239C62.9305 39.9692 63.665 40.7041 63.665 41.6108C63.665 42.5174 62.9305 43.2523 62.0239 43.2523Z" fill="#422C01"/>
<path d="M87.0512 43.2523H81.1177C80.2111 43.2523 79.4766 42.5174 79.4766 41.6108C79.4766 40.7041 80.2111 39.9692 81.1177 39.9692H87.0512C87.9579 39.9692 88.6924 40.7041 88.6924 41.6108C88.6924 42.5174 87.9579 43.2523 87.0512 43.2523Z" fill="#422C01"/>
<path d="M54.0859 15.8538C54.0859 15.8538 56.7509 37.5947 78.3516 41.8025L73.0216 28.4776C73.0216 28.4776 74.8449 44.6081 96.3054 43.7664C96.3054 43.7664 104.16 47.4129 101.355 55.8289C101.355 55.8289 109.069 49.3768 106.124 38.4364C103.178 27.496 110.051 26.7945 99.1106 10.664C89.461 -3.56296 57.8731 -5.18566 54.0859 15.8538Z" fill="#563C00"/>
<path d="M61.1844 11.2251C61.1844 11.2251 50.8049 2.80947 42.9502 12.3473C35.0954 21.8854 37.0593 36.7531 29.7655 46.0105C22.4716 55.2678 23.5938 63.403 32.5707 72.0994C41.5476 80.7959 7.32342 88.931 18.2638 110.532C29.2042 132.132 57.1789 120.673 59.1424 103.561C61.1063 86.4492 59.7353 82.2737 59.7353 82.2737C59.7353 82.2737 47.7192 73.7828 45.7554 59.476C43.7919 45.1691 47.158 38.1558 53.3296 33.1062C59.5013 28.0567 65.1117 23.5684 61.1844 11.2251Z" fill="#563C00"/>
</svg>
