<svg width="155" height="122" viewBox="0 0 155 122" fill="none" xmlns="http://www.w3.org/2000/svg">
<path d="M149.046 65.8641L153.488 78.0672L83.3556 103.593L78.9141 91.3901L149.046 65.8641Z" fill="#8E00A2"/>
<path d="M144.574 53.6644L149.015 65.8675L78.883 91.3936L74.4414 79.1904L144.574 53.6644Z" fill="#288AF6"/>
<path d="M140.277 41.9686L144.718 54.1717L74.5861 79.6978L70.1445 67.4946L140.277 41.9686Z" fill="#38BE65"/>
<path d="M136.23 30.7801L140.671 42.9833L70.5392 68.5093L66.0977 56.3062L136.23 30.7801Z" fill="#FBC900"/>
<path d="M131.953 19.0877L136.394 31.2909L66.2619 56.8169L61.8203 44.6138L131.953 19.0877Z" fill="#FFA600"/>
<path d="M127.706 7.39779L132.148 19.6009L62.0158 45.127L57.5742 32.9238L127.706 7.39779Z" fill="#EF4514"/>
<path d="M153.709 78.6869L83.9078 104.262L58.1014 33.3598L127.903 7.78438L153.709 78.6869Z" stroke="black" stroke-width="2" stroke-linecap="round" stroke-linejoin="round"/>
<path d="M103.601 72.0002L83.7741 104.268L75.7227 82.147L103.601 72.0002Z" fill="#670475"/>
<path d="M103.601 72.0002L83.7741 104.268L75.7227 82.147L103.601 72.0002Z" stroke="black" stroke-width="2" stroke-linecap="round" stroke-linejoin="round"/>
<path d="M98.6696 59.9695L103.111 72.1726L29.4572 98.9805L25.0156 86.7773L98.6696 59.9695Z" fill="#8E00A2"/>
<path d="M94.2595 47.7668L98.701 59.97L25.047 86.7778L20.6055 74.5747L94.2595 47.7668Z" fill="#288AF6"/>
<path d="M89.9743 36.072L94.4159 48.2752L20.7619 75.083L16.3203 62.8799L89.9743 36.072Z" fill="#38BE65"/>
<path d="M85.9353 24.8884L90.3768 37.0916L16.7228 63.8994L12.2812 51.6963L85.9353 24.8884Z" fill="#FBC900"/>
<path d="M81.6735 13.1946L86.1151 25.3977L12.4611 52.2056L8.01953 40.0024L81.6735 13.1946Z" fill="#FFA600"/>
<path d="M77.3923 1.49633L81.8339 13.6995L8.17986 40.5073L3.73828 28.3042L77.3923 1.49633Z" fill="#EF4514"/>
<path d="M103.654 71.9072L32.3374 97.9189L6.52911 27.0112L77.8459 0.999854L103.654 71.9072Z" stroke="black" stroke-width="2" stroke-linecap="round" stroke-linejoin="round"/>
<path d="M2 19.7632L38.4832 120" stroke="black" stroke-width="3" stroke-linecap="round" stroke-linejoin="round"/>
</svg>
