<svg width="145" height="160" viewBox="0 0 145 160" fill="none" xmlns="http://www.w3.org/2000/svg">
<g opacity="0.25">
<path d="M144.102 87.0083C144.102 113.197 130.129 136.123 109.234 148.736C108.882 148.949 108.527 149.158 108.169 149.368C97.5505 155.53 85.2142 159.059 72.0508 159.059C58.8093 159.059 46.4021 155.488 35.7379 149.254C35.3829 149.045 35.0279 148.835 34.6729 148.622C13.8841 135.981 0 113.119 0 87.0083C0 47.2164 32.2553 14.9575 72.0508 14.9575C111.843 14.9575 144.102 47.2164 144.102 87.0083Z" fill="#7C6F66"/>
</g>
<path d="M45.5133 47.5433C42.5802 46.4402 40.9376 42.9427 41.5471 39.93C41.7417 38.9677 41.8365 37.9706 41.6113 37.0147C41.5978 36.9566 41.5871 36.8982 41.5793 36.8388C41.4475 35.8225 41.1456 34.827 40.5106 34.0227C38.8469 31.9153 38.0344 29.1292 38.3905 26.4618C38.7654 23.6514 40.4264 21.0543 42.7714 19.4722C43.5496 18.9471 44.1873 18.251 44.6451 17.4313C44.9973 16.8001 45.5525 16.2772 46.1994 15.9299C47.7122 15.1179 48.8159 13.7006 49.299 12.053C51.4717 4.64718 64.0939 -2.107 75.2507 2.48674C77.0197 3.21522 79.0212 3.10734 80.7435 2.2742C84.5623 0.426955 89.2404 0.333015 93.0692 2.19306C97.1558 4.17796 100.091 8.29906 100.782 12.7734C100.961 13.9308 101.415 15.033 102.185 15.9159C102.558 16.3446 102.828 16.8676 102.962 17.4207C103.217 18.4746 103.696 19.4583 104.452 20.2359C105.783 21.6058 106.627 23.4547 106.735 25.3647C106.823 26.9266 106.416 28.5031 105.626 29.8517C104.814 31.2389 104.564 32.9005 104.899 34.4728C105.102 35.4279 105.052 36.4421 104.744 37.3656C104.359 38.5238 104.275 39.7502 104.534 40.9434C104.568 41.0995 104.597 41.2569 104.621 41.415C105.2 45.1201 102.43 48.5191 98.7 48.9086C88.6635 49.9567 78.5393 50.99 68.4738 51.0328C60.7896 51.0655 52.7057 50.2483 45.5133 47.5433Z" fill="#563C00"/>
<path d="M129.285 130.773C116.118 147.97 95.3755 159.06 72.0449 159.06C48.7143 159.06 27.9716 147.97 14.8047 130.773C19.0647 112.246 34.4681 97.975 53.5742 95.3835C56.4249 94.212 59.4069 93.3067 62.4954 92.6926C65.5839 92.0784 68.7753 91.7554 72.0449 91.7554C78.584 91.7554 84.8178 93.044 90.5155 95.3835C109.625 97.975 125.025 112.246 129.285 130.773Z" fill="#583D73"/>
<path d="M35.733 133.819V149.255C35.378 149.045 35.023 148.836 34.668 148.623V133.819C34.668 133.524 34.9058 133.287 35.2005 133.287C35.4951 133.287 35.733 133.524 35.733 133.819Z" fill="#260D44"/>
<path d="M109.229 133.819V148.736C108.878 148.949 108.523 149.159 108.164 149.368V133.819C108.164 133.524 108.402 133.287 108.697 133.287C108.991 133.287 109.229 133.524 109.229 133.819Z" fill="#260D44"/>
<path d="M71.7619 108.812C65.1163 108.696 59.8231 103.215 59.9388 96.5694L60.642 56.1829C60.7578 49.5373 66.2386 44.2437 72.8842 44.3594C79.5299 44.4751 84.8231 49.9563 84.7074 56.602L84.0041 96.9885C83.8884 103.634 78.4076 108.928 71.7619 108.812Z" fill="#FFD9BB"/>
<path d="M84.706 56.6005L84.1367 89.2957C75.2998 88.5762 67.1265 85.5576 60.2127 80.8375L60.6421 56.1815C60.7577 49.5376 66.2396 44.2437 72.8835 44.3594C76.2076 44.4173 79.1945 45.8153 81.3323 48.0336C83.4703 50.2473 84.7639 53.2761 84.706 56.6005Z" fill="#F4C7A6"/>
<path d="M87.1998 85.8933C85.2987 83.9248 80.2329 87.3431 72.79 87.3382C64.7219 87.3326 59.7615 83.5948 57.3303 86.2332C54.0653 89.7762 57.6655 93.5961 55.8158 106.921C55.2617 110.914 57.777 114.719 61.6987 115.651C67.9646 117.142 77.2512 117.582 83.8021 115.433C86.8392 114.437 88.6183 111.321 88.0093 108.184C85.4201 94.8388 90.7998 89.6209 87.1998 85.8933Z" fill="#583D73"/>
<path d="M86.794 98.1477C86.794 98.1477 82.4425 103.239 70.7444 102.456" stroke="#260D44" stroke-miterlimit="10" stroke-linecap="round"/>
<path d="M78.1426 104.951C78.1426 104.951 85.6196 101.16 87.972 96.2598" stroke="#260D44" stroke-miterlimit="10" stroke-linecap="round"/>
<path d="M108.413 52.534C108.358 55.7253 105.726 58.2674 102.534 58.2119C99.343 58.1563 96.8008 55.524 96.8564 52.3327C96.912 49.1414 99.5442 46.5992 102.736 46.6548C105.927 46.7104 108.469 49.3426 108.413 52.534Z" fill="#F6C9A7"/>
<path d="M48.8471 51.4969C48.7915 54.6882 46.1592 57.2303 42.9679 57.1748C39.7766 57.1192 37.2344 54.4869 37.29 51.2956C37.3456 48.1043 39.9778 45.5621 43.1691 45.6177C46.3605 45.6733 48.9026 48.3055 48.8471 51.4969Z" fill="#F6C9A7"/>
<path d="M86.7913 77.762C78.0265 83.8317 66.3658 83.6287 57.8177 77.2575C48.3359 70.1902 42.8365 58.9901 43.0424 47.1661L43.2236 36.7609C43.51 20.313 57.0757 7.21167 73.5236 7.49807C89.9714 7.78447 103.073 21.3502 102.786 37.798L102.605 48.2033C102.399 60.0273 96.5134 71.0291 86.7913 77.762Z" fill="#FFD9BB"/>
<path d="M72.4155 71.2131C68.0324 71.1368 64.5409 67.5218 64.6172 63.1387L80.4902 63.4151C80.4139 67.7982 76.7986 71.2894 72.4155 71.2131Z" fill="white"/>
<path d="M72.6429 58.1849C70.7578 58.152 69.3113 56.5021 69.5257 54.629L70.2967 47.8893C70.4453 46.5914 71.5551 45.6183 72.8613 45.6411C74.1675 45.6638 75.2428 46.6749 75.3461 47.9773L75.882 54.7397C76.0311 56.6191 74.528 58.2177 72.6429 58.1849Z" fill="#F4C7A6"/>
<path d="M60.1085 50.9104C58.2 50.8772 56.68 49.3034 56.7133 47.3949C56.7465 45.4863 58.3203 43.9664 60.2288 43.9996C62.1374 44.0329 63.6573 45.6066 63.6241 47.5152C63.5908 49.4237 62.017 50.9437 60.1085 50.9104Z" fill="#563C00"/>
<path d="M84.8937 51.3426C82.9851 51.3093 81.4652 49.7355 81.4984 47.827C81.5317 45.9184 83.1054 44.3985 85.014 44.4318C86.9225 44.465 88.4425 46.0388 88.4092 47.9473C88.376 49.8559 86.8022 51.3758 84.8937 51.3426Z" fill="#563C00"/>
<path d="M63.0359 39.6488L57.1033 39.5455C56.1968 39.5297 55.4752 38.7822 55.491 37.8756C55.5067 36.9691 56.2539 36.2472 57.1604 36.2629L63.093 36.3663C63.9996 36.382 64.7211 37.1296 64.7054 38.0361C64.6896 38.9426 63.9424 39.6646 63.0359 39.6488Z" fill="#563C00"/>
<path d="M88.0593 40.0848L82.1267 39.9815C81.2202 39.9657 80.4986 39.2182 80.5144 38.3117C80.5302 37.4051 81.2774 36.6832 82.1839 36.699L88.1165 36.8023C89.023 36.8181 89.7446 37.5656 89.7288 38.4721C89.713 39.3787 88.9658 40.1006 88.0593 40.0848Z" fill="#563C00"/>
<path d="M103.561 28.4178C102.729 22.7629 100.278 17.1395 95.7669 13.3886C89.9022 8.5121 81.4125 6.3078 73.6442 6.33195C68.8791 6.34662 64.227 7.86868 59.6938 9.26535C55.1607 10.662 50.9005 13.2039 48.1976 16.9495C45.649 20.4812 44.6454 24.795 43.695 28.9894C42.362 34.8711 41.6436 40.9517 43.0516 46.7941L43.0451 47.1665C42.9583 52.1499 43.8854 57.0196 45.6961 61.5142C46.856 59.7414 48.7394 56.7338 47.6888 53.7128C45.4234 47.1976 46.1952 42.3887 46.2936 41.0206C46.4409 38.9663 46.5431 36.9088 46.6003 34.8501C50.8329 32.5631 53.7439 28.1845 54.1122 23.5493C54.6089 24.5293 55.9141 25.0569 56.9948 24.7154C56.9603 24.2337 56.926 23.752 56.8915 23.2703C62.326 25.5478 69.0124 24.8121 73.754 21.4155C75.3492 22.6636 77.693 22.9643 79.5731 22.1623C80.3927 24.3605 82.3371 26.1483 84.6676 26.8458C86.9981 27.5432 89.6603 27.134 91.641 25.7739C92.1223 27.4765 94.2004 28.5981 95.9732 28.1113C94.705 34.1426 102.68 44.1278 97.1648 54.5744C95.5191 57.6918 97.9333 61.2095 99.2307 62.9612C101.341 58.3929 102.519 53.3787 102.609 48.2036L102.756 45.3019C103.543 39.7043 104.383 34.01 103.561 28.4178Z" fill="#563C00"/>
</svg>
