<svg width="234" height="147" viewBox="0 0 234 147" fill="none" xmlns="http://www.w3.org/2000/svg">
<path d="M0.0827395 100.114C0.0369123 100.114 0 99.2598 0 98.2055C0 97.1509 0.0369123 96.2959 0.0827395 96.2959C0.128557 96.2959 0.165469 97.1509 0.165469 98.2055C0.165469 99.2598 0.128557 100.114 0.0827395 100.114Z" fill="#CF24CB"/>
<path d="M0.0827395 107.752C0.0369123 107.752 0 106.897 0 105.843C0 104.788 0.0369123 103.933 0.0827395 103.933C0.128557 103.933 0.165469 104.788 0.165469 105.843C0.165469 106.897 0.128557 107.752 0.0827395 107.752Z" fill="#E66926"/>
<path d="M0.0827395 115.389C0.0369123 115.389 0 114.534 0 113.48C0 112.425 0.0369123 111.57 0.0827395 111.57C0.128557 111.57 0.165469 112.425 0.165469 113.48C0.165469 114.534 0.128557 115.389 0.0827395 115.389Z" fill="#F05909"/>
<path d="M0.0827395 123.026C0.0369123 123.026 0 122.171 0 121.117C0 120.063 0.0369123 119.208 0.0827395 119.208C0.128557 119.208 0.165469 120.063 0.165469 121.117C0.165469 122.171 0.128557 123.026 0.0827395 123.026Z" fill="#F25F10"/>
<path d="M0.0827395 130.663C0.0369123 130.663 0 129.809 0 128.754C0 127.7 0.0369123 126.845 0.0827395 126.845C0.128557 126.845 0.165469 127.7 0.165469 128.754C0.165469 129.809 0.128557 130.663 0.0827395 130.663Z" fill="#F75C09"/>
<path d="M3.1549 135.228C3.1549 135.274 2.29986 135.311 1.2456 135.311C0.805505 135.311 0.400101 135.304 0.0822045 135.293H0.0777471C0.0427382 135.292 0.015372 135.263 0.0166442 135.228C0.0319199 134.772 0.0554696 134.482 0.0822045 134.482C0.10893 134.482 0.132479 134.772 0.147755 135.228L0.0822045 135.162C0.400101 135.151 0.805505 135.145 1.2456 135.145C2.29986 135.145 3.1549 135.182 3.1549 135.228Z" fill="#F07432"/>
<path d="M10.7922 135.228C10.7922 135.274 9.93719 135.311 8.88294 135.311C7.82836 135.311 6.97363 135.274 6.97363 135.228C6.97363 135.182 7.82836 135.145 8.88294 135.145C9.93719 135.145 10.7922 135.182 10.7922 135.228Z" fill="#E0E0E0"/>
<path d="M18.4309 135.228C18.4309 135.274 17.5759 135.311 16.5216 135.311C15.467 135.311 14.6123 135.274 14.6123 135.228C14.6123 135.182 15.467 135.145 16.5216 135.145C17.5759 135.145 18.4309 135.182 18.4309 135.228Z" fill="#C95415"/>
<path d="M24.6054 135.228C24.6054 135.274 24.0771 135.311 23.4257 135.311C22.774 135.311 22.2461 135.274 22.2461 135.228C22.2461 135.182 22.774 135.146 23.4257 135.146C24.0771 135.146 24.6054 135.182 24.6054 135.228Z" fill="#CD329F"/>
<path d="M114.232 27.0398C114.232 26.9939 114.66 26.957 115.187 26.957C115.714 26.957 116.142 26.9939 116.142 27.0398C116.142 27.0856 115.714 27.1228 115.187 27.1228C114.66 27.1228 114.232 27.0856 114.232 27.0398Z" fill="#F25F10"/>
<path d="M107.647 27.0398C107.647 26.9939 108.385 26.957 109.294 26.957C110.203 26.957 110.94 26.9939 110.94 27.0398C110.94 27.0856 110.203 27.1228 109.294 27.1228C108.385 27.1228 107.647 27.0856 107.647 27.0398Z" fill="#F75C09"/>
<path d="M101.065 27.0398C101.065 26.9939 101.802 26.957 102.711 26.957C103.62 26.957 104.357 26.9939 104.357 27.0398C104.357 27.0856 103.62 27.1228 102.711 27.1228C101.802 27.1228 101.065 27.0856 101.065 27.0398Z" fill="#F07432"/>
<path d="M95.864 28.9494C95.8182 28.9494 95.7812 28.0947 95.7812 27.0404C95.947 26.8746 95.8274 26.9943 95.8646 26.9574H95.8656H95.8669H95.87H95.8764H95.8885H95.9133H95.9623L96.0591 26.9577C96.123 26.958 96.186 26.9586 96.2487 26.959C96.3706 26.9605 96.4899 26.9621 96.6073 26.9637C96.8161 26.9698 97.0178 26.9758 97.2142 26.9815C97.5598 26.9965 97.7733 27.0172 97.7733 27.0401C97.7733 27.063 97.5598 27.0837 97.2142 27.0987C97.0178 27.1044 96.8161 27.1104 96.6073 27.1165C96.4899 27.1181 96.3706 27.1197 96.2487 27.1212C96.186 27.1216 96.123 27.1222 96.0591 27.1225L95.9623 27.1228L95.9133 27.1232H95.8885H95.8764H95.87H95.8669H95.8656H95.8646C95.9012 27.0862 95.7812 27.2059 95.9467 27.0404C95.9467 28.0947 95.9098 28.9494 95.864 28.9494Z" fill="#E0E0E0"/>
<path d="M95.864 36.3508C95.8182 36.3508 95.7812 35.5221 95.7812 34.5003C95.7812 33.4782 95.8182 32.6499 95.864 32.6499C95.9098 32.6499 95.9467 33.4782 95.9467 34.5003C95.9467 35.5221 95.9098 36.3508 95.864 36.3508Z" fill="#C95415"/>
<path d="M95.864 41.9611C95.8182 41.9611 95.7812 41.5337 95.7812 41.0064C95.7812 40.4791 95.8182 40.0518 95.864 40.0518C95.9098 40.0518 95.9467 40.4791 95.9467 41.0064C95.9467 41.5337 95.9098 41.9611 95.864 41.9611Z" fill="#CD329F"/>
<path d="M192.734 8.87522C192.734 8.92104 191.879 8.95795 190.824 8.95795C189.77 8.95795 188.915 8.92104 188.915 8.87522C188.915 8.82939 189.77 8.79248 190.824 8.79248C191.879 8.79248 192.734 8.82939 192.734 8.87522Z" fill="#42DDF6"/>
<path d="M200.371 8.87522C200.371 8.92104 199.516 8.95795 198.462 8.95795C197.407 8.95795 196.553 8.92104 196.553 8.87522C196.553 8.82939 197.407 8.79248 198.462 8.79248C199.516 8.79248 200.371 8.82939 200.371 8.87522Z" fill="#ED14E7"/>
<path d="M208.01 8.87522C208.01 8.92104 207.155 8.95795 206.101 8.95795C205.046 8.95795 204.191 8.92104 204.191 8.87522C204.191 8.82939 205.046 8.79248 206.101 8.79248C207.155 8.79248 208.01 8.82939 208.01 8.87522Z" fill="#EB78E9"/>
<path d="M215.646 8.87522C215.646 8.92104 214.791 8.95795 213.736 8.95795C212.682 8.95795 211.827 8.92104 211.827 8.87522C211.827 8.82939 212.682 8.79248 213.736 8.79248C214.791 8.79248 215.646 8.82939 215.646 8.87522Z" fill="#510B4F"/>
<path d="M223.282 8.87571C223.282 8.92153 222.427 8.95844 221.373 8.95844C220.319 8.95844 219.464 8.92153 219.464 8.87571C219.464 8.82988 220.319 8.79297 221.373 8.79297C222.427 8.79297 223.282 8.82988 223.282 8.87571Z" fill="#CF24CB"/>
<path d="M230.768 9.02368C230.757 9.02368 230.746 8.97117 230.736 8.87571L230.768 8.90753C230.481 8.93744 229.8 8.95844 229.007 8.95844C227.952 8.95844 227.098 8.92153 227.098 8.87571C227.098 8.82988 227.952 8.79297 229.007 8.79297C229.8 8.79297 230.481 8.81365 230.768 8.84356L230.775 8.84452C230.791 8.84611 230.802 8.86011 230.8 8.87571C230.791 8.97117 230.78 9.02368 230.768 9.02368Z" fill="#E66926"/>
<path d="M230.775 16.6609C230.729 16.6609 230.692 15.8058 230.692 14.7516C230.692 13.697 230.729 12.8423 230.775 12.8423C230.821 12.8423 230.858 13.697 230.858 14.7516C230.858 15.8058 230.821 16.6609 230.775 16.6609Z" fill="#F05909"/>
<path d="M230.775 24.2971C230.729 24.2971 230.692 23.4421 230.692 22.3878C230.692 21.3332 230.729 20.4785 230.775 20.4785C230.821 20.4785 230.858 21.3332 230.858 22.3878C230.858 23.4421 230.821 24.2971 230.775 24.2971Z" fill="#F25F10"/>
<path d="M230.775 31.9353C230.729 31.9353 230.692 31.0803 230.692 30.026C230.692 28.9714 230.729 28.1167 230.775 28.1167C230.821 28.1167 230.858 28.9714 230.858 30.026C230.858 31.0803 230.821 31.9353 230.775 31.9353Z" fill="#F75C09"/>
<path d="M230.775 39.572C230.729 39.572 230.692 38.717 230.692 37.6627C230.692 36.6081 230.729 35.7534 230.775 35.7534C230.821 35.7534 230.858 36.6081 230.858 37.6627C230.858 38.717 230.821 39.572 230.775 39.572Z" fill="#F07432"/>
<path d="M230.775 47.2097C230.729 47.2097 230.692 46.3547 230.692 45.3004C230.692 44.2458 230.729 43.3911 230.775 43.3911C230.821 43.3911 230.858 44.2458 230.858 45.3004C230.858 46.3547 230.821 47.2097 230.775 47.2097Z" fill="#E0E0E0"/>
<path d="M227.122 51.1949C227.122 51.1491 227.977 51.1118 229.031 51.1118C229.81 51.1118 230.479 51.1322 230.774 51.1612L230.74 51.1949C230.75 51.0867 230.762 51.0278 230.774 51.0278C230.786 51.0278 230.797 51.0867 230.807 51.1949C230.809 51.2114 230.797 51.2264 230.78 51.228L230.774 51.2286C230.479 51.2576 229.81 51.2776 229.031 51.2776C227.977 51.2776 227.122 51.2407 227.122 51.1949Z" fill="#C95415"/>
<path d="M219.486 51.1949C219.486 51.149 220.341 51.1118 221.396 51.1118C222.45 51.1118 223.305 51.149 223.305 51.1949C223.305 51.2407 222.45 51.2776 221.396 51.2776C220.341 51.2776 219.486 51.2407 219.486 51.1949Z" fill="#CD329F"/>
<path d="M148.944 103.142L149.644 114.495C149.669 114.9 150.005 115.215 150.41 115.215H170.848C171.272 115.215 171.616 114.872 171.616 114.448V105.607C171.616 105.182 171.269 104.837 170.844 104.84L158.274 104.921C158.071 104.922 157.875 104.843 157.731 104.701L155.546 102.549C155.403 102.407 155.21 102.328 155.008 102.328H149.709C149.267 102.328 148.917 102.701 148.944 103.142Z" fill="#A5DBFF"/>
<path d="M171.614 116.842H149.282V103.498H171.614V116.842Z" fill="#0B132A"/>
<path d="M147.507 104.696L149.211 118.611C149.242 118.859 149.452 119.045 149.701 119.045H171.465C171.722 119.045 171.936 118.847 171.956 118.59L173.052 104.674C173.074 104.388 172.848 104.143 172.56 104.143H147.996C147.7 104.143 147.471 104.402 147.507 104.696Z" fill="#13D1FF"/>
<path d="M20.673 21.7849C22.5324 21.0047 23.8547 19.0872 23.8657 16.8278C23.8778 13.8679 21.6379 11.4583 18.8622 11.4454C16.0877 11.4324 13.8274 13.8216 13.8153 16.7815C13.8058 19.0619 15.1377 21.0022 17.0175 21.7849C9.28415 22.9499 9.63525 31.3547 9.63525 31.3547L27.922 31.439C27.922 31.439 28.339 22.9427 20.673 21.7849Z" fill="#65DC7F"/>
<path d="M169.23 7.67915C170.611 7.09983 171.593 5.67573 171.601 3.99767C171.61 1.79932 169.947 0.00954105 167.885 3.79624e-05C165.825 -0.00946073 164.146 1.76477 164.137 3.96312C164.13 5.65673 165.119 7.09782 166.515 7.67915C160.772 8.54438 161.032 14.7867 161.032 14.7867L174.613 14.8495C174.613 14.8495 174.923 8.53891 169.23 7.67915Z" fill="#FFC46B"/>
<path d="M69.1431 11.7382C70.0205 11.3702 70.6445 10.4654 70.6496 9.39911C70.6554 8.00248 69.5984 6.86544 68.2886 6.8594C66.9795 6.85336 65.913 7.98061 65.9072 9.37723C65.9029 10.4533 66.5314 11.369 67.4184 11.7382C63.7695 12.2879 63.9347 16.2536 63.9347 16.2536L72.5634 16.2933C72.5634 16.2933 72.7603 12.2844 69.1431 11.7382Z" fill="#FFC46B"/>
<path d="M132.679 133.717C133.811 133.242 134.616 132.074 134.623 130.698C134.63 128.896 133.266 127.428 131.576 127.42C129.887 127.413 128.511 128.868 128.503 130.67C128.497 132.059 129.308 133.24 130.453 133.717C125.744 134.426 125.958 139.544 125.958 139.544L137.093 139.595C137.093 139.595 137.347 134.421 132.679 133.717Z" fill="#FFC46B"/>
<path d="M218.997 145.06H191.999V118.939H218.997V145.06Z" fill="#DAF0FF"/>
<path d="M194.089 142.824L201.557 129.382L207.666 137.974L211.378 133.411L216.901 142.824H194.089Z" fill="#A5DBFF"/>
<path d="M210.276 126.766C210.276 127.839 209.407 128.709 208.333 128.709C207.26 128.709 206.391 127.839 206.391 126.766C206.391 125.693 207.26 124.823 208.333 124.823C209.407 124.823 210.276 125.693 210.276 126.766Z" fill="#A5DBFF"/>
<path d="M216.904 142.896C216.902 142.894 216.899 142.858 216.897 142.789C216.896 142.71 216.894 142.611 216.891 142.484C216.888 142.206 216.884 141.814 216.878 141.308C216.872 140.273 216.862 138.774 216.85 136.873C216.836 133.057 216.816 127.624 216.793 121.101L216.904 121.211C210.297 121.217 202.465 121.223 194.094 121.23C194.063 121.257 194.335 120.988 194.22 121.105V121.11V121.122V121.146V121.192V121.285V121.472V121.844V122.586C194.22 123.079 194.22 123.571 194.22 124.06C194.22 125.039 194.219 126.009 194.219 126.969C194.218 128.888 194.217 130.767 194.216 132.597C194.212 136.255 194.208 139.714 194.204 142.895L194.092 142.783C200.9 142.807 206.587 142.827 210.585 142.84C212.579 142.853 214.151 142.863 215.237 142.87C215.768 142.875 216.18 142.88 216.471 142.883C216.605 142.886 216.709 142.888 216.791 142.889C216.864 142.891 216.902 142.893 216.904 142.896C216.906 142.898 216.872 142.9 216.804 142.902C216.725 142.903 216.625 142.906 216.496 142.908C216.21 142.911 215.806 142.916 215.284 142.921C214.203 142.928 212.64 142.938 210.657 142.951C206.642 142.964 200.93 142.984 194.092 143.008L193.98 143.008V142.895C193.976 139.714 193.972 136.255 193.968 132.597C193.966 130.767 193.965 128.888 193.964 126.969C193.964 126.009 193.964 125.039 193.964 124.06C193.963 123.571 193.963 123.079 193.963 122.586V121.844L193.963 121.472V121.285V121.192V121.146V121.122V121.11V121.105C193.848 121.218 194.119 120.944 194.094 120.972C202.465 120.979 210.297 120.985 216.904 120.99L217.014 120.991L217.014 121.101C216.991 127.653 216.971 133.11 216.957 136.943C216.945 138.834 216.935 140.324 216.929 141.354C216.923 141.85 216.919 142.235 216.916 142.508C216.913 142.63 216.911 142.725 216.91 142.801C216.908 142.866 216.906 142.898 216.904 142.896Z" fill="#19A5FF"/>
<path d="M86.7612 134.139H75.2725V123.023H86.7612V134.139Z" fill="#65DC7F"/>
<path d="M76.1621 133.188L79.3404 127.468L81.9397 131.124L83.5194 129.183L85.8694 133.188H76.1621Z" fill="#65DC7F"/>
<path d="M83.0423 126.355C83.0423 126.812 82.6722 127.182 82.2155 127.182C81.7588 127.182 81.3887 126.812 81.3887 126.355C81.3887 125.898 81.7588 125.528 82.2155 125.528C82.6722 125.528 83.0423 125.898 83.0423 126.355Z" fill="#65DC7F"/>
<path d="M85.8619 133.219C85.8611 133.218 85.8599 133.202 85.8591 133.173C85.8585 133.14 85.8579 133.097 85.8568 133.043C85.8556 132.925 85.8536 132.758 85.8513 132.543C85.8484 132.102 85.8441 131.465 85.8389 130.655C85.8332 129.032 85.8248 126.72 85.8147 123.944L85.8619 123.991C83.0506 123.993 79.7177 123.996 76.1555 123.999C76.1423 124.01 76.2582 123.896 76.2093 123.946V123.948V123.953V123.963V123.983V124.023V124.102V124.26V124.576C76.2093 124.786 76.2093 124.995 76.2093 125.204C76.2093 125.62 76.209 126.033 76.2087 126.441C76.2082 127.258 76.2082 128.058 76.2076 128.836C76.2059 130.393 76.2041 131.865 76.2024 133.218L76.1546 133.171C79.0518 133.181 81.4718 133.189 83.1732 133.195C84.0215 133.2 84.6904 133.205 85.1528 133.207C85.3787 133.21 85.554 133.212 85.678 133.213C85.735 133.214 85.7793 133.215 85.8142 133.216C85.845 133.217 85.8611 133.218 85.8619 133.219C85.8628 133.22 85.8484 133.22 85.8193 133.221C85.7857 133.222 85.7431 133.223 85.6884 133.224C85.5667 133.225 85.3946 133.227 85.1727 133.229C84.7128 133.232 84.0475 133.237 83.2037 133.242C81.4948 133.248 79.0644 133.256 76.1546 133.266L76.1069 133.266V133.218C76.1051 131.865 76.1034 130.393 76.1017 128.836C76.1011 128.058 76.1008 127.258 76.1002 126.441C76.1002 126.033 76.1 125.62 76.1 125.204C76.1 124.995 76.1 124.786 76.1 124.576V124.26V124.102V124.023V123.983V123.963V123.953V123.948V123.946C76.0513 123.994 76.1661 123.877 76.1555 123.89C79.7177 123.892 83.0506 123.895 85.8619 123.897L85.9091 123.897L85.9088 123.944C85.8988 126.733 85.8907 129.054 85.885 130.685C85.8798 131.49 85.8755 132.124 85.8726 132.563C85.8703 132.774 85.8683 132.938 85.8671 133.054C85.866 133.106 85.8654 133.146 85.8645 133.178C85.8637 133.206 85.8628 133.22 85.8619 133.219Z" fill="#65DC7F"/>
<path d="M32.3744 131.599L33.022 142.091C33.045 142.465 33.3548 142.756 33.7294 142.756H52.6177C53.009 142.756 53.3263 142.438 53.3263 142.047V133.877C53.3263 133.484 53.0061 133.165 52.613 133.168L40.9971 133.243C40.8093 133.244 40.6288 133.171 40.4952 133.039L38.4762 131.05C38.3438 130.92 38.165 130.847 37.979 130.847H33.0818C32.6733 130.847 32.3494 131.191 32.3744 131.599Z" fill="#13D1FF"/>
<path d="M53.3262 144.26H32.6885V131.928H53.3262V144.26Z" fill="#999999"/>
<path d="M31.0484 133.035L32.6242 145.895C32.6522 146.124 32.8462 146.295 33.0766 146.295H53.1894C53.4272 146.295 53.6247 146.112 53.6435 145.875L54.6561 133.015C54.6768 132.75 54.4675 132.523 54.2018 132.523L31.5007 132.524C31.2272 132.524 31.015 132.763 31.0484 133.035Z" fill="#A5DBFF"/>
<path d="M124.5 67.6541C124.483 67.6539 124.461 67.4582 124.436 67.0889C124.428 66.9039 124.41 66.6762 124.36 66.4103C124.318 66.1436 124.281 65.8348 124.182 65.4983C124.032 64.8163 123.723 64.0093 123.234 63.1523C122.742 62.2987 122.029 61.4046 121.053 60.6394C120.08 59.8811 118.85 59.2286 117.422 58.9466C116.004 58.6735 114.398 58.6839 112.859 59.2312C112.085 59.481 111.335 59.8681 110.643 60.3619C110.286 60.5953 109.972 60.8909 109.643 61.1741C109.344 61.4898 109.031 61.7977 108.772 62.1577C107.675 63.5486 107.033 65.3527 106.969 67.2271C106.941 69.1029 107.495 70.9369 108.523 72.3799C108.765 72.752 109.063 73.0749 109.345 73.405C109.66 73.704 109.959 74.0145 110.305 74.2649C110.972 74.7918 111.703 75.2149 112.464 75.5021C113.975 76.1234 115.579 76.2115 117.008 76.0077C118.448 75.795 119.708 75.2031 120.717 74.4928C121.728 73.7756 122.484 72.9175 123.018 72.0889C123.547 71.2566 123.895 70.4655 124.077 69.7915C124.192 69.4603 124.245 69.1541 124.3 68.8896C124.363 68.6266 124.391 68.3998 124.408 68.2153C124.451 67.8478 124.483 67.6539 124.5 67.6541C124.516 67.6544 124.518 67.8496 124.506 68.224C124.505 68.4116 124.492 68.6433 124.443 68.9132C124.403 69.1846 124.364 69.5 124.261 69.8425C124.102 70.5389 123.773 71.362 123.249 72.2343C122.721 73.1028 121.958 74.009 120.92 74.7728C119.885 75.5294 118.577 76.1668 117.073 76.4077C115.58 76.6397 113.896 76.5628 112.3 75.9217C111.497 75.6247 110.724 75.1846 110.018 74.6332C109.653 74.3705 109.335 74.0459 109.002 73.7313C108.702 73.3857 108.388 73.0452 108.131 72.6538C107.04 71.1355 106.449 69.1958 106.481 67.2153C106.546 65.2362 107.231 63.3279 108.394 61.8648C108.669 61.4866 108.999 61.162 109.316 60.8313C109.664 60.5332 109.997 60.2247 110.374 59.98C111.107 59.4638 111.899 59.062 112.716 58.8044C114.341 58.2415 116.026 58.2459 117.506 58.55C118.997 58.8634 120.272 59.5636 121.269 60.3697C122.269 61.183 122.987 62.1252 123.472 63.0182C123.954 63.9149 124.243 64.7533 124.367 65.4566C124.453 65.8037 124.477 66.1205 124.504 66.3936C124.54 66.6659 124.542 66.8976 124.534 67.0852C124.528 67.4596 124.516 67.6544 124.5 67.6541ZM122.721 62.1005C122.741 62.1281 122.581 62.2671 122.271 62.4973C122.101 62.619 121.911 62.7555 121.699 62.908C121.586 62.9854 121.467 63.0735 121.335 63.1561C121.195 63.2292 121.049 63.3054 120.897 63.3848C119.708 64.0721 117.823 64.774 115.671 64.7009C115.404 64.6891 115.14 64.6773 114.88 64.6658C114.623 64.6255 114.37 64.5858 114.121 64.5469C113.997 64.5259 113.873 64.5095 113.752 64.485C113.633 64.4534 113.514 64.4217 113.397 64.3907C113.164 64.3259 112.934 64.2712 112.714 64.2007C111.842 63.8974 111.088 63.5437 110.497 63.1791C109.306 62.4587 108.726 61.8035 108.771 61.7614C108.819 61.7065 109.466 62.255 110.666 62.8781C111.263 63.1946 112.004 63.5025 112.849 63.7711C113.061 63.8329 113.284 63.8798 113.508 63.9374C113.621 63.9653 113.734 63.9932 113.849 64.0217C113.966 64.0393 114.083 64.0574 114.202 64.0752C114.44 64.1104 114.682 64.1457 114.928 64.182C115.176 64.1921 115.427 64.2019 115.682 64.2122C117.728 64.2827 119.54 63.6697 120.742 63.076C120.896 63.0093 121.044 62.9454 121.185 62.8838C121.32 62.8133 121.443 62.7376 121.56 62.6726C121.786 62.5485 121.987 62.4375 122.167 62.3382C122.504 62.1597 122.702 62.0731 122.721 62.1005ZM108.5 72.9085C108.481 72.8809 108.641 72.7416 108.95 72.5114C109.12 72.3897 109.31 72.2532 109.522 72.1007C109.636 72.023 109.754 71.9352 109.886 71.8527C110.026 71.7796 110.172 71.7033 110.324 71.6239C111.513 70.9366 113.398 70.2347 115.55 70.3078C115.817 70.3196 116.081 70.3314 116.341 70.3429C116.598 70.3832 116.851 70.4229 117.101 70.4618C117.225 70.4828 117.349 70.4992 117.47 70.5237C117.589 70.5553 117.707 70.587 117.824 70.618C118.057 70.6828 118.288 70.7375 118.507 70.808C119.38 71.1113 120.133 71.465 120.725 71.8296C121.916 72.55 122.496 73.2052 122.451 73.2473C122.402 73.3022 121.755 72.754 120.555 72.1309C119.959 71.8144 119.217 71.5064 118.372 71.2377C118.16 71.1761 117.937 71.1292 117.713 71.0716C117.6 71.0437 117.487 71.0155 117.373 70.987C117.256 70.9694 117.138 70.9516 117.019 70.9338C116.781 70.8986 116.539 70.863 116.294 70.827C116.046 70.8169 115.794 70.8068 115.54 70.7965C113.494 70.726 111.681 71.3392 110.479 71.9329C110.325 71.9997 110.178 72.0639 110.036 72.1252C109.901 72.1957 109.779 72.2711 109.661 72.3361C109.436 72.4602 109.235 72.5713 109.054 72.6705C108.717 72.849 108.52 72.9359 108.5 72.9085ZM124.495 67.8605C124.491 67.9955 120.509 68.0081 115.602 67.889C110.692 67.7698 106.717 67.5638 106.72 67.4288C106.723 67.2938 110.704 67.2815 115.614 67.4006C120.521 67.5197 124.498 67.7255 124.495 67.8605ZM115.197 76.3174C115.062 76.3142 115.05 72.3335 115.169 67.4277C115.288 62.52 115.494 58.5454 115.629 58.5486C115.764 58.5518 115.777 62.5318 115.658 67.4395C115.538 72.3453 115.332 76.3205 115.197 76.3174ZM115.198 76.3041C115.164 76.3559 114.185 75.692 113.055 74.1886C112.496 73.4378 111.909 72.4717 111.466 71.3038C111.025 70.1383 110.748 68.7661 110.778 67.3209C110.804 65.871 111.168 64.5144 111.676 63.3782C112.183 62.2374 112.819 61.3059 113.411 60.5824C114.609 59.136 115.596 58.4948 115.629 58.5463C115.677 58.6018 114.783 59.3294 113.684 60.7953C113.14 61.5283 112.554 62.4513 112.089 63.5572C111.623 64.6597 111.291 65.9525 111.267 67.3301C111.238 68.7089 111.488 70.0206 111.889 71.149C112.292 72.2794 112.828 73.232 113.337 73.9886C114.365 75.5038 115.247 76.2503 115.198 76.3041ZM115.828 58.5509C115.862 58.4994 116.841 59.1633 117.971 60.6667C118.53 61.4175 119.116 62.3833 119.56 63.5512C120.001 64.7167 120.277 66.0889 120.248 67.5341C120.222 68.984 119.858 70.3406 119.35 71.4768C118.843 72.6176 118.206 73.5491 117.614 74.2726C116.417 75.7193 115.43 76.3605 115.397 76.309C115.349 76.2535 116.243 75.5257 117.342 74.0597C117.885 73.3267 118.472 72.404 118.937 71.2981C119.402 70.1956 119.734 68.9026 119.759 67.5249C119.787 66.1461 119.538 64.8344 119.137 63.706C118.734 62.5756 118.198 61.6233 117.689 60.8667C116.66 59.3515 115.778 58.6047 115.828 58.5509Z" fill="#CD329F"/>
<path d="M230.881 93.4596H127.833V18.123H230.881V93.4596Z" fill="#FAEBF5"/>
<path d="M230.884 93.4592C230.883 92.6658 230.846 63.7728 230.788 18.1226L230.884 18.2186C201.967 18.225 166.328 18.2322 127.845 18.2404H127.836L127.954 18.1226C127.95 45.1522 127.946 70.7756 127.943 93.4587L127.836 93.3523C188.802 93.4157 229.938 93.4583 230.884 93.4592ZM230.884 93.4592C229.939 93.4601 188.802 93.5022 127.836 93.5656L127.729 93.566V93.4587C127.726 70.7756 127.722 45.1522 127.718 18.1226V18.0049H127.836H127.845C166.328 18.013 201.967 18.0203 230.884 18.0266H230.98L230.98 18.1226C230.921 63.7728 230.884 92.6667 230.884 93.4592Z" stroke="#8A949A" stroke-width="1.85"/>
<path d="M231.231 29.0865C231.231 29.1517 208.212 29.2042 179.823 29.2042C151.424 29.2042 128.409 29.1517 128.409 29.0865C128.409 29.0213 151.424 28.9688 179.823 28.9688C208.212 28.9688 231.231 29.0213 231.231 29.0865Z" stroke="#CBCFD0" stroke-width="1.85"/>
<path d="M134.443 23.3713C134.443 24.2281 133.749 24.9232 132.892 24.9232C132.035 24.9232 131.34 24.2281 131.34 23.3713C131.34 22.5145 132.035 21.8198 132.892 21.8198C133.749 21.8198 134.443 22.5145 134.443 23.3713Z" fill="#E57D63"/>
<path d="M139.116 23.3713C139.116 24.2281 138.421 24.9232 137.565 24.9232C136.708 24.9232 136.013 24.2281 136.013 23.3713C136.013 22.5145 136.708 21.8198 137.565 21.8198C138.421 21.8198 139.116 22.5145 139.116 23.3713Z" fill="#7EBBD8"/>
<path d="M143.791 23.3713C143.791 24.2281 143.097 24.9232 142.24 24.9232C141.383 24.9232 140.688 24.2281 140.688 23.3713C140.688 22.5145 141.383 21.8198 142.24 21.8198C143.097 21.8198 143.791 22.5145 143.791 23.3713Z" fill="#BCD2B8"/>
<path d="M134.538 47.9609L135.187 47.5474C136.381 46.7883 137.964 47.1994 138.644 48.4387C139.691 50.3433 140.988 53.0028 140.988 53.0028C140.988 53.0028 142.947 54.7334 141.581 56.5648C140.302 58.2798 138.244 57.3499 138.244 57.3499L137.323 57.3772C136.324 58.014 133.99 56.7276 132.41 55.77C130.83 54.8124 131.608 53.8464 131.608 53.8464C130.618 52.4825 131.983 51.92 131.983 51.92C131.143 50.6792 132.384 49.8386 132.384 49.8386" fill="#FFBE9D"/>
<path d="M118.642 65.8248L138.495 62.0185L133.165 34.2188L113.312 38.0255L118.642 65.8248Z" fill="white"/>
<path d="M118.642 65.8248C118.64 65.827 118.63 65.7854 118.611 65.7007C118.592 65.6069 118.566 65.4811 118.532 65.3189C118.462 64.9698 118.361 64.4681 118.231 63.8196C117.97 62.4919 117.591 60.5659 117.112 58.1324C116.157 53.2218 114.805 46.2662 113.206 38.0454L113.186 37.9403L113.291 37.9199C119.289 36.7669 126.033 35.4697 133.141 34.1032L133.143 34.1028L133.259 34.0806L133.281 34.1965C135.268 44.6064 137.106 54.2342 138.589 62.0003L138.607 62.0945L138.513 62.1122C132.475 63.249 127.501 64.185 124.026 64.8388C122.308 65.1578 120.961 65.4075 120.033 65.5796C119.584 65.6612 119.237 65.7237 118.992 65.7681C118.758 65.8093 118.642 65.8248 118.642 65.8248C118.642 65.8248 118.769 65.7935 119.008 65.7441C119.255 65.6943 119.608 65.6227 120.063 65.5307C120.993 65.3468 122.344 65.079 124.068 64.7379C127.524 64.0632 132.471 63.0973 138.477 61.9243L138.401 62.0361C136.906 54.2722 135.053 44.6476 133.049 34.2409L133.187 34.3346L133.185 34.3351C126.076 35.6943 119.331 36.9838 113.332 38.1305L113.417 38.0051C114.967 46.206 116.279 53.1448 117.205 58.0432C117.661 60.4912 118.023 62.4289 118.273 63.7648C118.394 64.4241 118.487 64.9345 118.552 65.29C118.582 65.4584 118.604 65.5888 118.621 65.6862C118.636 65.7759 118.644 65.8225 118.642 65.8248Z" fill="#7B1E5F"/>
<path d="M116.627 44.3935C116.615 44.3297 119.892 43.6478 123.946 42.8703C128.002 42.0929 131.298 41.5143 131.311 41.5781C131.323 41.642 128.047 42.3243 123.991 43.1017C119.937 43.8792 116.639 44.4574 116.627 44.3935Z" fill="#7B1E5F"/>
<path d="M117.005 46.3564C116.993 46.2926 120.27 45.6103 124.324 44.8328C128.38 44.0553 131.676 43.4772 131.688 43.541C131.701 43.6049 128.424 44.2872 124.368 45.0646C120.314 45.8421 117.017 46.4203 117.005 46.3564Z" fill="#7B1E5F"/>
<path d="M117.382 48.3193C117.37 48.2554 120.647 47.5736 124.701 46.7961C128.757 46.0186 132.054 45.44 132.066 45.5039C132.078 45.5677 128.801 46.25 124.746 47.0275C120.691 47.805 117.394 48.3831 117.382 48.3193Z" fill="#7B1E5F"/>
<path d="M117.756 50.2827C117.744 50.2188 121.021 49.5365 125.075 48.759C129.131 47.9816 132.427 47.4034 132.439 47.4673C132.452 47.5311 129.175 48.2134 125.12 48.9909C121.066 49.7684 117.768 50.3465 117.756 50.2827Z" fill="#7B1E5F"/>
<path d="M118.133 52.2456C118.121 52.1817 121.398 51.4994 125.452 50.7219C129.508 49.9445 132.804 49.3663 132.816 49.4302C132.829 49.494 129.552 50.1763 125.497 50.9538C121.442 51.7313 118.145 52.3094 118.133 52.2456Z" fill="#7B1E5F"/>
<path d="M118.509 54.2085C118.497 54.1446 121.774 53.4623 125.828 52.6848C129.884 51.9073 133.181 51.3292 133.193 51.3931C133.205 51.4569 129.928 52.1392 125.873 52.9167C121.818 53.6942 118.521 54.2723 118.509 54.2085Z" fill="#7B1E5F"/>
<path d="M118.885 56.1718C118.873 56.108 122.15 55.4257 126.204 54.6482C130.26 53.8707 133.557 53.2926 133.569 53.3564C133.581 53.4203 130.304 54.1026 126.249 54.8801C122.194 55.6575 118.897 56.2357 118.885 56.1718Z" fill="#7B1E5F"/>
<path d="M119.262 58.1347C119.25 58.0709 122.527 57.3886 126.581 56.6111C130.637 55.8336 133.933 55.2555 133.945 55.3193C133.958 55.3832 130.681 56.0655 126.626 56.843C122.571 57.6204 119.274 58.1986 119.262 58.1347Z" fill="#7B1E5F"/>
<path d="M119.64 60.0976C119.628 60.0338 122.904 59.3515 126.959 58.574C131.014 57.7965 134.311 57.2184 134.323 57.2822C134.335 57.3461 131.059 58.0284 127.004 58.8058C122.949 59.5833 119.652 60.1615 119.64 60.0976Z" fill="#7B1E5F"/>
<path d="M130.433 35.7686C130.449 35.7654 130.499 35.9416 130.575 36.2631C130.656 36.6349 130.756 37.0909 130.875 37.6284C130.905 37.7742 130.937 37.9255 130.969 38.0821C131.003 38.2542 130.997 38.4431 130.94 38.6251C130.832 38.9888 130.497 39.3171 130.066 39.3864C129.64 39.4675 129.146 39.2588 128.91 38.8418C128.852 38.739 128.808 38.6262 128.784 38.5085C128.763 38.4021 128.742 38.2947 128.721 38.187C128.679 37.9719 128.637 37.7536 128.595 37.5326C128.511 37.0907 128.429 36.6596 128.349 36.2416C128.31 36.0333 128.272 35.8281 128.234 35.6271C128.198 35.4333 128.151 35.2168 128.172 35.0049C128.204 34.5828 128.421 34.2106 128.71 33.9787C129 33.7423 129.353 33.6476 129.664 33.6534C130.307 33.6733 130.712 34.0844 130.865 34.3752C130.948 34.5241 130.983 34.6536 130.998 34.7401C131.013 34.828 131.014 34.8733 131.006 34.8751C130.983 34.8819 130.962 34.6912 130.786 34.4227C130.62 34.1632 130.231 33.8159 129.662 33.8201C129.387 33.8255 129.081 33.9184 128.835 34.129C128.589 34.3364 128.41 34.6607 128.389 35.0203C128.374 35.1996 128.415 35.3785 128.456 35.5845C128.495 35.7851 128.536 35.9902 128.576 36.1981C128.657 36.6156 128.74 37.0467 128.826 37.4882C128.868 37.7092 128.91 37.9275 128.951 38.143C128.971 38.2504 128.992 38.3563 129.012 38.4618C129.03 38.556 129.066 38.6448 129.111 38.7267C129.295 39.0587 129.687 39.2325 130.031 39.1722C130.379 39.1219 130.657 38.862 130.755 38.5645C130.804 38.4159 130.814 38.2606 130.79 38.1157C130.763 37.9585 130.736 37.8068 130.711 37.6601C130.621 37.1172 130.546 36.6562 130.485 36.2803C130.436 35.9538 130.417 35.7718 130.433 35.7686Z" fill="#7B1E5F"/>
<path d="M136.341 47.1718C136.192 47.1867 130.31 48.0998 130.31 48.0998C130.206 48.641 130.524 49.408 131.909 49.4301C133.222 49.4508 134.408 49.3411 134.408 49.3411C134.408 49.3411 135.864 52.3759 137.295 52.7127C138.725 53.0495 138.022 49.7986 138.022 49.7986L136.341 47.1718Z" fill="#FFBE9D"/>
<path d="M153.954 61.5528L141.646 51.9587L139.626 55.1594L137.814 58.0303C137.814 58.0303 144.981 66.3191 147.637 69.1348C150.292 71.9505 152.063 73.4535 154.155 73.1841C156.247 72.9147 158.231 69.0107 157.524 66.6583C156.457 63.11 153.954 61.5528 153.954 61.5528Z" fill="#DC70BC"/>
<path d="M174.143 48.3251L153.954 61.5524C153.954 61.5524 149.49 63.6792 149.554 68.439C149.582 70.5253 152.066 73.4538 154.158 73.1837C156.25 72.9136 173.734 66.1109 173.734 66.1109C173.734 66.1109 180.045 64.3088 181.721 56.4102C183.01 50.3364 176.375 47.5704 176.375 47.5704L175.264 47.8395C174.865 47.9362 174.486 48.1003 174.143 48.3251Z" fill="#DC70BC"/>
<path d="M203.746 27.9999C204.255 26.8116 204.773 25.587 204.821 24.2891C204.868 22.9913 204.336 21.5857 203.216 20.9967C202.18 20.4525 200.908 20.7076 199.809 20.3169C198.453 19.8348 197.597 18.4678 196.995 17.1252C196.393 15.7825 197.229 15.2925 196.212 14.2501C194.863 12.8673 193.986 12.6682 192.278 13.5138C191.048 12.6432 186.78 11.0669 185.549 11.029C183.723 10.9731 181.643 11.1187 180.369 12.428C179.379 13.4439 178.752 14.7355 177.537 15.4674C175.867 16.4739 173.737 15.6182 171.788 15.69C171.391 15.7046 170.928 15.8061 170.764 16.1684C170.622 16.4817 170.773 16.8431 170.921 17.1533C171.423 18.2011 171.926 19.2485 172.427 20.2963C171.61 20.6754 170.617 20.6516 169.819 20.2332C169.907 22.2855 170.743 24.2974 172.135 25.8075C171.789 25.5625 171.269 25.8153 171.097 26.2025C170.925 26.5897 171.004 27.0394 171.115 27.4483C171.793 29.9579 173.6 32.1395 175.94 33.2736C178.28 34.4077 181.112 34.4743 183.502 33.4524L194.244 34.2603C194.541 35.0981 195.257 35.7636 196.096 35.9809C197.299 35.0905 197.491 34.5905 197.491 34.5905C198.232 35.1411 197.65 34.8635 198.232 35.1411C199.563 35.7762 201.533 35.022 201.833 33.5385C201.958 32.918 202.131 32.323 202.547 31.9009C202.973 31.4688 203.58 31.3025 204.116 31.0321C204.961 30.6063 205.664 29.8858 206.083 29.0167C205.213 29.025 204.347 28.6478 203.746 27.9999Z" fill="#38262B"/>
<path d="M196.149 23.3973L196.427 45.5695C196.474 49.3399 195.774 54.8888 189.809 54.6916C184.646 54.1303 183.276 49.2433 183.236 45.7247C183.216 44.0555 183.197 42.6634 183.184 42.4923C183.184 42.4923 177.533 42.0324 177.055 36.4507C176.824 33.7536 176.801 28.1591 176.839 23.0981C176.879 17.6625 181.094 13.1716 186.515 12.7751L187.054 12.7357C192.891 12.6498 196.225 17.5601 196.149 23.3973Z" fill="#FFBE9D"/>
<path d="M183.186 42.4909C183.186 42.4909 186.723 42.4402 190.302 39.8087C190.302 39.8087 188.827 44.019 183.215 43.9237L183.186 42.4909Z" fill="#EB996E"/>
<path d="M184.035 31.8878C184.035 31.8389 183.494 31.7855 182.622 31.7381C182.401 31.7313 182.191 31.7028 182.143 31.5561C182.079 31.4017 182.154 31.1585 182.241 30.8958C182.409 30.3501 182.584 29.7782 182.768 29.179C183.494 26.7363 184.003 24.7346 183.904 24.7061C183.805 24.6776 183.137 26.6344 182.41 29.0772C182.236 29.679 182.07 30.2528 181.912 30.8017C181.847 31.0571 181.725 31.3501 181.861 31.6707C181.932 31.8301 182.102 31.9369 182.245 31.9645C182.389 31.9971 182.513 31.9903 182.621 31.9889C183.495 31.9721 184.035 31.9367 184.035 31.8878Z" fill="#38262B"/>
<path d="M186.775 21.8666C186.865 22.074 187.614 21.9177 188.511 21.9638C189.408 21.9908 190.144 22.2077 190.248 22.0079C190.293 21.9128 190.154 21.7213 189.85 21.5361C189.547 21.3514 189.075 21.1893 188.537 21.1672C187.999 21.146 187.517 21.2697 187.204 21.4291C186.887 21.589 186.735 21.7679 186.775 21.8666Z" fill="#38262B"/>
<path d="M177.89 23.6009C177.988 23.7698 178.717 23.5818 179.602 23.5545C180.486 23.5109 181.22 23.6403 181.314 23.4637C181.354 23.3795 181.209 23.2278 180.901 23.0933C180.595 22.9589 180.123 22.8566 179.592 22.8775C179.062 22.8993 178.594 23.0393 178.292 23.1978C177.988 23.3563 177.846 23.5203 177.89 23.6009Z" fill="#38262B"/>
<path d="M177.851 25.736C177.962 25.8488 178.606 25.3297 179.541 25.3047C180.475 25.2656 181.175 25.7383 181.273 25.6178C181.322 25.5644 181.206 25.3579 180.901 25.1438C180.601 24.9305 180.093 24.7295 179.511 24.7495C178.929 24.7704 178.445 25.0041 178.169 25.2378C177.888 25.4725 177.797 25.6858 177.851 25.736ZM186.376 25.3826C186.487 25.4954 187.132 24.9763 188.067 24.9513C189 24.9123 189.7 25.385 189.798 25.2645C189.847 25.211 189.731 25.005 189.427 24.7909C189.126 24.5776 188.619 24.3766 188.036 24.3966C187.454 24.4175 186.97 24.6512 186.695 24.8849C186.413 25.1195 186.322 25.3324 186.376 25.3826Z" fill="#38262B"/>
<path d="M178.38 27.5892C178.395 27.9886 178.745 28.3056 179.163 28.2974C179.58 28.2892 179.906 27.9595 179.891 27.5601C179.876 27.1607 179.525 26.8437 179.108 26.8515C178.691 26.8597 178.365 27.1898 178.38 27.5892ZM186.208 27.4615C186.223 27.8609 186.574 28.1778 186.991 28.1696C187.408 28.1614 187.734 27.8317 187.719 27.4323C187.704 27.0329 187.353 26.7159 186.936 26.7237C186.519 26.7319 186.193 27.0621 186.208 27.4615Z" fill="#38262B"/>
<path d="M184.938 34.5383C184.897 34.4414 185.647 34.2171 186.174 33.5133C186.437 33.1669 186.589 32.7892 186.703 32.5134C186.815 32.2353 186.9 32.061 186.941 32.0736C186.98 32.0859 186.971 32.2738 186.909 32.5763C186.845 32.8752 186.715 33.3027 186.416 33.6963C186.123 34.0939 185.728 34.3312 185.438 34.4454C185.146 34.5641 184.948 34.5709 184.938 34.5383Z" fill="#38262B"/>
<path d="M195.991 27.5654C196.084 27.5173 199.747 26.1488 199.904 29.9772C200.061 33.8055 196.186 33.1738 196.175 33.0642C196.164 32.9547 195.991 27.5654 195.991 27.5654Z" fill="#FFBE9D"/>
<path d="M197.284 31.5662C197.3 31.5531 197.353 31.6101 197.468 31.6572C197.579 31.703 197.77 31.7297 197.967 31.6468C198.365 31.4814 198.679 30.8257 198.669 30.1351C198.665 29.7864 198.578 29.4572 198.443 29.1877C198.314 28.9124 198.126 28.7241 197.92 28.6965C197.716 28.658 197.577 28.7857 197.534 28.8953C197.487 29.0044 197.515 29.0796 197.495 29.0873C197.484 29.0973 197.41 29.0266 197.435 28.8672C197.447 28.7907 197.488 28.6988 197.575 28.6213C197.664 28.543 197.797 28.499 197.94 28.5085C198.236 28.5166 198.513 28.7774 198.661 29.0736C198.825 29.3702 198.931 29.7392 198.936 30.131C198.943 30.9035 198.578 31.6417 198.031 31.8243C197.765 31.9058 197.537 31.8338 197.417 31.7483C197.295 31.6586 197.271 31.5735 197.284 31.5662Z" fill="#EB996E"/>
<path d="M201.081 21.3665C200.283 20.0162 200.097 18.4055 199.661 16.8989C199.224 15.3923 198.385 13.8319 196.908 13.3055L196.875 13.3204C195.548 12.7871 193.913 12.7796 192.824 13.7004C192.554 11.7106 190.809 10.1354 188.867 9.62617C186.925 9.11696 183.81 9.42075 181.948 10.1709C180.508 10.7507 179.116 11.9387 177.424 13.6833C176.711 14.4183 176.054 15.2091 175.471 16.0506L173.783 21.2657C173.601 21.3994 173.441 21.5615 173.308 21.7431C172.637 22.6588 173.892 23.8071 174.743 23.0557C174.748 23.0512 174.753 23.0471 174.758 23.0426C174.932 23.3383 175.063 23.6376 175.2 23.9365L175.2 23.9437L175.23 23.9999C175.316 24.186 175.406 24.3721 175.514 24.5564L175.515 24.5437L176.821 30.3065C176.903 28.7346 176.788 23.2683 176.87 21.6965C179.295 21.5916 181.49 20.6122 183.116 18.8106C183.974 17.86 184.649 16.6689 185.797 16.1004C187.277 15.368 189.041 15.9003 190.601 16.4422L190.535 16.3824C191.347 16.7578 192.086 17.2911 192.698 17.9431C192.347 21.037 192.67 24.2056 193.642 27.1639C193.789 27.6095 194.188 28.5273 194.625 28.6967C195.485 29.0289 195.716 28.1536 196.234 27.6884C196.615 27.346 197.18 27.3016 197.797 27.3033C198.16 26.3487 198.534 24.7392 198.848 23.3304C199.367 23.4879 199.92 23.5308 200.455 23.4375C200.29 23.0431 200.125 22.6487 199.961 22.2542C200.175 22.3896 200.397 22.5286 200.648 22.5653C200.899 22.6019 201.187 22.5086 201.3 22.2813C201.446 21.9873 201.247 21.6491 201.081 21.3665Z" fill="#38262B"/>
<path d="M191.066 14.3423C191.054 14.3568 191.3 14.4899 191.626 14.8544C191.949 15.2171 192.312 15.8483 192.483 16.7078C192.571 17.1348 192.626 17.613 192.626 18.127C192.628 18.641 192.587 19.1921 192.548 19.7722C192.51 20.3523 192.469 20.9655 192.506 21.6031C192.524 21.9214 192.563 22.2452 192.632 22.569C192.702 22.8869 192.786 23.2324 193.026 23.5059C193.217 23.7286 193.537 23.8273 193.814 23.7707C194.093 23.7213 194.341 23.5723 194.523 23.3698C194.883 22.9504 194.972 22.4188 195.061 21.9501L194.944 21.9641C195.136 22.3853 195.332 22.8018 195.623 23.1342C195.91 23.4684 196.306 23.6893 196.709 23.7255C196.91 23.7436 197.112 23.7109 197.285 23.6244C197.461 23.5388 197.589 23.3925 197.676 23.239C197.76 23.0823 197.803 22.9102 197.795 22.744C197.785 22.5783 197.72 22.4212 197.615 22.3098L197.556 22.3628C197.987 22.8531 198.442 23.1166 198.756 23.2624C198.914 23.3353 199.042 23.3792 199.128 23.4068C199.214 23.4326 199.26 23.4435 199.261 23.4399C199.262 23.4363 199.219 23.4181 199.135 23.386C199.052 23.3521 198.928 23.3027 198.774 23.2244C198.469 23.0682 198.029 22.7979 197.616 22.3111L197.557 22.3641C197.745 22.5629 197.756 22.9125 197.594 23.1937C197.513 23.3323 197.396 23.4623 197.241 23.5348C197.087 23.6104 196.902 23.6381 196.719 23.6195C196.348 23.5829 195.979 23.3755 195.711 23.0577C195.436 22.7402 195.246 22.3354 195.056 21.9134L194.976 21.7341L194.939 21.9274C194.85 22.3953 194.754 22.9056 194.427 23.2838C194.264 23.4654 194.037 23.5995 193.793 23.6421C193.548 23.6892 193.29 23.6091 193.123 23.418C192.913 23.1812 192.827 22.8542 192.759 22.5413C192.691 22.2257 192.653 21.9083 192.634 21.5953C192.595 20.9682 192.633 20.3595 192.668 19.7799C192.703 19.1998 192.741 18.6464 192.734 18.1256C192.73 17.6048 192.668 17.1212 192.573 16.6883C192.387 15.818 192.004 15.1786 191.664 14.8204C191.32 14.46 191.066 14.3423 191.066 14.3423Z" fill="#DC70BC"/>
<path d="M173.793 19.7766C173.792 19.7784 173.807 19.7915 173.838 19.8151C173.876 19.8427 173.921 19.8758 173.977 19.9165C174.039 19.9622 174.116 20.0157 174.214 20.0682C174.31 20.1234 174.42 20.1909 174.554 20.247C175.072 20.4933 175.904 20.7377 176.944 20.6765C177.973 20.6184 179.209 20.2532 180.313 19.4316C181.428 18.6295 182.407 17.4479 183.208 16.0947C183.614 15.4185 183.944 14.7252 184.309 14.0853C184.672 13.4449 185.072 12.853 185.557 12.3856C186.036 11.9155 186.592 11.5681 187.166 11.4086C187.451 11.3234 187.739 11.3048 188.014 11.3111C188.29 11.3256 188.55 11.3813 188.791 11.46C189.272 11.6216 189.661 11.8874 189.955 12.1609C190.251 12.4366 190.449 12.7282 190.585 12.9782C190.839 13.4912 190.853 13.8205 190.874 13.815C190.876 13.8146 190.875 13.7951 190.869 13.7566C190.862 13.7104 190.853 13.6538 190.843 13.5854C190.815 13.436 190.751 13.2195 190.631 12.9551C190.499 12.697 190.303 12.3954 190.005 12.1079C189.709 11.8231 189.315 11.5446 188.821 11.3726C188.574 11.2884 188.305 11.2278 188.02 11.2101C187.735 11.2002 187.433 11.2188 187.137 11.3044C186.542 11.4653 185.966 11.8208 185.473 12.2991C184.974 12.7751 184.565 13.3775 184.198 14.0219C183.829 14.6668 183.498 15.3583 183.096 16.0281C182.301 17.3709 181.337 18.5399 180.243 19.3347C179.159 20.1491 177.952 20.5147 176.938 20.5845C175.915 20.6567 175.094 20.4299 174.575 20.2008C174.052 19.9677 173.803 19.7608 173.793 19.7766Z" fill="#DC70BC"/>
<path d="M173.285 17.323C173.281 17.3307 173.352 17.3801 173.486 17.4625C173.618 17.5476 173.82 17.6522 174.078 17.7635C174.336 17.8772 174.656 17.9831 175.018 18.0718C175.381 18.1542 175.788 18.2148 176.218 18.2311C176.649 18.2423 177.058 18.2079 177.426 18.149C177.793 18.0837 178.119 17.9981 178.383 17.9011C178.648 17.8065 178.857 17.715 178.994 17.6384C179.133 17.5646 179.207 17.5202 179.203 17.512C179.192 17.4899 178.883 17.6484 178.354 17.8133C178.09 17.8975 177.769 17.9723 177.408 18.0299C177.046 18.0811 176.644 18.1115 176.222 18.1002C175.801 18.0844 175.402 18.0288 175.044 17.9545C174.687 17.874 174.371 17.7789 174.113 17.678C173.596 17.4797 173.298 17.3017 173.285 17.323Z" fill="#DC70BC"/>
<path d="M196.683 43.8101C192.164 46.6494 187.61 47.7181 182.998 45.8791L176.065 47.6498L172.695 53.5087C172.165 54.4302 171.924 55.4894 172.003 56.5496L173.327 78.9768L169.244 93.2225L209.237 93.5698L207.267 82.9849L202.309 44.9549L196.683 43.8101Z" fill="#DC70BC"/>
<path d="M202.797 62.0201L201.546 44.8486C201.546 44.8486 210.96 45.7222 214.075 52.3632C216.7 57.9599 224.578 74.2293 225.354 76.533C227.63 83.2922 223.442 93.1543 208.785 92.6158L207.113 83.4267L202.797 62.0201Z" fill="#DC70BC"/>
<path d="M210.316 76.318C210.302 76.3234 210.388 76.5833 210.55 76.9941C210.711 77.4053 210.951 77.9654 211.227 78.579C211.496 79.1772 211.739 79.7179 211.934 80.1495C212.114 80.5516 212.226 80.8003 212.241 80.7944C212.255 80.7889 212.169 80.5294 212.007 80.1187C211.846 79.7075 211.606 79.1474 211.33 78.5333C211.061 77.9355 210.818 77.3944 210.623 76.9628C210.443 76.5607 210.331 76.3121 210.316 76.318Z" fill="#7B1E5F"/>
<path d="M205.106 62.8032C205.138 62.8032 205.163 61.715 205.163 60.3727C205.163 59.0301 205.138 57.9414 205.106 57.9414C205.075 57.9414 205.05 59.0301 205.05 60.3727C205.05 61.715 205.075 62.8032 205.106 62.8032Z" fill="#7B1E5F"/>
<path d="M206.491 55.4914C206.499 55.4927 206.529 55.3963 206.578 55.2201C206.624 55.0439 206.699 54.7908 206.801 54.482C207.004 53.8638 207.346 53.0279 207.848 52.1715C208.353 51.3161 208.918 50.6119 209.359 50.1342C209.58 49.8946 209.764 49.7062 209.896 49.5803C210.027 49.4526 210.096 49.3788 210.091 49.3729C210.086 49.3671 210.007 49.4295 209.867 49.5477C209.725 49.6646 209.531 49.8453 209.302 50.0794C208.842 50.5463 208.26 51.2504 207.751 52.1145C207.243 52.9794 206.91 53.8294 206.725 54.458C206.632 54.7722 206.568 55.0299 206.535 55.2101C206.499 55.3899 206.483 55.4895 206.491 55.4914Z" fill="#7B1E5F"/>
<path d="M173.28 54.4292C173.296 54.4287 173.314 54.628 173.333 54.9898C173.355 55.3516 173.361 55.876 173.351 56.5236C173.335 57.8192 173.201 59.6043 173.043 61.5683C172.886 63.5332 172.81 65.3134 172.844 66.6022C172.859 67.2461 172.882 67.7674 172.911 68.1269C172.935 68.4869 172.942 68.6875 172.925 68.6898C172.909 68.6921 172.872 68.4951 172.819 68.1364C172.762 67.7782 172.713 67.2552 172.677 66.6081C172.6 65.3125 172.65 63.5183 172.808 61.5502C172.966 59.5831 173.125 57.8074 173.184 56.5182C173.215 55.8738 173.236 55.3516 173.242 54.9907C173.251 54.6298 173.264 54.4297 173.28 54.4292Z" fill="#7B1E5F"/>
<path d="M216.314 79.475C216.322 79.4913 216.089 79.6132 215.67 79.8369C215.251 80.0592 214.651 80.3921 213.923 80.8277C213.194 81.2606 212.334 81.8 211.332 82.3185C210.831 82.5775 210.297 82.8352 209.734 83.0797C209.168 83.3138 208.583 83.5556 207.984 83.8038C207.799 83.8794 207.616 83.9541 207.445 84.0243L207.518 83.8971C207.902 86.328 208.235 88.5048 208.463 90.0757C208.568 90.8311 208.654 91.4556 208.721 91.9329C208.777 92.3708 208.8 92.6135 208.785 92.6158C208.769 92.618 208.716 92.3807 208.634 91.9469C208.548 91.4723 208.437 90.8519 208.303 90.1011C208.033 88.537 207.674 86.3642 207.285 83.9338L207.271 83.8418L207.357 83.8061C207.528 83.7359 207.71 83.6612 207.894 83.5855C208.493 83.3396 209.077 83.0996 209.643 82.8678C210.202 82.6282 210.733 82.3769 211.232 82.1251C212.232 81.622 213.097 81.0994 213.84 80.6832C214.58 80.2643 215.196 79.9523 215.63 79.7549C215.845 79.653 216.016 79.5833 216.132 79.5357C216.249 79.4886 216.311 79.4678 216.314 79.475Z" fill="#7B1E5F"/>
<path d="M218.447 76.5329C218.455 76.5741 217.973 76.6647 217.239 76.9377C216.507 77.2076 215.533 77.6985 214.611 78.4552C213.693 79.216 213.025 80.0787 212.621 80.7466C212.214 81.4146 212.033 81.8706 211.994 81.8552C211.979 81.8493 212.012 81.7311 212.086 81.521C212.156 81.3095 212.288 81.0143 212.477 80.6633C212.852 79.9605 213.517 79.0543 214.461 78.2732C215.407 77.4956 216.424 77.0147 217.185 76.7801C217.565 76.6615 217.88 76.5877 218.101 76.5592C218.322 76.5266 218.444 76.517 218.447 76.5329Z" fill="#7B1E5F"/>
<path d="M203.213 93.3865L213.035 69.6747C213.483 68.5927 212.921 67.7157 211.778 67.7159L209.801 67.7164C208.994 67.7165 208.444 67.272 208.392 66.5782L208.327 65.7065C208.274 65.0127 207.723 64.5686 206.916 64.5688L197.521 64.5708C196.789 64.571 195.962 64.937 195.346 65.5336L194.583 66.2728C193.968 66.8693 193.142 67.2354 192.41 67.2355L180.444 67.2381C179.302 67.2383 178.022 68.1158 177.587 69.1977L167.85 93.3941L203.213 93.3865Z" fill="#423F41"/>
<path d="M203.213 93.3865L213.035 69.6747C213.483 68.5927 212.921 67.7157 211.778 67.7159L209.801 67.7164C208.994 67.7165 208.444 67.272 208.392 66.5782L208.327 65.7065C208.274 65.0127 207.723 64.5686 206.916 64.5688L197.521 64.5708C196.789 64.571 195.962 64.937 195.346 65.5336L194.583 66.2728C193.968 66.8693 193.142 67.2354 192.41 67.2355L180.444 67.2381C179.302 67.2383 178.022 68.1158 177.587 69.1977L167.85 93.3941L203.213 93.3865Z" fill="#423F41"/>
<path d="M204.835 85.3336L208.538 71.0029C208.782 70.0596 208.164 69.1133 207.304 69.1134L178.253 69.1197C177.679 69.1198 177.174 69.5551 177.016 70.1868L171.626 91.7566C171.389 92.704 171.768 93.2718 172.629 93.2608L201.858 93.2636C202.424 93.2562 202.92 92.8264 203.079 92.2046L204.835 85.3336Z" fill="#BCD2B8"/>
<path d="M202.831 92.7379L204.405 70.1709C204.461 69.3707 203.827 68.6907 203.024 68.6908L172.924 68.6973L172.929 92.7443L202.831 92.7379Z" fill="#EBEBEB"/>
<path d="M203.166 93.2541L199.58 69.9907C199.415 69.2331 198.733 68.6917 197.943 68.6919L167.494 68.6984C166.291 68.6986 165.481 69.907 165.957 70.9915L172.537 92.2802L203.166 93.2541Z" fill="#FAFAFA"/>
<path d="M203.213 93.376L195.823 71.5888C195.515 70.6809 194.692 70.0743 193.769 70.0745L162.378 70.0812C161.366 70.0814 160.653 71.1173 160.976 72.1171L167.849 93.394L203.213 93.376Z" fill="#423F41"/>
<path d="M188.034 89.7312C188.034 89.7312 189.22 89.7852 189.766 89.8223C192.368 89.9992 195.011 89.5295 197.393 88.4675C198.132 88.1381 198.913 87.6734 199.136 86.8962C199.386 86.0258 198.822 85.1202 198.135 84.5303C197.448 83.9404 196.612 83.5212 196.015 82.8398C195.418 82.1584 195.135 81.0558 195.723 80.3669L195.886 80.486C196.311 81.5618 197.494 82.0805 198.473 82.6958C200.292 83.8384 201.679 85.6508 202.307 87.7048C202.652 88.8328 202.744 90.1487 202.06 91.1098C201.575 91.7914 200.781 92.1792 199.996 92.4706C197.622 93.3519 195.084 93.3855 192.551 93.3887C191.751 93.3898 189.295 93.3564 189.295 93.3564C188.522 93.1464 188.267 92.7448 187.803 92.0933C187.376 91.4951 187.469 90.2 188.034 89.7312Z" fill="#423F41"/>
<path d="M188.034 89.7311L196.221 88.4986L199.399 86.6688C199.818 86.4278 200.104 85.9967 200.13 85.5139C200.13 85.5049 200.13 85.4963 200.13 85.4872C200.155 84.8845 199.787 84.3357 199.231 84.1017C198.222 83.6771 196.625 83.1119 195.943 81.9188C194.964 80.2036 195.943 79.8474 195.943 79.8474L202.78 82.5789L207.621 85.8719L208.595 91.3642L201.843 93.5715C201.843 93.5715 194.318 93.997 192.242 93.7647C190.166 93.5323 190.165 92.5651 190.165 92.5651C189.78 92.4447 189 91.7602 189 91.1225C187.992 90.1772 188.034 89.7311 188.034 89.7311Z" fill="#FFBE9D"/>
<path d="M198.507 92.0928C198.504 92.0838 198.384 92.1073 198.17 92.1577C197.956 92.2098 197.644 92.2782 197.259 92.3553C196.488 92.5103 195.411 92.6713 194.213 92.7196C193.014 92.7656 191.929 92.6888 191.148 92.5948C190.758 92.5482 190.442 92.5044 190.225 92.4691C190.007 92.4356 189.886 92.4216 189.884 92.4311C189.882 92.4407 190 92.4728 190.215 92.5225C190.43 92.5741 190.744 92.6334 191.135 92.6926C191.916 92.8125 193.011 92.9046 194.219 92.8586C195.427 92.8099 196.51 92.6321 197.279 92.4517C197.664 92.362 197.974 92.2782 198.184 92.2097C198.395 92.1431 198.51 92.1019 198.507 92.0928Z" fill="#EB996E"/>
<path d="M197.757 90.8272C197.754 90.8181 197.633 90.8421 197.415 90.8929C197.197 90.9455 196.881 91.0144 196.489 91.0896C195.706 91.2424 194.611 91.3934 193.395 91.4322C192.177 91.4687 191.075 91.3874 190.283 91.2902C189.887 91.2423 189.566 91.1971 189.346 91.1613C189.125 91.1274 189.001 91.113 188.999 91.1225C188.997 91.132 189.117 91.1637 189.336 91.2143C189.554 91.2664 189.873 91.327 190.27 91.3876C191.063 91.5101 192.172 91.6077 193.399 91.5712C194.625 91.5325 195.727 91.3647 196.51 91.1861C196.901 91.0977 197.215 91.0138 197.429 90.945C197.643 90.8779 197.76 90.8362 197.757 90.8272Z" fill="#EB996E"/>
<path d="M107.863 121.695H2.40039V43.3691H107.863V121.695Z" fill="#FAEBF5"/>
<path d="M107.863 121.695C107.862 120.897 107.825 90.7845 107.766 43.3692L107.863 43.4656C78.1663 43.4715 41.7284 43.4788 2.40902 43.4869H2.40041L2.51816 43.3692C2.51408 71.505 2.51046 98.1623 2.50684 121.695L2.40041 121.588C64.8458 121.651 106.921 121.694 107.863 121.695ZM107.863 121.695C106.922 121.696 64.8458 121.738 2.40041 121.801L2.29354 121.802V121.695C2.28992 98.1623 2.2863 71.505 2.28223 43.3692V43.251H2.40041H2.40902C41.7284 43.2591 78.1663 43.2668 107.863 43.2727H107.959V43.3692C107.901 90.7845 107.864 120.898 107.863 121.695Z" stroke="#8A949A" stroke-width="1.85"/>
<path d="M107.684 54.3184C107.684 54.3836 84.3076 54.4362 55.4775 54.4362C26.6375 54.4362 3.26562 54.3836 3.26562 54.3184C3.26562 54.2532 26.6375 54.2007 55.4775 54.2007C84.3076 54.2007 107.684 54.2532 107.684 54.3184Z" stroke="#B0B8BB" stroke-width="1.85"/>
<path d="M9.29867 48.6027C9.29867 49.4595 8.60401 50.1546 7.74721 50.1546C6.89042 50.1546 6.19531 49.4595 6.19531 48.6027C6.19531 47.7459 6.89042 47.0513 7.74721 47.0513C8.60401 47.0513 9.29867 47.7459 9.29867 48.6027Z" fill="#CD329F"/>
<path d="M13.9735 48.6027C13.9735 49.4595 13.2788 50.1546 12.422 50.1546C11.5652 50.1546 10.8701 49.4595 10.8701 48.6027C10.8701 47.7459 11.5652 47.0513 12.422 47.0513C13.2788 47.0513 13.9735 47.7459 13.9735 48.6027Z" fill="#F7E905"/>
<path d="M18.6502 48.6027C18.6502 49.4595 17.9556 50.1546 17.0988 50.1546C16.242 50.1546 15.5469 49.4595 15.5469 48.6027C15.5469 47.7459 16.242 47.0513 17.0988 47.0513C17.9556 47.0513 18.6502 47.7459 18.6502 48.6027Z" fill="#E8B9DA"/>
<path d="M49.5612 112.207H24.6773C24.6773 112.207 21.0029 116.831 18.5811 121.648L54.0489 121.795C54.745 120.653 49.5612 112.207 49.5612 112.207Z" fill="#263238"/>
<path d="M53.4608 41.6236C53.1085 40.3482 52.417 39.0977 51.2747 38.4307C50.7327 38.114 50.1165 37.9439 49.5655 37.6435C48.9004 37.281 48.3517 36.7406 47.7292 36.3092C46.198 35.2477 44.2015 34.8856 42.3954 35.3419C40.5893 35.7982 39.0039 37.0652 38.1606 38.7264C36.8748 37.7455 35.3889 38.1666 33.8676 38.714C32.3463 39.2614 30.3287 41.0667 29.9622 42.6415L37.0997 44.8027C38.5274 46.3633 40.1142 47.8112 41.9737 48.8185C43.8332 49.8258 45.993 50.3709 48.0844 50.056C50.1758 49.7415 52.1705 48.491 53.1154 46.5989C53.8749 45.0776 53.9135 43.2626 53.4608 41.6236Z" fill="#263238"/>
<path d="M58.5168 65.2437C60.3309 63.9759 60.768 61.1267 59.4173 59.3738C59.0153 58.8519 58.4648 58.3799 58.3745 57.7273C58.3189 57.3261 58.4518 56.9271 58.5484 56.5337C59.1914 53.9178 58.1269 50.9644 55.9624 49.3606C55.9253 47.8969 55.1063 44.8042 53.2505 43.6211L44.8171 44.8033C45.1976 53.6847 45.1682 62.5836 44.7304 71.4619C44.6634 72.8227 44.6126 74.2876 45.3567 75.4291C46.4117 77.0479 48.6138 77.3847 50.5452 77.4347C52.3923 77.4829 54.2757 77.4043 56.0198 76.7936C57.764 76.1829 59.3693 74.9752 60.1003 73.2782C61.2261 70.6643 60.0665 67.6303 58.5168 65.2437Z" fill="#263238"/>
<path d="M32.8033 47.2702L32.5486 45.38L43.678 41.9109C47.1439 41.1378 51.3407 44.2186 51.9663 47.7139C52.6614 51.5973 53.3567 56.366 53.2279 59.3376C52.9691 65.3132 48.5561 66.576 48.5561 66.576L49.0068 70.1188C49.4625 73.7042 46.9259 76.9806 43.3405 77.4376C39.7638 77.8933 36.4924 75.3716 36.0231 71.7966L32.8033 47.2702Z" fill="#FFBE9D"/>
<path d="M48.555 66.5921C48.555 66.5921 44.4339 67.3102 40.2529 65.4077C40.2529 65.4077 42.7065 69.2899 48.7189 68.0557L48.555 66.5921Z" fill="#EB996E"/>
<path d="M46.5762 59.0742C46.2407 58.7227 45.706 58.5699 45.2055 58.6825C44.8586 58.7607 44.5226 58.9707 44.3422 59.2813C44.1614 59.5919 44.1631 60.0035 44.3885 60.254C44.6425 60.5362 45.1071 60.5545 45.4812 60.4007C45.8553 60.2464 46.1588 59.9539 46.4456 59.6642C46.5248 59.5841 46.6059 59.5003 46.6494 59.398C46.6929 59.2957 46.6903 59.1689 46.6138 59.0968" fill="#EB996E"/>
<path d="M44.3764 57.9165C44.5073 57.8934 44.6098 58.7725 45.4338 59.3103C46.2569 59.8504 47.183 59.6437 47.2038 59.766C47.2223 59.8194 47.0149 59.9607 46.6204 60.0167C46.2337 60.0745 45.6532 60.015 45.1488 59.686C44.6458 59.3557 44.3897 58.8679 44.3182 58.5106C44.2427 58.1469 44.3157 57.9183 44.3764 57.9165Z" fill="#263238"/>
<path d="M42.9124 48.215C42.858 48.4446 42.037 48.433 41.1 48.6564C40.1584 48.8612 39.4243 49.2273 39.2753 49.0443C39.2083 48.9564 39.318 48.7336 39.6034 48.4847C39.886 48.2366 40.353 47.9782 40.916 47.8493C41.4793 47.7214 42.0119 47.7523 42.3741 47.8535C42.7391 47.9541 42.9347 48.1063 42.9124 48.215ZM50.4447 48.0392C50.3233 48.2393 49.7432 48.1123 49.0712 48.1805C48.3969 48.2251 47.8466 48.4459 47.6936 48.2688C47.6257 48.1818 47.6941 47.9871 47.9224 47.7847C48.1471 47.5833 48.5398 47.3946 49.0026 47.3558C49.465 47.3175 49.8838 47.4381 50.1387 47.5999C50.3977 47.7616 50.4973 47.9423 50.4447 48.0392Z" fill="#263238"/>
<path d="M45.454 53.166C45.4273 53.1678 45.441 52.8693 45.3057 52.3644C45.1723 51.8694 44.8357 51.1442 44.09 50.5865C43.7206 50.3142 43.2569 50.0836 42.7235 49.9924C42.1937 49.9043 41.5978 49.9236 41.0312 50.1412C40.4646 50.3457 39.9242 50.7318 39.5405 51.2651C39.1459 51.7912 38.9237 52.4668 38.9167 53.1632C38.9228 53.8597 39.1449 54.535 39.5392 55.0618C39.9225 55.5958 40.4626 55.9828 41.0291 56.1876C41.5955 56.4057 42.1919 56.4253 42.7218 56.3377C43.2553 56.2468 43.719 56.0165 44.0887 55.744C44.8347 55.1868 45.1714 54.4619 45.3052 53.967C45.4408 53.4621 45.4273 53.1646 45.454 53.166C45.4621 53.166 45.4667 53.2389 45.4671 53.3793C45.4702 53.5192 45.4529 53.728 45.3944 53.9892C45.2842 54.5045 44.9606 55.2729 44.1896 55.8767C43.8078 56.1718 43.3218 56.4244 42.7575 56.5297C42.1973 56.6314 41.5624 56.6185 40.9547 56.3918C40.3475 56.1783 39.7662 55.7688 39.3525 55.1989C38.9275 54.6364 38.6864 53.9104 38.6808 53.1632C38.6874 52.4164 38.929 51.6901 39.3544 51.1283C39.7685 50.5588 40.3496 50.15 40.957 49.937C41.5648 49.7108 42.1997 49.6983 42.7598 49.8004C43.324 49.9061 43.8098 50.1585 44.1915 50.4539C44.962 51.0583 45.2851 51.8268 45.395 52.3422C45.4533 52.6035 45.4704 52.8123 45.4672 52.9522C45.4667 53.0926 45.4621 53.166 45.454 53.166ZM53.7883 51.6668C53.7615 51.6681 53.7752 51.3706 53.64 50.8656C53.5066 50.3706 53.1699 49.6455 52.4243 49.0878C52.0549 48.8155 51.5912 48.5848 51.0578 48.4936C50.528 48.4056 49.9316 48.4244 49.365 48.642C48.7984 48.8465 48.2585 49.2331 47.8747 49.7664C47.4801 50.2929 47.258 50.9676 47.251 51.6641C47.2571 52.3605 47.4783 53.0363 47.873 53.5631C48.2563 54.0966 48.7965 54.4836 49.3629 54.6884C49.9293 54.9065 50.5262 54.9261 51.056 54.8385C51.5895 54.7476 52.0533 54.5173 52.4229 54.2453C53.169 53.6881 53.5057 52.9627 53.6394 52.4678C53.775 51.9629 53.7615 51.665 53.7883 51.6668C53.7964 51.6668 53.8009 51.7401 53.8013 51.8805C53.8044 52.0205 53.7872 52.2292 53.7286 52.4905C53.6184 53.0058 53.2948 53.7737 52.5239 54.3775C52.142 54.6727 51.656 54.9252 51.0917 55.0305C50.5315 55.1322 49.8967 55.1193 49.289 54.8927C48.6818 54.6792 48.1005 54.2696 47.6868 53.6997C47.2618 53.1372 47.0207 52.4112 47.015 51.664C47.0216 50.9172 47.2632 50.1914 47.6887 49.6296C48.1028 49.06 48.6839 48.6509 49.2913 48.4378C49.8991 48.2116 50.5335 48.1991 51.0936 48.3012C51.6578 48.4069 52.1437 48.6598 52.5253 48.9551C53.2958 49.5595 53.6189 50.3276 53.7288 50.843C53.7871 51.1043 53.8047 51.3136 53.8015 51.4535C53.801 51.5939 53.7964 51.6668 53.7883 51.6668ZM44.9574 51.334C44.9293 51.3286 44.9249 51.1742 45.0359 50.9568C45.1428 50.7436 45.3879 50.4742 45.7548 50.3589C46.1225 50.2453 46.4766 50.3279 46.6858 50.443C46.9004 50.5585 46.9846 50.6885 46.9646 50.7089C46.9415 50.7365 46.8238 50.6595 46.621 50.5965C46.4213 50.5321 46.1233 50.4921 45.8249 50.5844C45.5269 50.6781 45.3049 50.8795 45.1767 51.0461C45.0453 51.2132 44.9918 51.3436 44.9574 51.334ZM38.6837 53.9502C38.7067 54.0113 38.1329 54.2593 37.4024 54.504C36.6714 54.7488 36.0641 54.8967 36.046 54.8342C36.0279 54.7717 36.6013 54.5237 37.3273 54.2803C38.0533 54.0369 38.6606 53.8891 38.6837 53.9502Z" fill="#455A64"/>
<path d="M43.642 53.1332C43.7017 53.529 43.4153 53.9057 43.0032 53.9757C42.5916 54.0453 42.2095 53.7821 42.1498 53.3863C42.0902 52.9905 42.3765 52.6129 42.7877 52.5433C43.1998 52.4733 43.5824 52.7374 43.642 53.1332ZM51.2031 52.1074C51.2628 52.5032 50.9764 52.8799 50.5643 52.95C50.1527 53.0196 49.7705 52.7559 49.7109 52.3601C49.6513 51.9642 49.9376 51.5867 50.3488 51.5171C50.7609 51.447 51.1435 51.7116 51.2031 52.1074Z" fill="#263238"/>
<path d="M51.0106 50.3493C50.9286 50.4579 50.3101 50.1013 49.5004 50.1962C48.6902 50.2796 48.1434 50.7645 48.0443 50.6752C47.9959 50.6362 48.0706 50.4483 48.308 50.2302C48.5413 50.0133 48.9548 49.7807 49.4598 49.7252C49.9643 49.6701 50.4103 49.8075 50.676 49.9697C50.9472 50.1324 51.0513 50.2999 51.0106 50.3493ZM43.0668 51.413C42.9843 51.5216 42.365 51.1655 41.5562 51.2603C40.746 51.3438 40.1997 51.8286 40.1001 51.7393C40.0521 51.7004 40.126 51.5125 40.3643 51.2943C40.5975 51.077 41.0106 50.8448 41.5156 50.7893C42.0205 50.7342 42.4665 50.8716 42.7323 51.0334C43.0026 51.196 43.1076 51.3636 43.0668 51.413Z" fill="#263238"/>
<path d="M46.6954 57.0825C46.6864 57.0368 47.18 56.8925 47.9839 56.6944C48.1881 56.6492 48.3793 56.5854 48.3979 56.4405C48.4296 56.2857 48.3174 56.0723 48.1893 55.8431C47.9377 55.3648 47.6739 54.8644 47.3974 54.339C46.2909 52.1939 45.4646 50.4207 45.5511 50.3768C45.6381 50.3329 46.6052 52.036 47.7117 54.181C47.9796 54.7105 48.2353 55.2151 48.4792 55.6979C48.5846 55.9239 48.7498 56.1748 48.68 56.4972C48.6419 56.658 48.5028 56.7879 48.3742 56.8386C48.2465 56.8942 48.1305 56.9096 48.0286 56.9277C47.2126 57.0659 46.704 57.1283 46.6954 57.0825Z" fill="#263238"/>
<path d="M34.0672 41.377C32.9136 41.7557 31.6088 44.9034 31.9471 46.0692C32.2854 47.2349 33.3715 48.0816 34.5484 48.3805C35.7252 48.6793 36.976 48.5013 38.1377 48.149C39.7808 47.6505 41.5142 46.5194 41.6317 44.8064C43.2324 46.42 45.7124 47.1019 47.9134 46.5339C50.1145 45.9659 51.7459 42.6004 52.3657 40.4139L34.0672 41.377Z" fill="#263238"/>
<path d="M96.3867 64.1469C97.3603 63.7717 96.9589 62.7591 96.9589 62.7591L93.3398 63.8448C93.3398 63.8448 95.2608 63.0687 96.2458 62.2651C97.2308 61.4616 96.7407 60.7605 96.7407 60.7605L93.0112 62.1951L90.9031 63.4339L85.6164 71.4824C85.6164 71.4824 89.1922 73.697 90.011 73.2492C91.8635 72.2366 92.4562 69.6212 92.7433 68.4613C93.2607 68.3121 94.8901 67.8295 95.3302 67.537C95.855 67.188 96.1056 66.6635 96.1056 66.6635L93.2316 67.2075C93.6484 67.0867 96.3127 66.1769 96.5245 65.8511C96.8966 65.2782 96.6637 65.0235 96.6637 65.0235L93.0542 65.5816L93.4264 65.3112C93.4264 65.3112 95.4484 64.5085 96.3867 64.1469ZM91.3376 71.9697L89.1489 70.9097L90.735 68.0437L91.9776 65.4205L93.9055 61.8511L90.9725 62.9481C90.6259 63.0957 90.3213 63.3277 90.0868 63.6227L85.2547 70.2792L84.3706 71.1779C84.3706 71.1779 82.7185 73.0969 83.9121 74.701C85.4177 76.7243 87.7023 74.4741 88.2793 74.0287C90.3373 73.8021 91.3376 71.9697 91.3376 71.9697Z" fill="#FFBE9D"/>
<path d="M92.0553 66.0888C91.6908 66.0349 91.3216 66.1264 90.9678 66.2279C89.8842 66.5386 88.8295 66.9499 87.8213 67.4536C87.8213 67.4536 86.2801 69.5236 86.0373 70.7066C85.9303 71.229 86.837 72.249 86.837 72.249C88.0971 72.0064 89.1987 71.0636 89.633 69.8559C89.7662 69.4852 89.8477 69.0809 90.1007 68.7791C90.3697 68.4584 90.7887 68.309 91.1937 68.2035C91.5987 68.098 92.0217 68.0184 92.373 67.7905C92.7242 67.5623 92.9883 67.1347 92.8778 66.731C92.7809 66.3759 92.4198 66.1427 92.0553 66.0888Z" fill="#FFBE9D"/>
<path d="M86.8363 72.249C86.8323 72.23 87.0311 72.1904 87.3655 72.0572C87.6967 71.9227 88.1693 71.6828 88.6281 71.2359C88.8561 71.0138 89.0824 70.7437 89.2676 70.4193C89.4618 70.0953 89.58 69.725 89.7118 69.3044C89.7845 69.098 89.8771 68.8785 90.0399 68.693C90.2009 68.5076 90.4139 68.372 90.6377 68.2762C91.0876 68.0793 91.5827 68.0328 92.0217 67.8517C92.2423 67.7623 92.4358 67.6385 92.5769 67.4666C92.7184 67.2974 92.806 67.0874 92.7963 66.8863C92.776 66.4706 92.3361 66.1997 91.9508 66.1766C91.5469 66.1435 91.1541 66.2725 90.7885 66.3731C90.423 66.4791 90.085 66.5878 89.7792 66.6939C89.1676 66.9069 88.6819 67.106 88.3471 67.2469C88.0127 67.3878 87.8274 67.4677 87.8206 67.4537C87.8143 67.441 87.987 67.3361 88.3123 67.1712C88.6377 67.0063 89.117 66.7841 89.7273 66.5511C90.0327 66.4351 90.3706 66.3173 90.7376 66.2028C91.1018 66.0963 91.5041 65.9505 91.9664 65.9801C92.196 65.9944 92.4327 66.0725 92.6323 66.2191C92.8313 66.3628 92.9923 66.6026 93.006 66.8743C93.0266 67.4255 92.5818 67.871 92.1039 68.0497C91.6218 68.2448 91.1318 68.289 90.7204 68.4692C90.5147 68.5559 90.3302 68.6735 90.1937 68.8277C90.0563 68.9811 89.9696 69.1743 89.8978 69.3708C89.7683 69.7682 89.6292 70.1792 89.4201 70.5096C89.2191 70.8462 88.9755 71.1222 88.7316 71.3461C88.2407 71.7961 87.7414 72.0223 87.3939 72.1356C87.2186 72.192 87.08 72.2244 86.9839 72.2374C86.8884 72.2523 86.8377 72.2563 86.8363 72.249Z" fill="#EB996E"/>
<path d="M70.9279 83.6132C67.018 88.05 66.9215 94.2326 72.1223 94.079C72.9725 93.9082 74.3711 93.8016 75.2495 92.6763C79.4226 87.3301 88.2798 74.1002 88.2798 74.1002C88.2798 74.1002 89.5276 71.9316 88.1119 70.8104C86.4913 69.5268 84.8657 70.6483 84.8657 70.6483L70.9279 83.6132Z" fill="#FFBE9D"/>
<path d="M70.9239 83.6136C69.9174 83.3806 61.3453 78.3704 55.7593 75.0661C52.9787 73.4215 51.4575 76.4666 51.4575 76.4666L51.8848 80.8029C51.8848 80.8029 54.8754 89.5819 61.4743 91.8667C65.8245 93.3731 70.0573 94.4962 72.1262 94.0785C72.9764 93.9071 74.3748 93.7995 75.2524 92.6735C79.4214 87.3241 70.9239 83.6136 70.9239 83.6136Z" fill="#FFBE9D"/>
<path d="M55.919 89.6712C56.5045 89.6717 63.2248 93.1933 63.2248 93.1933L67.0625 80.5165C61.3492 76.7032 56.6611 72.3477 53.3166 71.4466C53.3166 71.4466 49.8961 71.6767 50.43 78.5998C50.8223 83.687 55.919 89.6712 55.919 89.6712Z" fill="#CB128D"/>
<path d="M56.9214 89.5831C56.2407 80.5692 54.3013 74.2663 53.5859 72.189C53.4171 71.699 52.5341 71.2035 52.5341 71.2035L49.0065 70.1177C48.3546 72.9642 43.7146 73.9044 41.0733 72.6588L38.2775 71.1972C29.3072 69.851 29.7718 70.5951 27.6976 71.8411C25.8956 72.9237 26.0607 81.0048 26.0607 81.0048C26.0607 81.0048 21.5869 102.06 21.8307 105.438C22.0744 108.815 24.6776 112.208 24.6776 112.208C24.6776 112.208 47.0559 112.207 49.5614 112.207C52.067 112.207 52.7826 106.543 52.6085 104.488C52.4343 102.432 57.1978 93.2444 56.9214 89.5831Z" fill="#CB128D"/>
<path d="M33.2893 96.5941C33.2798 96.6067 33.4233 96.7381 33.7063 96.9469C33.9898 97.1543 34.4213 97.4301 34.9942 97.6974C35.5652 97.9664 36.2865 98.2092 37.1175 98.3347C37.9471 98.4516 38.8881 98.4454 39.8332 98.2177C41.7429 97.774 43.179 96.6484 44.0576 95.7668C44.5019 95.3194 44.8194 94.9205 45.0291 94.6393C45.2333 94.3536 45.3348 94.1883 45.3207 94.1779C45.2832 94.1484 44.8316 94.7824 43.9286 95.6336C43.0305 96.4681 41.6148 97.5349 39.7735 97.9618C37.9353 98.4068 36.191 98.0135 35.0689 97.5275C33.9287 97.0424 33.3183 96.5501 33.2893 96.5941Z" fill="#263238"/>
<path d="M44.9049 94.7505C44.7159 96.6289 43.8168 98.4538 42.3481 99.6401C40.8794 100.826 38.8384 101.319 37.023 100.8C35.2076 100.28 33.7006 98.7101 33.3865 96.8484C34.6662 97.4318 35.9667 98.0206 37.357 98.2313C40.3212 98.6799 43.4872 97.1863 45.0249 94.6129C44.9574 94.6844 44.8895 94.7555 44.822 94.827" fill="black" fill-opacity="0.15"/>
<path d="M23.7792 100.294L46.1632 114.006C46.1632 114.006 48.2602 115.82 46.8499 118.095C45.5337 120.219 42.5921 119.03 42.5921 119.03L14.9716 107.659C14.9716 107.659 10.8334 103.417 15.4754 99.9925C18.6962 97.6162 23.7792 100.294 23.7792 100.294Z" fill="#FFBE9D"/>
<path d="M63.6655 118.304C60.4951 115.123 56.2855 114.675 56.2855 114.675L45.9194 113.852C45.9194 113.852 43.3825 112.902 42.0873 115.432C41.5027 116.574 42.0765 118.563 42.8531 119.03C43.9508 119.691 45.3098 120.329 46.7326 120.445L55.4481 120.181C55.4481 120.181 56.429 119.737 56.9407 119.791C57.4583 119.846 59.4929 120.681 59.4929 120.681C59.4929 120.681 61.0611 120.849 60.395 119.877C61.7581 120.892 62.426 120.129 62.0511 119.506C61.2351 118.149 58.9287 117.183 58.9287 117.183C58.9287 117.183 60.7125 117.518 63.0917 119.626C63.368 119.871 63.9897 119.872 64.198 119.567C64.3995 119.272 63.9177 118.557 63.6655 118.304Z" fill="#FFBE9D"/>
<path d="M27.8108 94.1478C25.4357 98.0498 23.779 100.294 23.779 100.294C23.779 100.294 21.8699 104.015 20.778 105.426C18.869 107.892 16.7465 108.529 15.2327 107.746C13.5201 106.859 12.5979 104.159 13.5591 101.037L17.6158 89.579L27.8108 94.1478ZM18.5978 102.275C18.6481 102.341 19.6544 101.496 21.147 100.952C22.6342 100.391 23.9479 100.375 23.9429 100.293C23.9552 100.231 22.5971 100.126 21.0556 100.705C19.5095 101.271 18.548 102.236 18.5978 102.275Z" fill="#FFBE9D"/>
<path d="M18.5974 102.275C18.6476 102.341 19.6539 101.496 21.1466 100.951C22.6338 100.39 23.9475 100.375 23.9425 100.292C23.9547 100.23 22.5967 100.126 21.0551 100.705C19.509 101.271 18.5476 102.236 18.5974 102.275Z" fill="#EB996E"/>
<path d="M16.5023 89.066L29.042 94.9465C29.042 94.9465 34.1548 83.638 34.5942 82.0924C35.0336 80.5469 36.4136 78.0989 35.0001 74.8754C33.5866 71.652 29.7969 70.467 27.6991 71.8407C23.006 74.9142 16.5023 89.066 16.5023 89.066Z" fill="#CB128D"/>
<path d="M16.5016 89.0662C16.5053 89.0585 16.5908 89.0893 16.7507 89.1541C16.9341 89.232 17.1637 89.3294 17.4449 89.4489C18.0739 89.7284 18.932 90.1093 19.9789 90.574C22.1366 91.5578 25.0655 92.8935 28.3015 94.3692C28.6492 94.5295 28.9929 94.688 29.3162 94.8371L29.1582 94.8936C30.6053 91.9113 31.8735 89.2437 32.7717 87.3178C33.2056 86.3755 33.5602 85.6066 33.8207 85.0406C33.9348 84.792 34.0281 84.5882 34.1033 84.4238C34.1699 84.2839 34.2079 84.2119 34.2152 84.2151C34.2224 84.2182 34.1984 84.2957 34.1459 84.4415C34.0924 84.5868 34.0136 84.8019 33.9026 85.0754C33.6834 85.6238 33.3496 86.4122 32.9207 87.3853C32.0605 89.3307 30.8177 92.0123 29.3742 94.9992L29.323 95.1051L29.2157 95.0558C28.8924 94.9068 28.5482 94.7482 28.2005 94.5883C24.9759 93.0878 22.0574 91.7299 19.9074 90.7293C18.8736 90.2356 18.0268 89.8312 17.4055 89.5345C17.132 89.3982 16.9087 89.2872 16.7303 89.1984C16.5768 89.1192 16.498 89.0739 16.5016 89.0662Z" fill="#263238"/>
<path d="M54.7788 79.255C54.7951 79.2505 54.8838 79.5294 55.0386 80.0353C55.2057 80.5773 55.4279 81.3001 55.6978 82.1764C56.241 83.9788 57.0324 86.5211 57.0688 89.4465C57.0456 90.9097 56.7479 92.275 56.4 93.48C56.0512 94.6877 55.6467 95.7437 55.3025 96.6253C54.9546 97.5061 54.6588 98.2121 54.455 98.7002C54.2507 99.1884 54.1339 99.4564 54.118 99.4506C54.1103 99.4478 54.1289 99.3763 54.1715 99.2436C54.2258 99.0856 54.2911 98.8958 54.3694 98.6672C54.566 98.1355 54.8283 97.4264 55.1467 96.566C55.4706 95.6785 55.8569 94.6206 56.1913 93.4206C56.5251 92.2229 56.8105 90.8748 56.8329 89.4442C56.7978 86.5705 56.0413 84.0372 55.5379 82.2235C55.2812 81.3132 55.0775 80.5746 54.9503 80.0602C54.8847 79.8034 54.8403 79.6023 54.8109 79.466C54.7819 79.3297 54.7711 79.2573 54.7788 79.255Z" fill="#263238"/>
<path d="M44.1772 76.7268C43.9845 74.8819 43.0128 73.1748 41.7032 71.8606C41.0536 71.2087 40.2735 70.5573 40.1475 69.6456C39.9844 68.4646 41.0065 67.3589 40.8412 66.1783C40.6347 64.7046 38.7909 64.0636 38.1324 62.7293C37.2468 60.9353 38.7912 58.6043 37.8413 56.8433C37.2693 55.7825 35.9042 55.2113 35.6302 54.0374C35.4529 53.278 36.9011 52.17 37.2381 50.5214C37.9961 46.8146 38.3821 43.9469 34.7827 41.7873L32.6817 38.9047C30.3242 40.0537 28.343 42.6407 28.3017 45.3456C28.2823 46.6235 28.9367 47.9057 28.3797 49.0562C27.6025 50.6618 25.7935 51.6499 25.2468 53.3474C24.4643 55.7767 26.6162 58.4959 25.6757 60.8685C25.1209 62.2676 23.6597 63.0663 22.7428 64.2593C21.3052 66.129 21.4527 69.0377 23.0711 70.7532C20.7791 72.2953 19.7179 75.4444 20.6087 78.059C20.9832 79.1587 21.8325 80.2506 22.9922 80.3148C24.6532 80.4073 25.6011 78.5262 26.8173 77.3913C28.7077 75.6277 32.0186 75.7149 33.8125 77.5762C35.0909 78.9026 35.6058 80.8991 37.0953 81.9833C38.5952 83.0752 40.8217 82.8781 42.264 81.7111C43.7063 80.5442 44.3699 78.5718 44.1772 76.7268Z" fill="#263238"/>
<path d="M98.447 96.7549L68.564 96.9976C67.5945 96.9976 66.6684 97.4631 66.5231 98.4218L63.2571 120.202H47.8649C47.3695 120.202 46.9678 120.604 46.9678 121.099C46.9678 121.594 47.3695 121.997 47.8649 121.997H62.9881H65.8587H97.0259L100.386 99.0092C100.565 97.8227 99.647 96.7549 98.447 96.7549Z" fill="#A5DBFF"/>
<path d="M98.468 96.8636C98.468 96.8636 98.6088 96.7341 98.9172 96.7988C99.2161 96.8686 99.6875 97.0533 100.059 97.556C100.244 97.8019 100.384 98.1302 100.428 98.5097C100.477 98.8946 100.366 99.2999 100.318 99.7387C100.193 100.619 100.049 101.633 99.8872 102.772C99.2297 107.338 98.2814 113.919 97.1162 122.01L97.1049 122.089H97.0248C84.3038 122.096 67.5865 122.106 49.3314 122.117C48.9025 122.117 48.475 122.117 48.048 122.117C47.8501 122.125 47.5743 122.114 47.3687 121.988C47.1568 121.871 46.9915 121.675 46.9091 121.449C46.7302 120.993 46.944 120.434 47.3733 120.208C47.578 120.084 47.851 120.073 48.0466 120.082H48.6788C50.3625 120.082 52.0285 120.082 53.6737 120.082C56.9637 120.083 60.1685 120.085 63.2564 120.086L63.1414 120.184C64.317 112.384 65.4138 105.108 66.3974 98.5803C66.4313 98.1669 66.6184 97.7195 66.9503 97.4423C67.2745 97.1543 67.6853 97.0017 68.0928 96.9383C68.5085 96.8754 68.9043 96.9089 69.2979 96.8957C69.6923 96.893 70.0831 96.8903 70.4712 96.8876C72.0226 96.8772 73.5238 96.8668 74.9702 96.8572C77.8625 96.8391 80.5371 96.8219 82.9657 96.8065C87.8175 96.7816 91.6852 96.7621 94.348 96.7486C95.6712 96.7463 96.6937 96.744 97.3934 96.7427C97.7348 96.7445 97.9961 96.7458 98.1795 96.7468C98.3561 96.7486 98.4463 96.7549 98.4463 96.7549C98.4463 96.7549 98.3561 96.893 98.1795 96.898C97.9961 96.9016 97.7131 96.9071 97.3716 96.9143C96.672 96.9243 95.6934 96.9609 94.3702 96.98C91.7074 97.0094 87.8397 97.0529 82.9879 97.1068C80.5593 97.1308 77.8847 97.157 74.9924 97.1856C73.546 97.1996 72.0453 97.2136 70.4938 97.2286C70.1057 97.2322 69.7149 97.2363 69.3205 97.2399C68.9274 97.253 68.5226 97.2227 68.1449 97.2825C67.765 97.3422 67.3669 97.3341 67.0812 97.59C66.7873 97.8458 66.6324 98.2022 66.5953 98.6102C65.6212 105.139 64.6661 112.461 63.5023 120.263L63.357 120.318L63.3651 120.405C60.2771 120.406 57.0293 120.429 53.7394 120.43C52.0942 120.431 50.4929 120.431 48.8092 120.431H48.1771C47.9543 120.425 47.7881 120.434 47.6205 120.528C47.2931 120.701 47.2601 121.127 47.3968 121.474C47.4598 121.647 47.4113 121.602 47.5734 121.69C47.7414 121.786 47.8877 121.795 48.1132 121.789C48.5403 121.789 48.8808 121.767 49.3096 121.767C67.5648 121.778 83.9121 121.548 96.6331 121.556L96.8033 121.482C98.0025 113.397 99.0096 107.35 99.6762 102.8C99.8428 101.662 99.9769 100.607 100.109 99.7274C100.162 99.2872 100.188 98.8833 100.144 98.5165C100.106 98.1497 100.04 97.8508 99.8628 97.609C99.5082 97.1145 99.1604 96.9677 98.8674 96.8908C98.5654 96.8178 98.4671 96.8754 98.468 96.8636Z" fill="#263238"/>
<path d="M80.3662 109.099C80.3662 110.132 81.204 110.97 82.2374 110.97C83.2708 110.97 84.1081 110.132 84.1081 109.099C84.1081 108.065 83.2708 107.228 82.2374 107.228C81.204 107.228 80.3662 108.065 80.3662 109.099Z" fill="white"/>
<path d="M64.4663 121.795C64.5089 121.802 65.6342 116.256 66.7649 109.41C67.8962 102.561 68.6044 97.0048 68.5623 96.9976C68.5202 96.9908 67.5687 102.535 66.4375 109.384C65.3068 116.231 64.4242 121.788 64.4663 121.795Z" fill="#263238"/>
</svg>
