<svg width="217" height="135" viewBox="0 0 217 135" fill="none" xmlns="http://www.w3.org/2000/svg">
<path d="M207.078 89.0651C217.573 107.847 202.386 144.697 106.065 119.087C57.7713 106.247 21.6979 135.173 14.2642 114.982C-3.05102 67.9515 67.6619 13.5485 106.984 51.53C142.927 86.2476 187.975 54.8814 207.078 89.0651Z" stroke="#E3E3E3" stroke-width="4" stroke-miterlimit="10" stroke-dasharray="32.09 32.09"/>
<path d="M206.525 130.407H10.1299C16.2764 84.997 57.8924 49.8716 108.327 49.8716C158.757 49.8716 200.378 84.997 206.525 130.407Z" fill="#F6F5F5"/>
<path d="M153.805 130.009H134.172C115.756 130.009 100.826 115.079 100.826 96.6625V44.9388C100.826 26.5221 115.756 11.5928 134.172 11.5928H153.805C172.221 11.5928 187.15 26.5221 187.15 44.9388V96.6625C187.15 115.079 172.221 130.009 153.805 130.009Z" fill="#A5DBFF"/>
<path d="M179.814 119.576H108.762V16.3652H179.814V119.576Z" fill="#F6F5F5"/>
<path d="M179.814 16.3662C179.837 56.613 181.136 105.153 176.615 115.9C156.702 117.84 133.387 118.462 108.762 118.578L118.122 16.6771L179.814 16.3662Z" fill="#E3E3E3"/>
<path d="M173.433 112.646C142.396 117.613 121.653 117.875 104.829 116.626C107.009 93.418 107.883 54.8636 108.762 16.3706L146.162 16.4532L180.011 18.6874C180.504 58.6394 180.558 95.5433 173.433 112.646Z" fill="white"/>
<path d="M162.198 32.456L124.82 31.5767L124.954 25.8833L162.332 26.7627L162.198 32.456Z" fill="#6F8BD4"/>
<path d="M169.537 40.6951L135.823 39.9019L135.762 42.5076L169.476 43.3008L169.537 40.6951Z" fill="#6F8BD4"/>
<path d="M158.605 46.1228L135.689 45.5835L135.627 48.1893L158.543 48.7285L158.605 46.1228Z" fill="#D2DFFF"/>
<path d="M125.012 47.7862L117.03 47.5983L117.218 39.6172L125.199 39.8047L125.012 47.7862Z" fill="white"/>
<path d="M125.012 47.7862L117.03 47.5983L117.218 39.6172L125.199 39.8047L125.012 47.7862Z" stroke="#6F8BD4" stroke-width="6" stroke-miterlimit="10"/>
<path d="M163.245 55.0634L135.481 54.4102L135.42 57.0159L163.183 57.6692L163.245 55.0634Z" fill="#6F8BD4"/>
<path d="M169.063 60.886L135.348 60.0923L135.287 62.6985L169.001 63.4922L169.063 60.886Z" fill="#D2DFFF"/>
<path d="M124.671 62.2965L116.689 62.109L116.877 54.1274L124.859 54.315L124.671 62.2965Z" fill="white"/>
<path d="M124.671 62.2965L116.689 62.109L116.877 54.1274L124.859 54.315L124.671 62.2965Z" stroke="#6F8BD4" stroke-width="6" stroke-miterlimit="10"/>
<path d="M168.854 69.716L135.139 68.9224L135.078 71.5286L168.792 72.3222L168.854 69.716Z" fill="#6F8BD4"/>
<path d="M150.087 74.9594L135.009 74.605L134.947 77.2107L150.025 77.5652L150.087 74.9594Z" fill="#D2DFFF"/>
<path d="M124.33 76.8067L116.349 76.6192L116.536 68.6377L124.518 68.8257L124.33 76.8067Z" fill="white"/>
<path d="M124.33 76.8067L116.349 76.6192L116.536 68.6377L124.518 68.8257L124.33 76.8067Z" stroke="#6F8BD4" stroke-width="6" stroke-miterlimit="10"/>
<path d="M168.515 84.2263L134.8 83.4326L134.738 86.0388L168.453 86.8325L168.515 84.2263Z" fill="#6F8BD4"/>
<path d="M161.298 89.7415L134.665 89.1147L134.604 91.7205L161.236 92.3477L161.298 89.7415Z" fill="#D2DFFF"/>
<path d="M123.988 91.318L116.007 91.13L116.195 83.1489L124.176 83.3365L123.988 91.318Z" fill="white"/>
<path d="M123.988 91.318L116.007 91.13L116.195 83.1489L124.176 83.3365L123.988 91.318Z" stroke="#6F8BD4" stroke-width="6" stroke-miterlimit="10"/>
<path d="M147.825 98.148L134.461 97.8335L134.399 100.439L147.763 100.754L147.825 98.148Z" fill="#6F8BD4"/>
<path d="M168.04 104.309L134.326 103.516L134.265 106.122C147.308 106.428 163.916 107.039 167.305 106.519C167.819 105.934 168.097 105.216 168.04 104.309Z" fill="#D2DFFF"/>
<path d="M123.76 105.721L115.778 105.533L115.966 97.5522L123.947 97.7402L123.76 105.721Z" fill="white"/>
<path d="M123.76 105.721L115.778 105.533L115.966 97.5522L123.947 97.7402L123.76 105.721Z" stroke="#6F8BD4" stroke-width="6" stroke-miterlimit="10"/>
<path d="M159.99 12.3097V20.2755H127.985V12.3097C127.985 11.0395 128.501 9.88963 129.333 9.05558C129.436 8.9515 129.544 8.85414 129.658 8.76396C130.452 8.10355 131.474 7.70828 132.587 7.70828C133.421 7.70828 134.222 7.51716 134.939 7.17215C135.251 7.02095 135.546 6.84328 135.824 6.63915C136.739 5.96213 137.439 5.00022 137.788 3.85392C138.143 2.68428 138.871 1.70577 139.812 1.02562C140.717 0.375521 141.82 0 142.989 0H144.987C146.156 0 147.259 0.375521 148.164 1.02562C149.105 1.70577 149.832 2.68428 150.188 3.85392C150.536 5.00022 151.237 5.96213 152.152 6.63915C152.43 6.84328 152.725 7.02095 153.036 7.17215C153.754 7.51716 154.555 7.70828 155.389 7.70828C156.502 7.70828 157.524 8.10355 158.318 8.76396C159.34 9.60518 159.99 10.882 159.99 12.3097Z" fill="#ED6E56"/>
<path d="M162.589 16.3647V22.2869H125.39V16.3647H127.987V20.2761H159.992V16.3647H162.589Z" fill="#E3E3E3"/>
<path d="M146.828 4.77534C146.828 6.26531 145.557 7.47353 143.989 7.47353C142.421 7.47353 141.15 6.26531 141.15 4.77534C141.15 3.28537 142.421 2.07715 143.989 2.07715C145.557 2.07715 146.828 3.28537 146.828 4.77534Z" fill="white"/>
<path d="M83.1049 42.8904C82.0027 42.5442 81.1708 40.5366 80.8897 39.7712C80.821 39.5833 80.8165 39.3795 80.8761 39.1887L81.6049 36.8631C81.6049 36.8631 82.6197 37.1611 82.3771 38.5306C82.3518 38.6722 82.3644 38.8187 82.3998 38.9584L82.6742 40.0424L83.9525 39.2728L83.5237 37.3832C83.5237 37.3832 82.6364 37.5181 82.2084 37.324C81.3315 36.9257 82.6102 36.3558 82.997 36.3246C83.3837 36.2938 84.2512 36.0892 84.5534 36.7763C84.8555 37.4633 85.0378 37.8679 85.0378 37.8679C85.0378 37.8679 85.6227 36.4808 85.7178 33.2344C85.7219 33.0885 86.0838 33.1343 86.1737 33.2497C86.4415 33.5952 86.8152 34.5951 86.5032 37.4659C86.5032 37.4659 86.9477 34.1301 87.5612 33.854C88.0669 33.6263 88.113 35.2897 87.453 38.0241C87.453 38.0241 88.353 35.6956 88.7946 35.7431C89.5405 35.8237 88.0489 42.1578 85.9512 43.851L83.1049 42.8904Z" fill="#F8B384"/>
<path d="M86.7566 42.3241C86.6856 42.6396 86.6125 42.9454 86.5376 43.2402L86.5373 43.2428C86.2785 44.2925 86.0002 45.2251 85.7107 46.0177C85.6958 46.0566 85.6852 46.0924 85.6707 46.1278C84.8268 48.3937 84.5894 49.5236 82.6815 48.988L80.9495 46.476L80.9321 46.4505L80.8052 46.2665L81.3527 45.1163L81.4241 44.9661L81.8267 44.1295L81.8766 44.0206L82.5658 42.5798L82.8438 41.9955L86.7566 42.3241Z" fill="#F8B384"/>
<path d="M48.7927 124.551L48.2799 126.153C44.7643 127.309 42.7135 128.632 42.582 130.176H52.748L53.5632 124.81C51.5044 125.313 49.8547 124.963 48.7927 124.551Z" fill="black"/>
<path d="M50.0676 120.568L48.793 124.551C49.8549 124.963 51.5042 125.312 53.563 124.81L54.0889 121.35L50.0676 120.568Z" fill="black"/>
<path d="M67.4472 124.373L67.7455 120.316L62.9701 120.568L62.709 124.308C64.7306 124.952 66.4018 124.7 67.4472 124.373Z" fill="black"/>
<path d="M73.1912 130.175C73.0597 128.631 71.2638 126.516 67.326 126.014L67.4467 124.373C66.4013 124.7 64.7301 124.952 62.7084 124.308L62.2988 130.175H73.1912Z" fill="black"/>
<path d="M63.4348 43.2763L57.6808 42.979L58.1914 34.2803L63.7684 34.6076L63.7408 35.1399L63.6058 37.8987L63.3863 42.3274L63.4348 43.2763Z" fill="#F8B384"/>
<path d="M63.5807 38.3159C62.4831 39.3427 59.858 37.9572 58.7907 36.6923L63.7152 35.5576L63.5807 38.3159Z" fill="#E18A6C"/>
<path d="M65.2499 32.6805C65.2091 33.3225 65.1293 33.9929 64.9845 34.6289C64.6008 36.3654 63.7688 37.8374 62.0534 37.7834C57.9981 37.6631 56.9798 35.2803 56.3282 33.3419C55.6768 31.3999 57.1815 26.9126 57.1815 26.9126L62.4517 26.7016L65.1905 29.2294C65.1905 29.2294 65.3741 30.8482 65.2499 32.6805Z" fill="#F8B384"/>
<path d="M55.4256 32.6957C55.4256 32.6957 56.581 32.777 57.1232 29.8338C59.0974 30.7613 60.6723 30.3089 62.0212 29.0794C62.8801 30.5382 65.673 31.2887 66.9528 28.6559C67.8774 26.7532 66.3077 23.576 63.3112 25.0408C60.7399 23.3418 56.585 22.9533 54.9974 26.2002C54.9974 26.2002 50.6293 27.6288 54.5283 32.349C54.6067 32.4435 55.4256 32.6957 55.4256 32.6957Z" fill="#101F47"/>
<path d="M72.0195 74.4282L68.8354 122.578H61.3506L63.2219 75.8558L64.3669 75.3251L72.0195 74.4282Z" fill="#DC70BC"/>
<path d="M52.524 67.84L47.2734 122.578H55.4286L63.1925 77.1118L72.0175 74.4307L72.4087 64.712L52.7474 64.2651L52.524 67.84Z" fill="#CB128D"/>
<path d="M53.695 67.9604C58.1492 69.5589 68.6001 67.7316 70.7703 65.5045L69.2283 62.4209L52.0391 64.705L53.695 67.9604Z" fill="#101F47"/>
<path d="M70.3718 64.7617C70.2278 64.8219 70.0802 64.8856 69.9294 64.9425C68.264 65.6196 66.3671 66.2127 64.3459 66.6048C63.1395 66.843 61.8828 67.0036 60.6028 67.0642C58.6723 67.1616 56.6884 67.0337 54.7246 66.5882L57.2209 43.3099L57.526 40.4713C57.526 40.4713 60.7935 44.493 64.3966 40.0522L70.3718 64.7617Z" fill="white"/>
<path d="M60.6028 67.0648C58.6723 67.1622 56.6884 67.0348 54.7246 66.5888L57.2214 43.3105L58.1128 42.022C60.3144 47.3775 62.5702 59.2358 60.6028 67.0648Z" fill="#1F3B87"/>
<path d="M58.1475 39.884C60.008 50.5516 60.3919 61.4385 56.035 73.247C53.2666 74.1182 50.3198 73.9336 47.2186 72.8419L49.2818 51.0302L30.1675 62.5811L29.457 55.6295C36.916 49.2909 49.7264 39.805 58.1475 39.884Z" fill="#DC70BC"/>
<path d="M69.9268 64.9418C68.2614 65.6188 66.3645 66.2119 64.3433 66.604C63.2342 60.243 62.9897 49.7935 63.8911 45.0786L69.9268 64.9418Z" fill="#1F3B87"/>
<path d="M85.7103 46.0175C85.6958 46.0565 85.6848 46.0922 85.6703 46.1275C84.8264 48.3935 84.5885 49.5233 82.6806 48.9878L80.9486 46.4757L80.9313 46.4502L81.3519 45.116L81.4233 44.9659L81.8259 44.1292L81.8758 44.0203L85.7103 46.0175Z" fill="#E18A6C"/>
<path d="M85.1822 47.9661C85.1822 47.9661 79.6337 58.1317 76.6916 58.2107C73.8396 58.2873 72.6566 55.4562 72.6566 55.4562L73.7676 70.853C71.3442 71.8191 68.7396 72.2059 65.7828 71.5021C63.6352 62.7313 63.2863 51.5337 63.8174 39.1167C65.9571 39.3762 70.2003 39.81 71.6656 40.8785C74.295 42.7955 77.3003 49.2665 77.3003 49.2665L81.546 44.1437L85.1822 47.9661Z" fill="#DC70BC"/>
<path d="M25.7247 30.6686C25.7247 30.6686 26.3166 25.6846 26.8115 25.9505C27.3064 26.2164 28.0723 30.6253 28.0723 30.6253L26.8779 32.3232L25.7247 30.6686Z" fill="#6E3428"/>
<path d="M35.4419 121.863L35.4935 123.518C35.5836 126.439 33.2889 128.881 30.3677 128.971L29.9422 128.984C27.0215 129.075 24.5801 126.78 24.4895 123.859L24.4384 122.204L35.4419 121.863Z" fill="#ED6E56"/>
<path d="M32.9579 41.7373L35.44 121.863L24.4365 122.204L21.954 42.0787L32.9579 41.7373Z" fill="#FAC343"/>
<path d="M31.5359 110.474L27.6278 110.594L25.4521 40.362L29.3598 40.2409L31.5359 110.474Z" stroke="#6E3428" stroke-width="8" stroke-miterlimit="10"/>
<path d="M35.4399 121.864L24.4387 122.205L24.3397 118.976L24.27 116.733L24.0536 109.839L35.058 109.498L35.2708 116.393L35.3404 118.636L35.4399 121.864Z" fill="#101F47"/>
<path d="M35.3413 118.635L24.3401 118.977L24.2704 116.734L35.2716 116.392L35.3413 118.635Z" fill="#FAC343"/>
<path d="M21.9524 42.079L25.7084 30.072C25.7084 30.072 26.7304 30.5998 28.0499 29.8881L32.9573 41.7385L21.9524 42.079Z" fill="#ED6E56"/>
<path d="M57.1911 31.7976C57.1524 31.6151 56.3499 31.32 56.1733 31.2597C55.8992 31.1668 55.5982 31.1109 55.3196 31.2177C54.3054 31.6058 54.3544 33.0284 54.8227 33.8019C55.0878 34.2399 55.4933 34.5891 55.9786 34.7592C56.1552 34.8212 57.8533 34.9411 57.795 34.6636C57.7946 34.6626 57.1921 31.804 57.1911 31.7976Z" fill="#F8B384"/>
<path d="M24.6782 58.9011C24.4689 58.0803 23.6507 57.5783 22.835 57.8073C21.5647 58.1642 20.4366 58.8305 20.1958 60.0617C19.9763 61.1823 20.3297 64.8254 22.8267 65.4371L22.73 63.5704C22.73 63.5704 24.2968 63.3006 24.6456 62.6487C24.889 62.1924 25.0187 60.2352 24.6782 58.9011Z" fill="#F8B384"/>
<path d="M72.4182 48.0596C72.551 48.851 72.6641 49.6442 72.7731 50.4383C72.8852 51.232 72.9745 52.0288 73.0764 52.8234L73.3361 55.2142C73.412 56.0119 73.486 56.8096 73.5353 57.6109L73.4052 57.6266C73.2679 56.8356 73.1562 56.042 73.0454 55.2479L72.7466 52.8619C72.6623 52.0651 72.5658 51.2697 72.4918 50.4711C72.4142 49.6738 72.3415 48.8757 72.2881 48.0753L72.4182 48.0596Z" fill="#1F3B87"/>
<path d="M49.8812 47.9297C49.8794 48.818 49.8578 49.7059 49.8314 50.5933C49.8089 51.4812 49.7627 52.3682 49.73 53.2552L49.5851 55.9143C49.5258 56.8004 49.4644 57.6856 49.3782 58.5703L49.2472 58.5641C49.245 57.6753 49.2679 56.7878 49.2921 55.9L49.398 53.239C49.4491 52.3525 49.4873 51.4659 49.5483 50.5798C49.6057 49.6942 49.6685 48.8086 49.7502 47.9238L49.8812 47.9297Z" fill="#1F3B87"/>
<path d="M61.2564 31.953C61.3086 32.2729 61.1613 32.5627 60.9271 32.6011C60.693 32.6395 60.4605 32.4114 60.4083 32.0915C60.3565 31.7721 60.5043 31.4819 60.738 31.4439C60.9721 31.4056 61.2042 31.6331 61.2564 31.953Z" fill="#101F47"/>
<path d="M64.6145 31.7589C64.5817 32.081 64.3638 32.3235 64.1275 32.2997C63.8916 32.2756 63.727 31.9944 63.7594 31.6723C63.7922 31.3502 64.0105 31.1082 64.2464 31.1319C64.4823 31.1561 64.6469 31.4368 64.6145 31.7589Z" fill="#101F47"/>
<path d="M62.7381 31.9147C62.8365 32.1978 62.8011 32.495 62.8617 32.726C62.8926 32.8429 62.9391 32.9467 63.0075 33.0137C63.0711 33.0785 63.1772 33.1247 63.3124 33.1862C63.4512 33.2496 63.5968 33.3565 63.6917 33.5082C63.7927 33.6566 63.8087 33.9034 63.6999 34.0583C63.6018 34.2134 63.4685 34.2946 63.3535 34.3696C63.2343 34.4404 63.1188 34.5163 62.995 34.5814L62.9153 34.4779C63.009 34.3746 63.1115 34.2822 63.2098 34.1841C63.3105 34.0921 63.4039 34.0018 63.4427 33.9151C63.5225 33.7648 63.381 33.5866 63.1663 33.4863C63.0564 33.4282 62.8956 33.3729 62.7718 33.2308C62.6527 33.0939 62.5995 32.9281 62.5833 32.7757C62.5459 32.4625 62.6246 32.2011 62.6098 31.9418L62.7381 31.9147Z" fill="#E18A6C"/>
<path d="M59.7099 31.0121C59.7708 30.8166 59.9027 30.6365 60.0817 30.5108C60.2584 30.3809 60.4827 30.3177 60.7015 30.3193C61.1425 30.3182 61.5627 30.5937 61.7219 30.9738L61.6146 31.0489C61.3373 30.8038 61.0249 30.6601 60.6981 30.6526C60.3706 30.6424 60.0643 30.7934 59.8248 31.075L59.7099 31.0121Z" fill="#101F47"/>
<path d="M63.1873 30.8049C63.2457 30.6528 63.3416 30.5115 63.4746 30.3979C63.6055 30.2811 63.7827 30.2093 63.9631 30.1907C64.3263 30.1522 64.702 30.3581 64.8248 30.6857L64.7159 30.7575C64.4896 30.5856 64.2368 30.5043 63.993 30.5232C63.8712 30.5322 63.7534 30.5703 63.6362 30.6299C63.5206 30.6932 63.4134 30.7822 63.2958 30.8778L63.1873 30.8049Z" fill="#101F47"/>
<path d="M60.9863 35.0649C61.2755 35.5821 61.7258 35.921 62.1013 35.917C62.4143 35.9138 62.9397 35.6674 63.2386 35.2458L60.9863 35.0649Z" fill="white"/>
<path d="M65.2803 32.458C65.2395 33.1005 65.1309 33.9926 64.9862 34.6285C64.589 34.4744 64.3169 34.0787 64.3434 33.6273C64.3731 33.122 64.7975 32.507 65.2803 32.458Z" fill="#FB8779"/>
<path d="M60.7938 34.0191C60.7588 34.6152 60.2472 35.0697 59.6515 35.0347C59.0558 34.9997 58.6009 34.4886 58.6359 33.8924C58.6709 33.2963 59.1825 32.8418 59.7782 32.8768C60.3738 32.9118 60.8288 33.423 60.7938 34.0191Z" fill="#FB8779"/>
<path d="M56.4209 32.831C56.2162 32.6738 56.0298 32.5042 55.8409 32.3987C55.7474 32.3456 55.6595 32.3117 55.5789 32.3141C55.498 32.3152 55.402 32.3572 55.2929 32.4254L55.1873 32.3478C55.2408 32.217 55.3459 32.0726 55.5254 32.0247C55.704 31.9745 55.8786 32.0333 56.0062 32.1091C56.2642 32.2699 56.4339 32.4951 56.5295 32.7582L56.4209 32.831Z" fill="#E18A6C"/>
<path d="M24.3905 62.1471L22.5603 66.7739L22.4561 63.0681C23.4336 62.9147 23.9834 62.5596 24.3905 62.1471Z" fill="#6E3428"/>
<path d="M0 130.206H216.653" stroke="#101F47" stroke-width="8" stroke-miterlimit="10"/>
</svg>
