<svg width="253" height="146" viewBox="0 0 253 146" fill="none" xmlns="http://www.w3.org/2000/svg">
<mask id="mask0_120_9556" style="mask-type:alpha" maskUnits="userSpaceOnUse" x="-17" y="22" width="282" height="77">
<path d="M0 45.1678C0 45.1678 23.4488 74.3759 40.7268 71.9076C58.0049 69.4393 73.226 52.984 90.0927 48.4588C106.959 43.9336 120.535 41.4653 135.756 48.4588C150.977 55.4523 175.66 66.971 185.945 69.4393C196.229 71.9076 215.564 87.9515 253 65.3255" stroke="#C7FF00" stroke-width="43"/>
</mask>
<g mask="url(#mask0_120_9556)">
<g opacity="0.22">
<path d="M217.776 79.6156C200.433 79.6168 185.358 72.1187 169.643 64.3037C150.24 54.6554 130.178 44.6789 103.447 47.4105C86.3779 49.155 75.6639 56.1063 66.2112 62.2394C57.6524 67.7924 49.5605 72.676 38.6013 73.0929C20.89 73.7665 14.7452 66.2127 14.6426 65.7518V60.9045C14.6648 60.9884 18.5318 69.4666 38.5823 69.3662C48.4565 69.3166 55.7442 64.5882 64.1826 59.1133C73.9892 52.7505 85.1041 45.5393 103.068 43.7031C130.87 40.8617 151.425 51.0825 171.302 60.9666C192.101 71.3091 211.948 81.0085 237.044 72.5937V76.5789C229.89 78.9775 224.169 79.6154 217.776 79.6156Z" fill="url(#paint0_linear_120_9556)"/>
</g>
</g>
<mask id="mask1_120_9556" style="mask-type:alpha" maskUnits="userSpaceOnUse" x="-6" y="12" width="276" height="85">
<path d="M8.03027 54.4485C9.74717 53.007 21.5647 43.429 33.734 42.2883C46.8983 41.0541 57.1828 42.6996 64.1763 47.2248C71.1698 51.75 92.9731 68.6167 99.5552 71.9078C106.137 75.1988 122.181 80.5468 141.516 63.2687C160.851 45.9907 183.889 34.472 194.996 34.472C206.103 34.472 223.381 30.7696 252.589 66.9712" stroke="#019002" stroke-width="43"/>
</mask>
<g mask="url(#mask1_120_9556)">
<g opacity="0.22">
<path d="M113.68 78.6866C100.88 78.6877 90.7271 70.0781 80.7875 61.6507C73.2512 55.2613 65.4318 48.728 56.4063 45.5058C28.8608 35.6711 14.7685 53.6294 14.6426 53.7871V48.3242C14.7913 48.1376 17.3053 44.8735 24.5777 41.7569C31.1989 38.9194 42.3078 36.6559 57.6306 41.9858C67.3384 45.3624 75.4004 52.1978 83.1973 58.8083C99.0138 72.2179 112.673 83.7983 136.395 65.6588C154.362 51.9197 171.299 38.8274 187.963 34.0443C204.263 29.3663 221.255 32.7908 237.161 48.6969L237.044 53.6577C203.256 19.7212 174.487 41.2221 138.659 68.6191C129.168 75.8761 120.991 78.6858 113.68 78.6866Z" fill="url(#paint1_linear_120_9556)"/>
</g>
</g>
<g opacity="0.32">
<path d="M180.926 45.9648H71.1329C67.9852 45.9648 65.4336 43.4132 65.4336 40.2655V5.69929C65.4336 2.5516 67.9852 0 71.1329 0H180.927C184.074 0 186.626 2.5516 186.626 5.69929V40.2655C186.626 43.4132 184.074 45.9648 180.926 45.9648Z" fill="#19A5FF"/>
</g>
<path d="M70.6365 124.561H69.8545V42.5195H70.6365V124.561Z" fill="#0B132A"/>
<path d="M126.235 124.561H125.453V42.5195H126.235V124.561Z" fill="#0B132A"/>
<path d="M181.836 124.561H181.054V42.5195H181.836V124.561Z" fill="#0B132A"/>
<path d="M27.9612 34.5484H14.6436V32.4097H27.9612V34.5484Z" fill="#0B132A"/>
<path d="M33.5342 38.5014H14.6436V36.3628H33.5342V38.5014Z" fill="#0B132A"/>
<path d="M83.8475 34.3526H69.6445V32.4097H83.8475V34.3526Z" fill="#0B132A"/>
<path d="M78.726 37.9437H69.6445V36.001H78.726V37.9437Z" fill="#0B132A"/>
<path d="M129.853 34.3526H121.052V32.4097H129.853V34.3526Z" fill="#0B132A"/>
<path d="M137.527 38.5014H126.234V36.3628H137.527V38.5014Z" fill="#0B132A"/>
<path d="M195.949 34.5484H181.836V32.4097H195.949V34.5484Z" fill="#0B132A"/>
<path d="M193.129 38.5014H181.836V36.3628H193.129V38.5014Z" fill="#0B132A"/>
<path d="M79.0891 132.272H70.2432V129.421H79.0891V132.272Z" fill="#0B132A"/>
<path d="M135.081 132.272H126.234V129.421H135.081V132.272Z" fill="#0B132A"/>
<path d="M190.682 132.272H181.836V129.421H190.682V132.272Z" fill="#0B132A"/>
<path d="M134.756 6.56599H92.4434V2.84668H134.756V6.56599Z" fill="#FF9900"/>
<path d="M134.757 16.1509H98.6865V12.4316H134.757V16.1509Z" fill="#FF9900"/>
<path d="M128.793 25.1131H76.1045V21.7344H128.793V25.1131Z" fill="#FF9900"/>
<path d="M149.516 28.4793C151.602 34.305 157.171 37.8816 163.04 37.7033C164.46 37.66 165.899 37.3969 167.31 36.8917C171.584 35.3613 174.648 31.9553 175.906 27.9323C176.778 25.144 176.783 22.0597 175.722 19.0973C175.616 18.8027 175.502 18.5127 175.379 18.2297C174.821 16.9466 174.09 15.786 173.221 14.766C169.577 10.4854 163.533 8.678 157.928 10.6845C150.691 13.2756 146.925 21.2425 149.516 28.4793Z" stroke="#FEE719" stroke-width="19.2" stroke-miterlimit="10"/>
<path d="M173.998 27.3368L177.797 28.5217C176.36 33.1174 172.859 37.0084 167.977 38.7567C166.364 39.3339 164.721 39.6345 163.098 39.684L162.978 35.706C164.195 35.6685 165.427 35.4433 166.635 35.0105C170.296 33.7003 172.921 30.7831 173.998 27.3368Z" fill="#15456E"/>
<path d="M173.549 19.0276L177.197 17.4382C177.338 17.7614 177.469 18.0925 177.589 18.4291C178.801 21.8135 178.795 25.337 177.799 28.5222L174 27.3373C174.747 24.9497 174.751 22.3079 173.843 19.7707C173.752 19.5182 173.654 19.2702 173.549 19.0276Z" fill="#1B5C91"/>
<path d="M174.728 13.4807C175.721 14.646 176.557 15.9719 177.194 17.4377L173.545 19.0271C173.068 17.9278 172.441 16.9335 171.697 16.0598L174.728 13.4807Z" fill="#2273B5"/>
<path d="M128.758 131.848L129.689 134.453C129.689 134.453 124.811 136.191 122.898 135.639L122.259 132.982L128.758 131.848Z" fill="#EEA886"/>
<path d="M79.9544 85.3003C79.9544 85.3003 97.3567 85.4535 99.4904 85.7555C101.803 86.0827 110.858 86.3752 111.951 88.0339C122.987 104.783 130.191 132.206 130.191 132.206L121.469 133.923C121.469 133.923 113.034 117.577 109.501 109.085C106.329 101.461 103.614 99.5014 96.9528 99.6695C90.2912 99.8377 68.987 98.3697 56.7031 96.8476L79.9544 85.3003Z" fill="#CB128D"/>
<path d="M129.687 134.453C129.687 134.453 133.733 136.279 135.541 136.913C137.348 137.547 143.968 136.834 144.703 137.402C145.438 137.97 145.469 140.117 144.405 140.493C143.34 140.869 135.434 142.819 132.677 142.541C129.92 142.263 125.068 144.123 123.91 143.882C122.752 143.641 122.651 137.138 122.896 135.639C123.14 134.14 129.687 134.453 129.687 134.453Z" fill="black"/>
<path d="M118.209 134.063L118.78 136.772C118.78 136.772 113.745 137.878 111.906 137.087L111.564 134.367L118.209 134.063Z" fill="#EEA886"/>
<path d="M79.6185 84.915C79.6185 84.915 97.021 85.0681 99.1546 85.37C101.468 85.6975 110.727 85.855 111.615 87.6489C117.939 100.419 119.359 134.506 119.359 134.506L111.224 135.489C111.224 135.489 107.226 118.189 105.972 109.95C104.719 101.71 103.151 100.513 96.4897 100.681C89.8282 100.849 63.7377 107.519 56.3672 95.6786L79.6185 84.915Z" fill="#DC70BC"/>
<path d="M118.779 136.772C118.779 136.772 122.596 139.099 124.321 139.958C126.046 140.817 132.697 140.95 133.365 141.608C134.032 142.265 133.826 144.401 132.727 144.639C131.629 144.877 123.562 145.809 120.856 145.183C118.149 144.556 113.126 145.787 112.003 145.4C110.88 145.014 111.497 138.543 111.905 137.086C112.314 135.629 118.779 136.772 118.779 136.772Z" fill="black"/>
<path d="M95.7564 144.677H45.2969V100.22H95.7564V144.677Z" fill="#0B132A"/>
<path d="M91.9329 79.1174C91.9329 79.1174 93.5624 79.6352 94.3564 79.7476C95.1503 79.8599 99.019 78.5923 100.181 78.8806C101.343 79.1689 108.676 83.2789 108.999 83.5553C109.323 83.8316 108.752 84.3014 108.752 84.3014L91.0706 82.577L91.9329 79.1174Z" fill="#EEA886"/>
<path d="M78.1142 44.9594C78.1142 44.9594 83.2773 56.0729 82.8593 60.201C82.4413 64.3286 78.0001 75.7716 77.6866 78.0704C77.3731 80.3696 79.6199 84.9151 79.6199 84.9151L56.3686 95.6788C56.3686 95.6788 55.4316 88.8739 56.3686 81.0368C57.3055 73.1998 57.996 64.7761 59.0296 60.3468C62.5564 45.2336 71.8869 38.9697 71.8869 38.9697L78.1142 44.9594Z" fill="#CB128D"/>
<path d="M71.8877 38.9697C71.8877 38.9697 82.1523 57.5179 81.8849 54.8888C81.6759 52.8337 77.2309 42.9062 77.2309 42.9062L71.8877 38.9697Z" fill="#CB128D"/>
<path d="M64.634 55.5067C64.6656 53.3544 65.8347 44.0564 71.079 44.6461C76.323 45.2359 75.772 51.5256 75.3283 56.2701C74.864 61.2345 72.3968 73.418 73.2209 74.0364C74.0454 74.6547 80.2768 76.4672 81.6151 76.7229C82.9533 76.9787 91.0276 78.8852 91.6913 79.0639C92.34 79.2384 91.0707 82.3837 91.0707 82.3837C91.0707 82.3837 68.7514 81.924 65.0031 80.1881C61.2547 78.4522 64.634 55.5067 64.634 55.5067Z" fill="#EEA886"/>
<path d="M64.2395 55.9143L76.2046 56.242C76.2046 56.242 77.9533 43.7801 71.0802 44.0795C64.2073 44.3792 64.2395 55.9143 64.2395 55.9143Z" fill="#DC70BC"/>
<path d="M113.562 86.1917L84.0391 84.9987L84.1483 82.2944L113.672 83.4874L113.562 86.1917Z" fill="#807066"/>
<path d="M123.558 58.3835L113.571 86.1923L111.024 85.2776L121.011 57.4688L123.558 58.3835Z" fill="#807066"/>
<path d="M92.7421 29.6022C92.7421 29.6022 92.8192 34.1989 91.5694 34.2601C90.5367 34.3108 90.4343 38.729 90.3615 39.4218C90.2887 40.1147 88.4087 39.6718 87.8636 39.8598C87.3185 40.0476 83.9088 44.0675 82.4678 43.4956C81.027 42.9241 75.9668 37.5817 75.1912 34.9641C74.4157 32.3465 77.1237 23.7404 79.9695 20.9922C82.8152 18.2439 92.5722 21.5548 92.7421 29.6022Z" fill="#EEA886"/>
<path d="M79.9442 39.9818C79.9442 39.9818 79.7528 40.3629 79.4673 40.9571C79.2567 41.3948 78.9956 41.9472 78.7212 42.5484C77.9783 44.1778 77.1444 46.1628 76.9924 47.1586C76.7082 49.0199 71.8789 38.9858 71.8789 38.9858C71.8789 38.9858 74.5702 33.5308 76.5721 27.0306C78.5732 20.5301 79.9442 39.9818 79.9442 39.9818Z" fill="#EEA886"/>
<path d="M92.7246 30.5815C92.7246 30.5815 96.7123 27.7248 94.6098 22.9857C92.5073 18.2465 83.2654 19.867 82.419 19.6732C81.5724 19.4789 77.2458 17.5884 75.4714 26.1231C73.6969 34.6577 74.3799 33.4209 74.3799 33.4209C74.3799 33.4209 76.9675 29.9494 78.4741 30.7117C79.9807 31.4743 82.6943 32.0483 82.6943 32.0483C82.6943 32.0483 83.1696 28.0267 85.3972 28.576C87.6249 29.1254 91.1059 28.7994 92.7246 30.5815Z" fill="#434343"/>
<path d="M81.583 29.0288C81.6475 28.4766 82.1098 26.2007 79.8042 26.4839C77.4985 26.7671 78.3251 31.9375 78.5967 32.1394C78.8686 32.3412 81.0416 33.6745 81.583 29.0288Z" fill="#EEA886"/>
<defs>
<linearGradient id="paint0_linear_120_9556" x1="14.8092" y1="61.4175" x2="237.21" y2="61.4175" gradientUnits="userSpaceOnUse">
<stop stop-color="#FFC05C"/>
<stop offset="0.5" stop-color="#FF7C5A"/>
<stop offset="1" stop-color="#FF3857"/>
</linearGradient>
<linearGradient id="paint1_linear_120_9556" x1="14.8092" y1="55.2465" x2="237.328" y2="55.2465" gradientUnits="userSpaceOnUse">
<stop stop-color="#40D5E6"/>
<stop offset="0.5" stop-color="#4AA6F3"/>
<stop offset="1" stop-color="#5577FF"/>
</linearGradient>
</defs>
</svg>
