<svg width="166" height="168" viewBox="0 0 166 168" fill="none" xmlns="http://www.w3.org/2000/svg">
<path fill-rule="evenodd" clip-rule="evenodd" d="M141.962 25.6157C161.015 43.7048 166.336 70.6816 164.937 96.9102C163.597 122.042 156.11 148.773 134.689 161.981C114.763 174.268 90.8646 162.249 68.1416 156.595C45.1451 150.873 17.6493 150.627 6.0326 129.971C-6.30752 108.029 2.44669 81.3908 12.9963 58.5424C24.2874 34.0886 38.9757 8.76041 65.0756 2.09702C92.3915 -4.87721 121.512 6.1999 141.962 25.6157Z" fill="#FFC46B"/>
<path d="M99.2498 16.2792C100.21 16.0701 101.193 16.4404 102.097 16.8257C119.4 24.1984 132.901 39.9475 137.543 58.1745C142.185 76.4014 137.861 96.6899 126.191 111.441C114.522 126.192 95.7725 135.068 76.9669 134.745C76.5845 136.93 76.2021 139.114 75.8201 141.298C75.8194 139.447 75.7899 137.488 74.8186 135.912C73.8474 134.336 71.5718 133.413 70.0843 134.514C68.0519 136.941 69.6224 141.34 72.7327 141.931C72.1242 143.357 69.7787 142.913 68.9899 141.577C68.2015 140.242 68.3804 138.579 68.259 137.032C68.1375 135.486 67.4239 133.708 65.9029 133.405C61.3875 132.504 56.9587 131.17 52.6973 129.427C49.9391 128.299 46.7602 126.083 47.4065 123.174C47.8841 121.026 50.4262 119.875 52.6083 120.164C54.7901 120.453 56.6725 121.784 58.4557 123.074C59.3859 119.86 60.3161 116.645 61.2463 113.431C58.3185 113.567 57.4966 109.277 55.0297 107.694C43.7435 100.453 36.2195 87.6551 35.3818 74.2718C34.5438 60.8889 40.4129 47.2519 50.7082 38.6602C61.0034 30.0685 75.4702 26.734 88.4874 29.9529C90.0321 28.0528 92.9192 27.395 95.1344 28.4381C97.2059 27.3812 97.0999 24.4498 96.8396 22.1391C96.5796 19.8287 96.9778 16.7745 99.2498 16.2792ZM62.7224 124.1C61.8696 123.155 62.7063 123.714 62.7063 123.714L62.7224 124.206V124.431C62.7224 124.431 60.6555 123.631 59.663 123.307C76.6397 129.042 96.3958 125.706 110.548 114.715C124.7 103.724 132.823 85.408 131.469 67.5398C130.116 49.672 119.326 32.7895 103.679 24.0559C103.306 23.8478 102.888 23.6368 102.47 23.7277C101.934 23.8439 101.629 24.397 101.393 24.8926C100.608 26.5449 99.8225 28.1969 99.0371 29.8489C100.887 30.9353 101.876 33.3084 101.344 35.3871C111.933 42.0981 119.306 53.6596 120.925 66.0907C122.544 78.5217 118.378 91.5863 109.861 100.785C101.345 109.984 88.6397 115.143 76.1211 114.486C73.1873 114.332 70.0271 113.925 67.4991 115.422C64.5759 117.152 63.5259 120.799 62.7224 124.1Z" fill="white"/>
<path d="M58.438 46.9929C58.1997 46.9962 58.0967 47.2913 58.0586 47.5263C57.9132 48.4207 57.7681 49.3154 57.6227 50.2099C58.741 50.1872 60.0014 50.1006 60.7291 49.2508C59.7273 49.0821 58.9783 47.9996 59.1739 47.0024C59.53 47.5529 60.0119 48.0216 60.5715 48.3629C60.8502 48.533 61.1725 48.699 61.2815 49.0069C61.4617 49.516 60.9549 49.9863 60.5127 50.2962C60.0706 50.6064 59.5763 51.1004 59.7851 51.5983C59.3761 51.1266 58.7774 50.8246 58.1551 50.7761C57.7989 50.7482 57.4054 50.7899 57.1205 50.5742C56.6613 50.2266 56.8182 49.5039 57.0716 48.9869C57.3253 48.4703 57.6342 47.8575 57.3496 47.3569C57.1366 46.9821 56.638 46.7973 56.5257 46.3811C56.362 45.7745 57.1133 45.3514 57.7218 45.1962C58.1456 45.0878 58.5916 44.992 59.016 45.0974C59.4401 45.2024 59.8313 45.5707 59.8156 46.0076C59.6137 46.5734 59.0387 46.9847 58.438 46.9929ZM59.4309 45.8346C58.823 45.4906 58.0126 45.5454 57.4563 45.9682C57.2738 46.107 57.1074 46.3499 57.218 46.5508C58.0103 46.6013 58.8184 46.3397 59.4309 45.8346Z" fill="black"/>
<path d="M102.374 78.929C102.107 78.8233 101.869 78.6428 101.695 78.413C102.341 78.1311 102.871 77.5924 103.142 76.9419C103.315 76.528 103.933 76.5208 104.304 76.7719C104.675 77.0233 104.907 77.4336 105.245 77.7283C105.583 78.0231 106.146 78.1708 106.456 77.8468C106.817 77.4687 107.517 77.7733 107.701 78.263C107.885 78.7524 107.723 79.2963 107.562 79.7932C107.468 80.0821 107.365 80.3847 107.14 80.5888C106.915 80.7933 106.528 80.8518 106.32 80.6302C105.504 79.7607 103.876 79.9019 103.223 80.8987C102.569 80.5048 102.211 79.6747 102.374 78.929ZM103.554 77.5875C102.97 78.1777 102.772 79.1177 103.068 79.893C103.136 80.0719 103.365 80.2619 103.483 80.1116C104.026 79.421 105.014 79.119 105.85 79.3885C106.008 79.4394 106.149 79.2303 106.103 79.0705C106.058 78.9109 105.909 78.8069 105.77 78.7163C105.173 78.3283 104.576 77.9407 103.979 77.5527C103.91 77.5074 103.833 77.4605 103.751 77.4687C103.673 77.4762 103.609 77.5317 103.554 77.5875ZM106.768 80.4004C107.012 79.8408 107.177 79.247 107.257 78.6421C107.275 78.5082 107.209 78.3073 107.084 78.3589C106.345 78.7005 106.167 79.8516 106.768 80.4004Z" fill="black"/>
<path d="M83.7829 79.2647C82.6738 78.412 81.2686 77.7283 80.8065 76.4081C80.0201 74.1627 77.5252 72.9893 76.2904 70.9559C75.2476 69.2393 75.2161 67.089 75.5272 65.1049C76.3075 60.1332 79.381 55.2984 84.0885 53.5187C86.3349 52.6692 88.7864 52.5508 91.1878 52.5757C93.2543 52.5967 95.3907 52.7349 97.2318 53.674C99.0725 54.613 100.551 56.546 100.357 58.6033C100.279 59.4314 99.9426 60.2258 99.9272 61.0572C99.8849 63.3357 102.117 64.9063 104.09 66.0459C105.993 67.1448 107.896 68.2434 109.799 69.3423C110.781 69.9095 110.916 71.2474 110.936 72.3811C110.993 75.4822 111.05 78.583 111.106 81.6838C111.117 82.3035 111.127 82.9327 110.968 83.5314C110.795 84.1777 110.433 84.7547 110.076 85.3206C106.519 90.9599 102.659 96.8772 96.657 99.7807C95.3431 100.417 93.9574 100.889 92.5758 101.36C91.2849 101.8 89.994 102.24 88.703 102.68C87.7495 103.005 86.7662 103.334 85.7601 103.277C84.7545 103.22 83.7074 102.682 83.3542 101.739C83.1491 101.191 83.1983 100.583 83.284 100.005C83.5758 98.0345 84.2618 96.1236 85.2895 94.4175C86.7232 92.0368 87.5851 89.2606 87.418 86.4868C87.2513 83.7126 85.986 80.9587 83.7829 79.2647ZM79.3643 72.6913C82.0367 75.177 84.4114 77.9823 86.4212 81.029C87.1134 82.0783 87.7692 83.1703 88.1385 84.372C88.8544 86.7024 88.4287 89.2442 87.6015 91.5372C86.774 93.8303 85.5612 95.9644 84.6428 98.2226C84.1341 99.4729 83.8193 101.146 84.8871 101.972C85.7654 102.652 87.0268 102.299 88.0696 101.918C89.6342 101.346 91.1989 100.774 92.7636 100.202C94.0617 99.7276 95.3638 99.2516 96.5963 98.626C102.229 95.7675 105.836 90.1478 109.172 84.7836C109.474 84.2978 109.78 83.8041 109.937 83.254C110.1 82.6823 110.094 82.0777 110.087 81.4826C110.056 78.8597 110.025 76.2365 109.994 73.6136C109.983 72.6906 109.963 71.7302 109.546 70.907C108.802 69.4388 107.066 68.8461 105.572 68.1541C103.331 67.1156 101.327 65.5713 99.7506 63.6699C99.3446 63.1795 98.956 62.6432 98.8309 62.0189C98.6087 60.9091 99.2576 59.8188 99.3541 58.691C99.512 56.8443 98.1183 55.1444 96.4381 54.3626C94.7576 53.5811 92.8424 53.524 90.9892 53.5092C89.2322 53.4951 87.4532 53.5095 85.7529 53.9533C80.6906 55.2747 77.2262 60.3223 76.4831 65.5014C76.2723 66.9705 76.2566 68.5336 76.9134 69.8646C77.4684 70.9897 78.4455 71.8366 79.3643 72.6913Z" fill="black"/>
<path d="M54.9915 151.002C56.9662 152.203 59.3123 152.601 61.6001 152.928C65.2392 153.449 68.8957 153.849 72.5613 154.127C77.2836 154.485 82.3104 154.573 86.4179 152.216C86.7215 152.042 87.031 151.842 87.1971 151.533C87.7009 150.598 86.5508 149.584 85.5044 149.397C84.458 149.21 83.2488 149.318 82.4841 148.579C84.0241 147.814 85.962 147.919 87.4105 148.847C88.8586 149.774 89.7649 151.49 89.7146 153.209C89.6733 154.618 89.0401 155.975 89.1054 157.383C89.1855 159.101 87.4344 160.293 85.8359 160.928C80.7556 162.945 75.1353 162.997 69.6696 162.917C64.8269 162.846 59.7971 162.646 55.4937 160.425C54.4115 159.866 53.354 159.145 52.756 158.085C52.2186 157.132 52.1064 156.007 52.005 154.918C51.8011 152.729 51.6728 150.281 53.0829 148.594C54.4276 146.985 56.7246 146.62 58.8154 146.469C59.8254 146.396 60.1805 145.055 59.996 144.06C59.8116 143.064 59.3721 142.004 59.8053 141.089C60.6706 139.262 63.6755 140.16 65.2198 138.857C65.7325 138.424 66.5564 139.194 66.3571 139.835C66.1579 140.475 65.4053 140.775 64.7344 140.788C64.0638 140.8 63.3959 140.616 62.7276 140.677C62.0596 140.738 61.3388 141.165 61.2824 141.833C67.44 144.304 74.3929 144.746 80.8137 143.074C79.7085 141.721 77.9384 140.939 76.1942 141.033C76.2224 140.603 76.7036 140.359 77.128 140.281C79.0501 139.926 81.029 141.27 81.7652 143.081C82.5014 144.892 82.1565 147.009 81.2384 148.735C80.4037 148.475 80.4697 147.295 80.6046 146.431C80.7395 145.568 80.3844 144.321 79.526 144.487C73.6609 145.623 67.4981 145.182 61.8545 143.222C61.4238 143.072 61.1501 143.678 61.0976 144.131C60.901 145.824 60.8005 147.796 62.0521 148.954C62.6665 149.521 63.5022 149.774 64.3136 149.979C68.7237 151.093 73.3619 151.294 77.8518 150.566C78.4803 150.464 79.2809 150.421 79.5874 150.979C76.1857 152.521 72.2656 152.171 68.55 151.789C66.794 151.608 65.0029 151.419 63.3922 150.695C61.822 149.99 60.4933 148.806 58.8876 148.184C57.2822 147.562 55.1314 147.724 54.256 149.207C54.1591 149.37 54.0804 149.549 54.0669 149.738C54.0272 150.287 54.5215 150.716 54.9915 151.002ZM88.0492 157.78C88.7641 156.181 88.1056 154.347 87.8946 152.609C83.0161 155.941 76.6009 155.653 70.7256 155.036C67.3192 154.679 63.92 154.255 60.5304 153.764C58.3323 153.445 56.0232 153.05 54.3049 151.642C53.8437 151.264 53.3307 152.056 53.2545 152.647C53.0323 154.367 52.8393 156.238 53.7328 157.724C54.7122 159.354 56.7009 160.032 58.5469 160.487C66.6716 162.49 75.2706 162.542 83.4185 160.635C85.251 160.206 87.2808 159.499 88.0492 157.78Z" fill="black"/>
<path d="M98.0896 15.9511C99.0496 15.742 100.033 16.1122 100.937 16.4976C118.24 23.8703 131.741 39.6194 136.383 57.8463C141.024 76.0733 136.701 96.3618 125.031 111.112C113.362 125.863 94.6126 134.74 75.8067 134.417C75.4243 136.601 75.0422 138.786 74.6599 140.97C74.6595 139.119 74.6297 137.159 73.6584 135.584C72.6875 134.008 70.4116 133.084 68.924 134.186C66.8916 136.613 68.4626 141.012 71.5725 141.602C70.9643 143.029 68.6185 142.585 67.8301 141.249C67.0413 139.914 67.2205 138.25 67.0988 136.704C66.9773 135.158 66.2637 133.38 64.7427 133.077C60.2273 132.176 55.7988 130.842 51.537 129.099C48.7793 127.971 45.6004 125.755 46.2466 122.846C46.7239 120.698 49.2664 119.547 51.4481 119.836C53.6302 120.125 55.5122 121.456 57.2955 122.746C58.2257 119.532 59.1559 116.317 60.0861 113.103C57.1583 113.238 56.3364 108.949 53.8698 107.366C42.5833 100.125 35.0596 87.3269 34.2216 73.9437C33.384 60.5608 39.2527 46.9238 49.548 38.3321C59.8432 29.7403 74.3103 26.4058 87.3276 29.6248C88.8719 27.7247 91.7593 27.0669 93.9745 28.11C96.0457 27.0531 95.9397 24.1217 95.6797 21.811C95.4194 19.5005 95.8176 16.4464 98.0896 15.9511ZM116.233 85.9625C121.308 72.6282 118.922 56.7218 110.159 45.4629C109.524 44.6472 108.807 43.8184 107.826 43.4909C105.612 42.7507 103.397 42.0105 101.182 41.2701C101.423 42.2042 100.676 43.163 99.7737 43.5043C98.8717 43.846 97.8696 43.7301 96.9129 43.6084C95.2087 43.3914 93.4497 43.1521 91.9779 42.2659C90.5065 41.3797 89.3908 39.664 89.7469 37.9835C90.0318 36.6407 88.3864 35.7804 87.0643 35.4118C83.613 34.4498 80.1617 33.4877 76.71 32.5257C75.9577 32.316 75.1529 32.0721 74.672 31.4566C74.1915 30.8409 74.286 29.7367 75.0262 29.4863C69.2421 29.6409 63.4977 31.1264 58.3642 33.7956C62.4566 35.917 66.6274 38.0954 69.8313 41.4096C72.3442 44.0088 74.2335 47.493 73.9286 51.0956C73.6647 54.2171 71.7613 57.0402 69.2818 58.9551C66.8024 60.8697 63.7892 61.9709 60.7508 62.7347C56.2685 63.8611 50.8379 64.0387 47.7539 60.5962C46.8568 59.5948 45.2534 59.8544 43.953 60.1961C41.7588 60.7732 39.5645 61.3499 37.3707 61.9269C36.8596 62.0611 36.2412 62.3221 36.2238 62.8502C36.171 64.4513 37.3578 66.0074 38.9156 66.3806C40.4737 66.7538 42.2363 65.9037 42.9148 64.4523C43.3234 63.5779 44.5549 63.4417 45.4576 63.784C46.3599 64.1263 47.1069 64.7973 48.0046 65.1521C49.4272 65.7137 51.0975 65.432 52.4738 66.1C54.7691 67.2143 55.1601 70.3404 54.7222 72.854C53.9095 77.5194 51.2643 81.8406 47.4791 84.686C44.9951 86.5533 45.4261 90.4235 46.6763 93.2686C47.9265 96.1133 49.7853 98.9742 49.3514 102.051C47.6465 98.4871 46.2033 94.7978 45.0365 91.0231C44.3925 88.9409 44.0242 86.2379 45.7993 84.9735C49.5706 82.2863 52.3691 78.2629 53.576 73.7921C54.2991 71.1124 53.9397 67.453 51.2833 66.6475C50.2537 66.3353 49.115 66.5671 48.0926 66.2326C47.2366 65.9523 46.5506 65.304 45.7284 64.9354C44.9062 64.5672 43.7488 64.5987 43.3149 65.3881C41.8365 68.0782 37.2998 68.1885 35.6927 65.5732C33.8268 78.897 38.8736 93.0011 48.7691 102.116C58.6646 111.232 73.1346 115.106 86.2611 112.155C99.3874 109.203 110.806 99.5079 115.847 87.0342C114.447 86.4095 113.653 84.8616 113.448 83.3419C113.244 81.8219 113.517 80.2845 113.668 78.7585C113.973 75.6892 113.782 72.5714 113.104 69.5625C112.922 68.7534 112.565 67.8114 111.752 67.6437C109.315 67.1402 107.001 66.0445 105.067 64.4769C103.598 63.2864 102.365 60.9264 103.794 59.6887C104.46 59.112 103.515 58.1621 103.171 57.351C102.444 55.639 104.67 54.2328 106.449 53.69C108.535 53.0535 110.621 52.4171 112.707 51.781C112.932 51.712 113.17 51.6428 113.399 51.6986C114.064 51.8611 114.017 52.9347 113.458 53.3289C112.898 53.7234 112.152 53.6594 111.468 53.643C108.746 53.5784 106.012 54.5745 103.97 56.3752C104.879 57.3796 105.112 58.94 104.539 60.1666C103.847 61.6436 104.828 63.4351 106.184 64.3404C107.541 65.2456 109.195 65.5542 110.717 66.1387C112.239 66.7233 113.773 67.7621 114.142 69.3504C114.888 72.5681 115.051 75.9203 114.619 79.1954C114.293 81.667 113.987 84.879 116.233 85.9625ZM61.5622 123.772C60.7098 122.827 60.9202 121.33 61.4519 120.174C61.9833 119.018 62.7861 117.96 63.0113 116.707C63.2361 115.455 62.5577 113.893 61.2891 113.796C60.3602 116.857 59.4316 119.918 58.5027 122.979C75.4794 128.714 95.2356 125.378 109.388 114.387C123.541 103.395 131.663 85.0799 130.309 67.2117C128.955 49.3439 118.166 32.4614 102.519 23.7278C102.146 23.5197 101.728 23.3087 101.31 23.3996C100.774 23.5158 100.469 24.0688 100.233 24.5645C99.4478 26.2168 98.6626 27.8688 97.8772 29.5207C99.7274 30.6072 100.716 32.9803 100.184 35.059C110.773 41.77 118.146 53.3315 119.765 65.7626C121.384 78.1936 117.218 91.2582 108.701 100.457C100.185 109.656 87.4795 114.815 74.9608 114.158C72.0271 114.004 68.8669 113.597 66.3389 115.094C63.4157 116.824 62.3657 120.471 61.5622 123.772ZM101.532 17.9454C100.567 17.5151 99.5167 17.1012 98.4798 17.307C97.4426 17.5125 96.5216 18.6114 96.8994 19.5984C115.077 27.0196 128.647 44.7024 131.113 64.1812C133.579 83.66 124.844 104.166 109.088 115.883C93.3332 127.6 71.1806 130.065 53.2353 122.098C51.4924 121.324 49.1127 120.6 47.963 122.122C47.2553 123.058 47.4923 124.458 48.2062 125.39C48.9197 126.322 50.0013 126.888 51.0611 127.393C70.2048 136.515 94.1866 134.518 111.557 122.354C128.928 110.19 139.006 88.3369 136.979 67.2278C134.952 46.1187 120.9 26.5821 101.532 17.9454ZM36.9801 61.0807C39.2137 60.4709 41.4473 59.861 43.6812 59.2512C45.2216 58.8304 47.1296 58.5077 48.1934 59.6989C49.9117 61.622 52.5723 62.5019 55.1509 62.5508C57.7294 62.5998 60.2614 61.9049 62.7143 61.1083C66.0573 60.0222 69.6189 58.49 71.219 55.3603C72.1594 53.5209 73.1254 51.567 72.9977 49.505C72.8799 47.6042 71.8486 45.8981 70.8462 44.2793C70.0036 42.9188 69.1394 41.5333 67.9088 40.5109C65.8085 38.7663 62.8419 38.2464 60.9231 36.3046C59.814 35.1821 58.0518 34.9083 56.5127 35.2575C54.9739 35.6068 53.6134 36.4897 52.3435 37.4265C45.063 42.7983 39.5757 50.5586 36.9377 59.2131C36.749 59.8324 36.5914 60.5624 36.9801 61.0807ZM100.384 40.888C101.097 39.8633 102.707 40.2201 103.769 40.8762C104.831 41.5323 105.975 42.4208 107.184 42.1107C100.579 35.4112 91.7311 30.9623 82.414 29.656C80.0018 29.3179 77.2365 29.2966 75.5028 31.0073C79.8413 32.3084 84.1798 33.6098 88.5184 34.9109C89.0892 35.0823 89.6918 35.2733 90.0824 35.7233C90.7697 36.514 90.5242 37.7153 90.7152 38.7456C90.9903 40.2302 92.2376 41.3859 93.6315 41.9666C95.0255 42.5472 96.5646 42.6503 98.0715 42.7464C98.5954 42.7799 99.1793 42.7944 99.5748 42.4494C100.021 42.0604 100.046 41.3735 100.384 40.888ZM99.0664 34.3122C99.4721 33.4257 99.1067 32.3376 98.4335 31.6326C97.76 30.9275 96.8364 30.5261 95.9318 30.1634C94.3451 29.527 92.699 28.9463 90.9903 28.9004C90.5619 28.8889 90.0906 28.9286 89.7834 29.227C89.4758 29.5257 89.5044 30.1605 89.9143 30.2845C93.1126 31.2518 96.1931 32.6074 99.0664 34.3122ZM67.8918 113.141C64.7818 112.561 61.7548 111.538 58.9304 110.114C58.6967 109.996 58.4479 109.872 58.1876 109.896C57.927 109.921 57.67 110.165 57.7357 110.418C57.7803 110.589 57.9467 110.696 58.0994 110.786C59.7231 111.741 61.3606 112.701 63.1419 113.313C64.9236 113.924 66.8815 114.17 68.6956 113.664C68.6349 113.328 68.2272 113.204 67.8918 113.141ZM99.2935 21.9524C99.0493 21.5947 98.4772 21.6206 98.1388 21.8907C97.8004 22.1608 97.6376 22.5889 97.4892 22.9955C96.8702 24.6968 96.2511 26.398 95.6321 28.0992C95.5753 28.2558 95.5172 28.4189 95.5359 28.584C95.5891 29.0642 96.2708 29.2381 96.6841 28.988C97.0973 28.7379 97.2936 28.2525 97.4633 27.8002C98.0581 26.2135 98.6531 24.6268 99.2479 23.0402C99.3808 22.686 99.5069 22.2646 99.2935 21.9524Z" fill="black"/>
</svg>
