<svg width="36" height="31" viewBox="0 0 36 31" fill="none" xmlns="http://www.w3.org/2000/svg">
<path fill-rule="evenodd" clip-rule="evenodd" d="M2 5C2 3.34314 3.34314 2 5 2H22.6589C24.3158 2 25.6589 3.34315 25.6589 5V9.5932L22.465 12.7872C22.1708 12.4435 21.7339 12.2256 21.246 12.2256H8.41652C7.53083 12.2256 6.81284 12.9436 6.81284 13.8293C6.81284 14.715 7.53083 15.433 8.41652 15.433H19.8192L16.6031 18.6491C16.5478 18.6433 16.4917 18.6404 16.4349 18.6404H8.41652C7.53083 18.6404 6.81284 19.3583 6.81284 20.244C6.81284 21.1297 7.53083 21.8477 8.41652 21.8477H14.4473L13.8259 24.4667C13.4822 25.9153 14.7851 27.2181 16.2336 26.8744L16.2702 26.8657C16.5716 26.9443 16.8996 26.9531 17.2354 26.8735L20.67 26.0586C21.0307 25.973 21.3605 25.7889 21.6226 25.5268L25.6589 21.4904V25.8663C25.6589 27.5232 24.3158 28.8663 22.6589 28.8663H5C3.34315 28.8663 2 27.5232 2 25.8663V5ZM27.6589 19.4904V25.8663C27.6589 28.6277 25.4204 30.8663 22.6589 30.8663H5C2.23858 30.8663 0 28.6277 0 25.8663V5C0 2.23857 2.23858 0 5 0H22.6589C25.4204 0 27.6589 2.23858 27.6589 5V8.59403L29.0083 7.24463C29.7894 6.46358 31.0557 6.46358 31.8368 7.24463L34.4565 9.86439C35.2376 10.6454 35.2376 11.9118 34.4565 12.6928L27.6589 19.4904ZM27.1285 17.1924L33.0423 11.2786L30.4226 8.65884L17.5886 21.4928L16.8332 24.6766L19.2066 24.1135L25.9518 17.3683C26.2378 17.0823 26.668 16.9967 27.0416 17.1515C27.0714 17.1638 27.1004 17.1775 27.1285 17.1924ZM6.81284 7.41457C6.81284 6.52888 7.53083 5.81088 8.41652 5.81088H21.246C22.1317 5.81088 22.8497 6.52888 22.8497 7.41457C22.8497 8.30026 22.1317 9.01825 21.246 9.01825H8.41652C7.53083 9.01825 6.81284 8.30026 6.81284 7.41457Z" fill="#FF9900"/>
</svg>
