<svg width="159" height="164" viewBox="0 0 159 164" fill="none" xmlns="http://www.w3.org/2000/svg">
<path d="M7.80978 46.3047L7.81196 47.08L0.717289 51.1762L0.714844 50.4009L7.80978 46.3047Z" fill="#79AEF5"/>
<path d="M4.29682 46.5347L4.29899 47.31L0.712137 49.381L0.709961 48.6055L4.29682 46.5347Z" fill="#79AEF5"/>
<path d="M2.09435 45.5659L2.09679 46.3485L0.70432 47.1521L0.702148 46.3697L2.09435 45.5659Z" fill="#79AEF5"/>
<path d="M134.086 31.0913L134.084 31.8666L141.178 35.9628L141.181 35.1875L134.086 31.0913Z" fill="#79AEF5"/>
<path d="M137.598 31.3218L137.596 32.0971L141.182 34.1681L141.185 33.3926L137.598 31.3218Z" fill="#79AEF5"/>
<path d="M139.798 30.353L139.796 31.1356L141.188 31.9392L141.19 31.1568L139.798 30.353Z" fill="#79AEF5"/>
<path d="M3.6084 57.7358V75.5213L17.0314 84.2464" stroke="#79AEF5" stroke-width="0.9" stroke-miterlimit="10"/>
<path d="M5.11651 56.4778C5.11651 57.3582 4.40289 58.0719 3.52248 58.0719C2.64206 58.0719 1.92871 57.3582 1.92871 56.4778C1.92871 55.5974 2.64206 54.8838 3.52248 54.8838C4.40289 54.8838 5.11651 55.5974 5.11651 56.4778Z" stroke="#79AEF5" stroke-width="0.9" stroke-miterlimit="10"/>
<path d="M150.717 105.958C161.711 112.305 161.768 122.593 150.847 128.94L99.5797 158.733C88.6581 165.081 70.896 165.081 59.9029 158.734L8.30042 128.941C-2.69268 122.594 -2.75055 112.306 8.17111 105.959L59.4381 76.1656C70.3598 69.8185 88.1218 69.8185 99.115 76.1654L150.717 105.958Z" fill="#A5DBFF"/>
<path d="M150.846 101.231L99.5791 131.024C88.6574 137.371 70.8953 137.371 59.9022 131.024L8.29974 101.231C2.76788 98.0375 0.00520329 93.8457 0.016884 89.6602L3.85711e-05 95.5894C-0.0119074 99.775 2.75103 103.967 8.2829 107.161L59.8854 136.953C70.8785 143.3 88.6406 143.3 99.5622 136.953L150.829 107.16C156.255 104.007 158.971 99.8812 158.983 95.7492L159 89.8196C158.988 93.9517 156.272 98.0778 150.846 101.231Z" fill="#A6D0F4"/>
<path d="M150.717 78.2492C161.711 84.5961 161.768 94.8845 150.847 101.232L99.5797 131.025C88.6581 137.372 70.896 137.372 59.9029 131.025L8.30042 101.232C-2.69268 94.8853 -2.75055 84.5969 8.17111 78.2498L59.4381 48.4566C70.3598 42.1096 88.1218 42.1096 99.115 48.4564L150.717 78.2492Z" fill="white"/>
<g opacity="0.43">
<path d="M98.2021 118.059L111.494 117.97L139.179 102.366L123.826 94.8159L98.2021 118.059Z" fill="#A6D0F4"/>
</g>
<path d="M99.5419 36.0367C99.5419 36.0367 98.4665 36.2876 97.4166 38.8058C96.3667 41.3241 93.6708 45.7734 94.2344 47.9341C94.7981 50.0946 97.2593 49.1678 98.0712 47.6757C98.8831 46.1837 102.229 39.2276 101.822 38.1079C101.415 36.9882 100.617 35.786 99.5419 36.0367Z" fill="#DC70BC"/>
<g opacity="0.35">
<path d="M100.034 91.8107C100.034 95.3563 95.51 98.2306 89.9295 98.2306C84.349 98.2306 79.8252 95.3563 79.8252 91.8107C79.8252 88.2654 84.349 85.3911 89.9295 85.3911C95.51 85.3911 100.034 88.2654 100.034 91.8107Z" fill="#A6D0F4"/>
</g>
<g opacity="0.35">
<path d="M127.456 78.3084C127.456 84.6604 119.352 89.8095 109.355 89.8095C99.3573 89.8095 91.2529 84.6604 91.2529 78.3084C91.2529 71.9567 99.3573 66.8076 109.355 66.8076C119.352 66.8076 127.456 71.9567 127.456 78.3084Z" fill="#A6D0F4"/>
</g>
<path d="M95.642 75.6232C95.8549 77.9901 98.0827 79.5977 100.093 80.4637C102.281 81.4069 104.688 81.7875 107.063 81.7571C109.487 81.7258 111.961 81.2621 114.147 80.1869C116.054 79.2487 118.078 77.5462 118.072 75.231C118.076 76.9168 117.958 78.3098 116.743 79.626C115.179 81.3205 112.824 82.2333 110.609 82.6907C106.288 83.5828 100.403 83.1517 97.1206 79.8248C95.7998 78.4864 95.6194 77.0749 95.6143 75.2948C95.6189 75.4048 95.6278 75.5143 95.642 75.6232Z" fill="#ADCDFC"/>
<path d="M98.9315 71.3145C94.5324 73.8544 94.5039 77.9729 98.8744 80.5128C103.245 83.0527 110.361 83.053 114.76 80.5131C119.159 77.9731 119.177 73.8547 114.806 71.3147C110.436 68.7748 103.331 68.7746 98.9315 71.3145Z" fill="white"/>
<path d="M105.651 67.8853L105.67 77.2357L106.846 77.9189L106.827 68.5685L105.651 67.8853Z" fill="#C7D8F2"/>
<path d="M106.826 68.568L106.845 77.9184L108.029 77.2352L108.01 67.8848L106.826 68.568Z" fill="#7BAEFF"/>
<path d="M105.104 66.1804L106.821 67.1784L108.549 66.1804L106.832 65.1826L105.104 66.1804Z" fill="#4DA5DC"/>
<path d="M117.987 34.3546C117.987 34.3546 121.523 36.4322 122.462 38.5437C123.401 40.6555 123.149 55.4713 118.222 62.0411C113.295 68.6107 104.144 69.5495 102.032 68.611C99.9206 67.6724 87.72 61.5717 86.7814 58.5216C85.8429 55.4716 90.5353 53.1253 93.1163 51.9521C95.6972 50.7791 97.3396 49.1364 98.7476 44.9131C100.155 40.6898 100.859 33.4161 102.501 32.2431C104.144 31.0698 108.133 29.1927 117.987 34.3546Z" fill="black"/>
<path d="M100.465 66.5206C98.7437 65.7554 90.3183 61.5597 86.7548 58.3828C86.0004 55.4012 90.5763 53.1076 93.1173 51.9526C95.6983 50.7796 97.3409 49.1369 98.7486 44.9136C100.156 40.6903 100.86 33.4166 102.503 32.2433C104.145 31.0704 108.134 29.1933 117.988 34.3551C117.988 34.3551 119.6 35.304 120.937 36.5699C121.824 39.0321 121.506 53.4833 116.655 59.951C111.728 66.5209 102.577 67.4591 100.465 66.5206Z" fill="#232839"/>
<path d="M93.1696 89.4067C93.1696 89.4067 92.9795 90.1785 92.5185 91.0605C92.0575 91.9426 90.3939 93.1251 89.6925 93.7265C88.9911 94.3279 88.1194 95.4406 88.2096 95.9717C88.2998 96.5028 89.9935 96.6332 91.3265 96.3422C92.6592 96.0516 93.8216 94.5681 94.2125 94.598C94.6034 94.6278 96.0665 94.3475 96.3672 93.8463C96.6679 93.3451 96.1665 91.3406 96.1665 91.3406L96.1464 89.8976L93.1696 89.4067Z" fill="#232839"/>
<path d="M86.6362 85.2251C86.6362 85.2251 86.446 85.9966 85.985 86.8786C85.524 87.7607 83.8607 88.9434 83.1593 89.5449C82.4579 90.1463 81.5862 91.2587 81.6764 91.7898C81.7666 92.3208 83.4603 92.451 84.793 92.1603C86.126 91.8694 87.2881 90.3864 87.679 90.4163C88.0699 90.4465 89.533 90.1656 89.8337 89.6644C90.1345 89.1632 89.633 87.159 89.633 87.159L89.6129 85.716L86.6362 85.2251Z" fill="#232839"/>
<path d="M111.403 56.4779C111.403 56.4779 111.577 59.2653 110.009 61.5303C108.441 63.7953 101.995 69.5448 101.298 70.0675C100.601 70.5901 100.427 74.4228 99.7298 76.1652C99.033 77.9075 96.9424 89.2318 96.5939 90.1029C96.5939 90.1029 96.2454 90.9741 93.8062 90.4515C92.4124 90.2774 92.2383 89.7544 92.2383 89.7544C92.2383 89.7544 93.1092 77.0363 93.8062 74.0746C94.5033 71.1128 94.6771 67.8024 95.8969 66.5827C97.1166 65.363 103.04 57.6974 103.04 57.6974L104.434 55.4326L111.403 56.4779Z" fill="#DC70BC"/>
<path d="M100.603 53.6904C100.603 53.6904 91.1947 58.9172 89.888 60.0932C88.5814 61.2692 87.6665 62.8374 87.4051 64.2747C87.3006 64.8495 86.3598 85.0507 85.9679 85.9654C85.8372 86.7493 88.3201 87.272 89.496 86.88C90.1494 86.488 90.672 85.704 90.672 85.704C90.672 85.704 93.0239 73.5518 93.0239 71.8532C93.0239 70.1546 94.0693 65.0584 94.0693 65.0584L104.915 58.9172L105.699 56.173L100.603 53.6904Z" fill="#DC70BC"/>
<path d="M111.055 58.2636C111.055 58.2636 110.141 60.8768 106.351 60.4848C105.045 60.2235 105.044 60.2235 105.044 60.2235L104.783 58.1329C104.783 58.1329 102.562 57.8716 101.124 56.6956C100.602 56.9569 100.471 58.2636 99.9485 58.3942C99.4259 58.5249 98.5112 56.6953 98.7725 55.3887C99.0339 54.0821 99.6872 54.6047 99.6872 54.6047C99.6872 54.6047 110.402 57.2182 111.055 58.2636Z" fill="#CB128D"/>
<path d="M107.052 34.5992C107.052 34.5992 111.523 37.7941 111.966 38.8568C112.408 39.9195 112.502 42.8772 111.581 44.8488C110.659 46.8204 110.996 54.0754 110.664 55.4942C110.332 56.913 106.505 57.361 104.137 56.903C101.769 56.445 98.905 54.7322 98.9943 51.9709C99.0837 49.2096 99.0253 44.061 98.8751 42.8171C98.7246 41.573 98.8879 38.4493 99.4654 36.3551C99.5871 35.9132 101.074 35.4492 101.074 35.4492C101.074 35.4492 102.644 34.4123 107.052 34.5992Z" fill="#C7BFCE"/>
<path d="M103.163 33.997C103.163 33.997 103.175 34.0527 103.161 34.1412C103.112 34.4686 102.949 35.3069 102.919 35.657C102.889 35.9925 103.27 36.5739 104.176 36.5557C105.082 36.5372 106.619 36.1582 107.131 35.0787C107.09 34.8866 107.155 32.8873 107.282 31.8906L103.163 33.997Z" fill="#E16B40"/>
<path d="M107.172 34.3945C107.172 34.3945 106.453 36.6044 104.008 36.5479C103.955 36.5465 103.901 36.5444 103.846 36.5408L105.08 38.526C105.08 38.526 106.957 37.3992 107.548 36.7554C108.138 36.1116 108.085 35.1994 108.085 35.1994L107.172 34.3945Z" fill="white"/>
<path d="M103.846 36.5411L102.558 37.7752C102.558 37.7752 101.592 36.9703 102.182 35.0924L102.987 34.7705C102.987 34.7705 102.88 35.8435 103.846 36.5411Z" fill="white"/>
<path d="M108.086 35.1997C108.086 35.1997 108.757 35.8435 107.872 37.4533C106.986 39.0631 106.02 41.7994 105.94 44.8577C105.86 47.9162 105.457 57.4934 105.86 59.5862C106.665 60.3104 110.528 59.6666 111.655 57.7349C112.137 54.9179 111.896 46.3868 112.459 44.6162C113.023 42.8455 112.861 39.6262 112.54 38.7409C112.137 37.8556 109.025 35.4412 108.086 35.1997Z" fill="#CB128D"/>
<path d="M101.86 35.1465C101.86 35.1465 101.109 37.8828 101.216 41.0486C101.216 44.2141 100.304 57.3598 100.143 57.6279C99.9825 57.8963 98.1046 56.2327 98.0508 54.3013C97.997 52.3696 98.6946 40.5118 98.8019 39.3315C98.9092 38.1512 99.2846 36.1657 99.553 35.9511C99.8211 35.7365 101.539 35.2003 101.86 35.1465Z" fill="#CB128D"/>
<path d="M102.795 37.1905L103.375 38.414L104.598 37.448L103.848 36.541L102.795 37.1905Z" fill="#113C7A"/>
<path d="M103.114 37.641C103.114 37.641 101.961 52.347 101.961 52.9911L102.734 54.3433L103.764 53.2486L104.145 37.5122L103.114 37.641Z" fill="#CB128D"/>
<path d="M40.0615 87.1016L37.9329 85.8645L37.875 61.5649L40.0034 62.802L40.0615 87.1016Z" fill="#CB6A50"/>
<path d="M40.0034 62.8024L37.875 61.5653L66.7989 44.8662L68.9275 46.103L40.0034 62.8024Z" fill="#DBDBDB"/>
<path d="M68.93 46.103L68.9881 70.4026L40.064 87.102L40.0059 62.8024L68.93 46.103Z" fill="#F58688"/>
<path d="M42.0786 58.1841L42.0205 82.4834L99.9959 115.698L100.054 91.3981L42.0786 58.1841Z" fill="#F5A588"/>
<path d="M42.0459 71.7761L100.021 104.99L100.054 91.3981L42.0785 58.1841L42.0459 71.7761Z" fill="#CF7A68"/>
<path d="M98.1975 118.059L96.0691 116.822L96.0107 92.5229L98.1394 93.7598L98.1975 118.059Z" fill="#CB6A50"/>
<path d="M98.1394 93.7599L96.0107 92.5231L124.935 75.8237L127.064 77.0605L98.1394 93.7599Z" fill="#DBDBDB"/>
<path d="M127.066 77.061L127.124 101.361L98.1997 118.06L98.1416 93.7604L127.066 77.061Z" fill="#F5B99C"/>
<path d="M131.036 76.4277L131.03 78.7131L98.2334 97.7723L98.2399 95.4872L131.036 76.4277Z" fill="#E18B70"/>
<path d="M98.2405 95.487L98.234 97.7721L33.0469 60.1365L33.0534 57.8511L98.2405 95.487Z" fill="#D78C63"/>
<path d="M131.036 76.4276L98.2399 95.4871L33.0527 57.8512L65.8495 38.792L131.036 76.4276Z" fill="#FFC5A8"/>
<path d="M100.01 79.8367L106.632 83.6851L117.347 77.4988L110.724 73.6504L100.01 79.8367Z" fill="#E18B70"/>
<path d="M98.793 77.5508L98.7976 79.1921L105.42 83.0405L105.415 81.3992L98.793 77.5508Z" fill="#CBDCEB"/>
<path d="M105.416 81.3987L105.421 83.04L116.136 76.8537L116.131 75.2124L105.416 81.3987Z" fill="#A6D0F4"/>
<path d="M98.793 77.5507L105.415 81.3992L116.13 75.2129L109.508 71.3647L98.793 77.5507Z" fill="white"/>
<path d="M54.708 60.2053L61.33 64.0535L72.0449 57.8675L65.4227 54.019L54.708 60.2053Z" fill="#E18B70"/>
<path d="M53.4932 57.9199L53.4978 59.5612L60.1198 63.4097L60.1152 61.7684L53.4932 57.9199Z" fill="#CBDCEB"/>
<path d="M60.1133 61.7683L60.1179 63.4096L70.8326 57.2233L70.8282 55.582L60.1133 61.7683Z" fill="#A6D0F4"/>
<path d="M53.4932 57.9199L60.1152 61.7683L70.8301 55.5821L64.2078 51.7339L53.4932 57.9199Z" fill="white"/>
<path d="M90.5723 72.1811L97.1943 76.0296L107.909 69.8433L101.287 65.9951L90.5723 72.1811Z" fill="white"/>
<path d="M96.7606 88.346L99.1641 87.0136L95.7666 85.252L96.7606 88.346Z" fill="#E18B70"/>
<path d="M97.5043 84.3655L98.166 84.1221L97.4242 88.1025L96.7627 88.3459L97.5043 84.3655Z" fill="#656874"/>
<path d="M86.6426 78.2893L87.3043 78.0459L98.1632 84.1219L97.5015 84.3653L86.6426 78.2893Z" fill="#9C9EA5"/>
<path d="M97.5029 84.3655L96.7613 88.346L85.9023 82.27L86.6439 78.2896L97.5029 84.3655Z" fill="#232839"/>
<path d="M59.2426 51.3978C60.1646 51.93 60.1695 52.7919 59.2557 53.323C58.3418 53.8541 56.8543 53.8538 55.9323 53.3216C55.0125 52.7906 55.0076 51.9289 55.9214 51.3978C56.8353 50.8667 58.3228 50.8667 59.2426 51.3978Z" fill="#E18B70"/>
<path d="M59.5171 46.6543L59.5024 51.874C59.5016 52.1962 59.2897 52.5175 58.8673 52.7631C58.0162 53.2578 56.6305 53.2578 55.7721 52.762C55.341 52.5132 55.1259 52.1861 55.127 51.8599L55.1416 46.6401C55.1408 46.9667 55.356 47.2932 55.7871 47.542C56.6457 48.0378 58.0312 48.038 58.8822 47.5434C59.3047 47.2978 59.516 46.9764 59.5171 46.6543Z" fill="white"/>
<path d="M58.8699 45.7507C59.7286 46.2464 59.733 47.0492 58.8822 47.5436C58.0311 48.0382 56.6457 48.038 55.787 47.5422C54.9305 47.0475 54.9259 46.2454 55.7769 45.7507C56.628 45.2563 58.0134 45.2563 58.8699 45.7507Z" fill="#CBDCEB"/>
<path d="M58.5282 45.9486C59.1967 46.3346 59.2 46.9594 58.5374 47.3446C57.8749 47.7298 56.7959 47.7298 56.1274 47.3438C55.4605 46.9586 55.4572 46.3338 56.1198 45.9486C56.7823 45.5634 57.8613 45.5634 58.5282 45.9486Z" fill="#E18B70"/>
<path d="M55.6433 46.8026C55.6433 46.8026 54.5456 43.1546 54.1582 42.6059C54.1582 42.1215 55.159 42.7026 55.5463 43.6066C55.9337 44.5104 56.2887 46.5442 56.2887 46.5442C56.2887 46.5442 56.2241 41.8632 57.0312 40.8301C57.5478 40.9591 57.2251 46.0922 57.1605 46.4796C57.1605 46.4796 58.7746 43.0579 59.84 42.3475C60.3241 42.4122 58.2903 46.6409 58.2903 46.6409C58.2903 46.6409 59.1297 45.0591 60.6471 44.7687C60.6471 44.7687 59.4526 46.4796 58.9683 46.9316C58.9683 46.9316 58.4196 47.7707 56.9668 47.6094C56.9668 47.6094 55.966 47.545 55.6433 46.8026Z" fill="#4CA15C"/>
<g opacity="0.35">
<path d="M38.998 107.513C38.998 113.243 46.3089 117.888 55.3272 117.888C64.3456 117.888 71.6563 113.243 71.6563 107.513C71.6563 101.783 64.3456 97.1382 55.3272 97.1382C46.3089 97.1382 38.998 101.783 38.998 107.513Z" fill="#A6D0F4"/>
</g>
<path d="M62.1621 109.756C62.1621 109.756 61.5134 112.351 61.9027 112.87C62.292 113.389 63.4601 113.779 64.3682 113.519C65.2766 113.259 65.9253 112.092 65.9253 112.092C65.9253 112.092 68.1311 110.794 68.6502 110.016C69.1691 109.237 68.6502 108.588 68.6502 108.588C68.6502 108.588 67.4824 108.458 66.4444 108.718C65.4064 108.977 63.8491 109.626 63.8491 109.626L62.1621 109.756Z" fill="#232839"/>
<path d="M55.5452 106.122C55.5452 106.122 54.8962 108.717 55.2855 109.236C55.6748 109.755 56.8426 110.145 57.751 109.885C58.6594 109.626 59.3081 108.458 59.3081 108.458C59.3081 108.458 61.5139 107.16 62.033 106.382C62.5521 105.603 62.033 104.954 62.033 104.954C62.033 104.954 60.8652 104.825 59.8272 105.084C58.7892 105.343 57.2319 105.992 57.2319 105.992L55.5452 106.122Z" fill="#232839"/>
<path d="M60.3284 94.9228C60.0084 97.4839 58.7279 104.206 58.5144 106.554C58.5144 106.554 57.9808 107.408 56.3803 107.194L55.6205 106.878C55.3143 106.75 55.1307 106.436 55.1717 106.107C55.3328 104.812 55.6946 101.552 55.5265 99.618C55.313 97.1636 55.9532 95.6696 55.9532 95.6696C55.9 94.8693 55.7932 92.0952 57.3938 91.3482C57.3938 91.3482 61.3153 90.628 60.3284 94.9228Z" fill="#CB128D"/>
<path d="M57.0733 92.5224L57.5001 93.3762C57.5001 93.3762 64.0629 93.6962 65.8234 95.617C65.8234 95.617 67.888 96.382 67.568 98.9431C67.248 101.504 65.0764 107.675 64.8629 110.023C64.8629 110.023 64.3294 110.876 62.7288 110.663L61.9693 110.346C61.6631 110.219 61.4795 109.904 61.5205 109.575C61.6813 108.281 62.0434 105.021 61.8753 103.087C61.6618 100.632 62.302 99.1384 62.302 99.1384C62.302 99.1384 59.4209 99.6719 56.3263 100.953C53.2319 102.233 50.5641 100.739 49.3903 100.099C48.2165 99.4584 47.7897 99.0317 47.7897 99.0317C47.7897 99.0317 46.2956 99.0317 44.9086 97.8579C43.5213 96.6841 43.308 93.5897 44.8018 91.7756C46.2956 89.9616 57.0733 92.5224 57.0733 92.5224Z" fill="#DC70BC"/>
<path d="M54.7262 76.3025C54.7262 76.3025 54.523 76.3107 54.5928 74.8943C54.9147 73.4994 55.1983 73.1642 55.1983 73.1642C55.1983 73.1642 52.9629 71.6331 51.1736 72.0651C51.1736 72.0651 50.0685 74.3081 48.8184 75.2684C48.8184 75.2684 49.8175 77.9031 54.7262 76.3025Z" fill="#FF8654"/>
<path d="M52.4049 77.1028C52.4049 77.1028 48.4834 73.8213 47.6831 73.7414C46.7228 73.6613 45.5221 73.9816 45.2021 75.342C44.8821 76.7027 45.6026 77.7431 46.3227 78.1432C47.0428 78.5434 53.3655 81.5845 54.4858 81.5845C55.6063 81.5845 56.3265 80.6239 55.6063 79.4235C54.8862 78.2231 52.4049 77.1028 52.4049 77.1028Z" fill="#DC70BC"/>
<path d="M51.2053 74.915C51.2053 74.915 55.3669 76.302 56.5407 78.2229C57.7145 80.1434 57.5013 82.2778 56.6475 85.2657C55.794 88.2535 57.501 90.9211 57.0742 92.5217C56.6475 94.1222 53.6596 95.6163 49.2847 94.8693C44.9098 94.1222 44.5892 92.4149 44.2692 91.4546C43.9492 90.4944 45.123 85.9059 44.056 82.1713C42.989 78.4364 45.123 75.8756 45.9766 75.2353C46.8301 74.595 48.5374 73.7412 51.2053 74.915Z" fill="#CB128D"/>
<path d="M55.1798 76.7296C55.1798 76.7296 54.0593 77.4497 51.2583 77.0496C48.4573 76.6495 48.297 74.6488 48.5372 74.4888C48.7773 74.3288 49.2573 73.6885 49.2573 73.6885C49.2573 73.6885 52.2186 75.0489 53.259 75.449C54.2994 75.8492 54.8595 76.0893 54.8595 76.0893L55.1798 76.7296Z" fill="white"/>
<path d="M43.0688 111.89C43.2142 113.505 44.734 114.601 46.105 115.192C47.5983 115.835 49.2396 116.095 50.8597 116.074C52.5133 116.053 54.2013 115.736 55.6924 115.003C56.9936 114.363 58.3744 113.201 58.37 111.622C58.3733 112.772 58.2926 113.723 57.4638 114.621C56.3968 115.777 54.7905 116.399 53.2793 116.711C50.3311 117.32 46.3169 117.025 44.0775 114.756C43.1764 113.843 43.0533 112.88 43.0498 111.666C43.0531 111.741 43.0593 111.815 43.0688 111.89Z" fill="#ADCDFC"/>
<path d="M45.3126 108.504C42.3117 110.237 42.2924 113.046 45.2738 114.779C48.2554 116.512 53.1095 116.512 56.1104 114.779C59.1116 113.047 59.1238 110.237 56.1422 108.504C53.1608 106.771 48.3135 106.772 45.3126 108.504Z" fill="white"/>
<path d="M49.3496 105.001L49.3684 111.698L50.5397 112.378L50.521 105.682L49.3496 105.001Z" fill="#C7D8F2"/>
<path d="M50.5215 105.682L50.5402 112.378L51.7195 111.697L51.7004 105.001L50.5215 105.682Z" fill="#7BAEFF"/>
<path d="M49.3496 105.002L50.521 105.682L51.6999 105.002L50.5286 104.321L49.3496 105.002Z" fill="#4DA5DC"/>
<path d="M35.5495 80.1249C35.5835 79.1964 36.5044 78.5656 37.381 78.8731C41.2088 80.2159 50.1295 85.4106 50.6932 86.538C51.2302 87.6123 52.9655 93.6131 53.8201 96.6191C54.067 97.4879 55.0683 97.8858 55.8461 97.427L61.1487 94.2998C62.1573 93.7049 63.4017 94.559 63.2091 95.714L62.3578 100.822C62.2899 101.23 62.0427 101.585 61.6844 101.791L56.011 105.051C52.84 106.872 48.9676 106.984 45.697 105.349L41.3232 103.162C37.4981 101.249 35.1429 96.0416 35.2993 91.7678L35.5495 80.1249Z" fill="#13D1FF"/>
<path d="M50.6913 86.5383C51.2284 87.6127 52.9639 93.6134 53.8183 96.6195C54.0652 97.4882 55.0665 97.8862 55.8442 97.4274L61.1468 94.3002C62.1555 93.7053 63.3999 94.5593 63.2073 95.7144L62.3559 100.823C62.3361 100.942 62.2964 101.054 62.2478 101.162C62.1802 101.269 62.112 101.374 62.043 101.48C61.9406 101.601 61.8232 101.71 61.6825 101.791L56.0091 105.051C54.8071 105.741 53.504 106.185 52.1713 106.382C47.5693 102.811 48.1495 87.9047 49.8185 86.653C50.0657 86.4677 50.2833 86.3522 50.4756 86.29C50.5799 86.3808 50.6544 86.4642 50.6913 86.5383Z" fill="#3AAEEF"/>
<path d="M57.3883 68.3457C57.3883 70.8701 55.342 72.9164 52.8178 72.9164C50.2934 72.9164 48.2471 70.8701 48.2471 68.3457C48.2471 65.8212 50.2934 63.7749 52.8178 63.7749C55.342 63.7749 57.3883 65.8212 57.3883 68.3457Z" fill="#FF8654"/>
<path d="M57.3875 68.6504C57.3875 68.6504 57.4429 73.2287 56.4457 74.1529C55.4485 75.077 53.9175 73.2877 51.4696 72.7142C49.0218 72.0851 53.454 67.3247 53.454 67.3247L57.3875 68.6504Z" fill="#FF8654"/>
<path d="M48.9736 64.5942C48.9736 64.5942 53.8597 61.7601 56.5961 64.1055C59.3324 66.4509 56.2051 67.428 55.7164 68.112C55.2278 68.7961 55.7164 69.35 55.4559 69.8387C55.1954 70.3273 55.1302 70.4249 55.1302 70.4249L55.2929 71.0114L54.9998 71.2719C54.9998 71.2719 54.6089 70.1644 54.2506 70.197C53.8923 70.2296 53.5989 70.9462 53.7293 71.3697C53.8597 71.7932 54.218 72.2493 54.1528 72.5424C54.0876 72.8355 53.697 73.6499 53.3387 73.6825C52.9804 73.7151 51.3516 73.3565 50.7977 73.0634C50.2438 72.7703 48.5501 71.4349 47.8987 69.8061C47.2472 68.1775 48.1592 66.8418 48.1592 66.8418C48.1592 66.8418 47.7033 65.4086 48.9736 64.5942Z" fill="#96432A"/>
<path d="M85.9017 39.1451C85.9017 39.1451 85.4781 38.8238 85.287 38.6565C85.0959 38.4892 84.3452 37.8612 83.9764 37.568C83.6075 37.2749 82.6035 37.1404 82.3977 37.0693C82.1919 36.9981 81.201 36.905 81.0204 37.0544C80.8398 37.2041 81.0441 37.4131 81.0441 37.4131C81.0441 37.4131 80.6931 38.0291 80.8947 38.5134C81.0962 38.9977 81.8516 39.2121 81.8516 39.2121C81.8516 39.2121 82.2485 39.4506 82.7001 39.7171C83.1517 39.9836 83.9915 40.0339 83.9915 40.0339L84.4831 40.4248C84.4831 40.4248 84.9762 40.678 85.9017 39.1451Z" fill="#FF8654"/>
<path d="M85.0127 41.147C85.0127 41.147 86.3178 40.1553 86.4911 39.4134L85.767 38.8684C85.767 38.8684 85.108 39.9495 84.2773 40.354L85.0127 41.147Z" fill="white"/>
<path d="M85.0123 41.1466C85.0123 41.1466 85.1721 41.6442 85.8268 42.2572C86.4814 42.8702 88.3974 44.0614 89.1586 45.0061C89.9198 45.9509 91.9403 47.6805 93.4183 48.5777C94.8963 49.4751 96.6377 48.9149 96.6377 48.9149C97.1679 48.287 97.3753 46.9391 96.4511 45.7724C95.5268 44.6056 93.7495 43.347 92.0255 42.2542C90.3014 41.1614 87.0143 39.4047 87.0143 39.4047L86.356 39.1359C86.356 39.1359 86.3177 40.1549 85.0123 41.1466Z" fill="#DC70BC"/>
<path d="M112.319 38.2273C112.319 38.2273 113.19 38.9241 113.886 41.1019C114.584 43.2797 115.019 50.8585 115.019 51.991C115.019 53.1235 115.019 54.4301 114.061 55.04C113.102 55.6498 111.97 55.5626 111.36 54.4301C110.751 53.2976 110.315 46.8511 109.879 44.8477C109.444 42.844 108.747 40.8406 109.618 39.534C110.489 38.2273 111.621 38.0532 112.319 38.2273Z" fill="#DC70BC"/>
<path d="M102.433 60.2666C102.433 60.2666 101.998 60.5717 101.78 60.7023C101.562 60.833 100.735 61.3556 100.343 61.617C99.9509 61.8783 99.5152 62.7929 99.3845 62.9671C99.2538 63.1412 98.8619 64.0561 98.9491 64.274C99.0363 64.4918 99.2976 64.3609 99.2976 64.3609C99.2976 64.3609 99.7768 64.8836 100.299 64.8401C100.822 64.7966 101.258 64.143 101.258 64.143C101.258 64.143 101.606 63.8382 101.998 63.4897C102.39 63.1412 102.695 62.3575 102.695 62.3575L103.217 62.009C103.217 62.009 103.609 61.6167 102.433 60.2666Z" fill="#FF8654"/>
<path d="M104.065 61.7255C104.065 61.7255 103.521 60.1796 102.867 59.7876L102.127 60.3102C102.127 60.3102 102.954 61.2684 103.085 62.183L104.065 61.7255Z" fill="white"/>
<path d="M104.066 61.7258C104.066 61.7258 104.589 61.7258 105.373 61.2903C106.157 60.8549 107.877 59.3956 109.01 58.9601C110.142 58.5247 112.407 57.1308 113.714 55.9983C115.02 54.8658 115.02 53.0365 115.02 53.0365C114.585 52.3397 113.365 51.7299 111.972 52.2525C110.578 52.7752 108.836 54.0818 107.268 55.3885C105.7 56.6951 103.021 59.2869 103.021 59.2869L102.563 59.8313C102.563 59.8313 103.522 60.1795 104.066 61.7258Z" fill="#DC70BC"/>
<path d="M101.26 27.8083C101.737 25.2594 103.757 23.8123 106.041 24.3466C106.041 24.3466 108.516 24.5946 109.617 26.7694C110.717 28.9442 109.101 30.7727 108.066 31.9259C107.63 32.3994 107.301 32.7645 107.092 32.9973C107.017 33.085 106.943 33.1744 106.864 33.254C106.85 33.2703 106.842 33.2793 106.842 33.2793L106.84 33.2771C106.133 33.9834 105.322 34.3835 104.723 34.562C103.727 34.8584 102.549 34.6889 101.914 34.0106C101.278 33.3325 100.783 30.3574 101.26 27.8083Z" fill="#FF8654"/>
<path d="M101.348 27.3611C101.348 27.3611 100.521 26.1667 100.888 24.8799C101.256 23.5934 102.91 24.1445 103.829 24.0527C104.748 23.9609 108.332 24.0529 109.527 25.6152C110.63 27.1774 110.17 27.9125 110.17 27.9125C110.17 27.9125 110.354 29.1072 109.895 30.1183C109.435 31.1294 107.095 32.9975 107.095 32.9975C107.095 32.9975 108.425 31.313 108.516 30.4859C108.608 29.6587 108.149 29.1993 107.873 29.3832C107.597 29.5671 107.413 31.1291 107.413 31.1291L107.285 31.8898C106.678 31.6809 106.862 30.3941 106.862 30.3941C106.862 30.3941 106.402 29.7505 106.218 29.0154C106.035 28.2804 105.943 27.9125 105.208 27.545C104.472 27.1775 103.002 26.2582 101.348 27.3611Z" fill="#505E83"/>
<path d="M96.334 64.8682C97.8509 65.744 97.8528 67.158 96.3519 68.03L86.6581 73.6634C85.1575 74.5354 82.7165 74.5392 81.1996 73.6634L71.4428 68.0302C69.9324 67.1582 69.9243 65.7405 71.4249 64.8685L81.1184 59.2351C82.6193 58.3631 85.0668 58.3631 86.5772 59.2351L96.334 64.8682Z" fill="#E18B70"/>
<path d="M87.6876 66.3398C87.6868 66.342 87.6862 66.3444 87.6854 66.3466C87.6762 66.3727 87.662 66.3979 87.6449 66.4229C87.6425 66.4265 87.6403 66.4303 87.6376 66.4338C87.6202 66.4572 87.5982 66.48 87.5738 66.5017C87.5588 66.5147 87.5406 66.5267 87.5232 66.5389C87.5029 66.5533 87.4841 66.5685 87.4602 66.5818L83.4406 68.8143L79.1024 66.3096L79.1016 66.6117L83.4398 69.1163L87.4591 66.8839C87.467 66.8796 87.4749 66.8752 87.4828 66.8706C87.498 66.8614 87.5091 66.8508 87.523 66.841C87.5401 66.8288 87.5583 66.8171 87.5729 66.804C87.5759 66.8013 87.58 66.7992 87.583 66.7964C87.6012 66.7796 87.6172 66.7625 87.6311 66.7448C87.6333 66.7418 87.6346 66.7391 87.6368 66.7361C87.6395 66.7326 87.6417 66.7288 87.6441 66.7253C87.6504 66.7163 87.6572 66.7071 87.6623 66.6978C87.6707 66.6832 87.6775 66.6685 87.6832 66.6536C87.6838 66.6519 87.6841 66.6503 87.6846 66.6487C87.6854 66.6465 87.686 66.644 87.6865 66.6419C87.69 66.6313 87.6936 66.6204 87.6957 66.6095C87.6987 66.5946 87.7004 66.5799 87.7009 66.565C87.7009 66.5626 87.7009 66.5601 87.7009 66.5579L87.702 66.2559C87.702 66.2841 87.6965 66.3121 87.6876 66.3398Z" fill="#BAC0D2"/>
<path d="M87.4731 65.9356C87.7831 66.1146 87.7779 66.4069 87.4604 66.5819L83.4408 68.8143L79.1025 66.3097L82.4971 63.7247C82.7956 63.5361 83.3063 63.5299 83.6198 63.7108L87.4731 65.9356Z" fill="white"/>
<path d="M93.4237 56.4588C93.7627 56.6549 94.0825 57.1104 94.1371 57.4764L96.216 71.4516C96.2706 71.8175 96.0386 71.9542 95.6996 71.7581L74.4927 59.4982C74.1537 59.3024 73.8356 58.8479 73.781 58.482L71.7024 44.5065C71.6478 44.1406 71.8778 44.0031 72.2169 44.1992L93.4237 56.4588Z" fill="#C7C9D7"/>
<path d="M96.5624 71.3205C96.5624 71.3173 96.5627 71.3143 96.563 71.311C96.563 71.3023 96.5627 71.2931 96.5624 71.2839C96.5622 71.2749 96.5619 71.2657 96.5611 71.2561C96.5605 71.2472 96.5595 71.2382 96.5584 71.2293C96.5573 71.2206 96.5562 71.2121 96.5548 71.2032L94.4759 57.2276C94.4759 57.2271 94.4756 57.2265 94.4756 57.226C94.4743 57.217 94.4726 57.2078 94.471 57.1986C94.4694 57.1893 94.4675 57.1801 94.4656 57.1709C94.4637 57.1616 94.4612 57.1521 94.4591 57.1429C94.4569 57.1336 94.4542 57.1241 94.4517 57.1149C94.4493 57.1057 94.4466 57.0964 94.4436 57.0872V57.0869C94.4436 57.0869 94.4433 57.0864 94.4433 57.0861C94.4403 57.0766 94.4373 57.0668 94.4341 57.0573C94.4308 57.0478 94.4275 57.038 94.424 57.0285C94.4205 57.019 94.417 57.009 94.4131 56.9994C94.4096 56.9902 94.4058 56.9812 94.402 56.972C94.3982 56.9628 94.3944 56.9538 94.3903 56.9446C94.3901 56.9438 94.3895 56.9432 94.3892 56.9424C94.389 56.9421 94.389 56.9416 94.389 56.9413C94.386 56.9345 94.383 56.9277 94.3797 56.9207C94.3762 56.9128 94.3724 56.9052 94.3686 56.8973C94.3651 56.89 94.3615 56.8826 94.358 56.8756C94.3547 56.8693 94.3515 56.8628 94.3482 56.8566C94.345 56.8503 94.342 56.8441 94.3384 56.8378C94.3352 56.8318 94.3319 56.8259 94.3287 56.8199C94.3257 56.8145 94.323 56.8093 94.32 56.8039C94.3186 56.8017 94.3173 56.7992 94.3159 56.7971L94.3156 56.7965C94.314 56.7933 94.3124 56.7906 94.3107 56.7878C94.3077 56.7827 94.3048 56.7775 94.3015 56.7721C94.2982 56.7669 94.2953 56.7615 94.292 56.7563C94.2887 56.7512 94.286 56.746 94.2828 56.7408C94.2795 56.7357 94.2762 56.7305 94.273 56.7254C94.2697 56.7202 94.2665 56.715 94.2629 56.7099C94.2586 56.7031 94.254 56.6966 94.2496 56.69C94.2453 56.6832 94.2407 56.6767 94.2363 56.6702C94.2333 56.6659 94.2303 56.6612 94.2271 56.6569C94.2265 56.6558 94.2257 56.655 94.2252 56.6542C94.2227 56.6504 94.22 56.6466 94.2173 56.643C94.1961 56.6132 94.1738 56.5838 94.1507 56.5556C94.1442 56.5474 94.138 56.5393 94.1312 56.5314C94.1287 56.5284 94.1263 56.526 94.1238 56.523C94.1236 56.5224 94.1225 56.5216 94.1222 56.5211C94.1198 56.5181 94.1173 56.5154 94.1149 56.5124C94.1097 56.5064 94.1046 56.5004 94.0991 56.4945C94.095 56.4896 94.0907 56.4849 94.0866 56.4803C94.0823 56.4757 94.0782 56.4711 94.0739 56.4665C94.0695 56.4619 94.0652 56.4572 94.0608 56.4526C94.0565 56.448 94.0521 56.4434 94.0478 56.4388C94.0434 56.4341 94.0388 56.4298 94.0345 56.4252C94.0299 56.4208 94.0255 56.4159 94.0209 56.4116C94.0174 56.4081 94.0136 56.4045 94.01 56.401L94.0092 56.4002C94.0087 56.3994 94.0076 56.3988 94.0068 56.398C94.0013 56.3929 93.9959 56.3877 93.9905 56.3825C93.985 56.3774 93.9793 56.3722 93.9739 56.367C93.9679 56.3616 93.9622 56.3565 93.9562 56.3513C93.9494 56.3453 93.9424 56.3393 93.9353 56.3334C93.9283 56.3274 93.9215 56.3214 93.9144 56.3157C93.9063 56.3092 93.8981 56.3027 93.89 56.2964L93.8889 56.2959C93.8889 56.2959 93.8881 56.2953 93.8878 56.2951C93.8804 56.2894 93.8728 56.2837 93.8652 56.2779C93.8565 56.2717 93.8481 56.2655 93.8394 56.2595C93.8307 56.2535 93.8223 56.2473 93.8133 56.2415C93.8049 56.2358 93.796 56.2307 93.7875 56.2252C93.7791 56.2201 93.771 56.2152 93.7626 56.2103L72.556 43.9508C72.556 43.9508 72.5552 43.9502 72.5549 43.95C72.5465 43.9451 72.5383 43.9405 72.5299 43.9361C72.5215 43.9318 72.5133 43.9274 72.5054 43.9233C72.497 43.9193 72.4891 43.9155 72.481 43.9119C72.4731 43.9084 72.465 43.9049 72.4571 43.9016C72.4492 43.8983 72.4413 43.8951 72.4335 43.8921C72.4316 43.8916 72.4299 43.891 72.4283 43.8905C72.4278 43.8902 72.4269 43.8902 72.4264 43.8899C72.4207 43.888 72.4153 43.8858 72.4098 43.8842C72.4017 43.8815 72.3935 43.8791 72.3856 43.8769C72.3775 43.8747 72.3696 43.8728 72.3617 43.8712C72.3533 43.8693 72.3452 43.8676 72.337 43.8663C72.3289 43.8649 72.321 43.8638 72.3131 43.863H72.3126H72.3115C72.3028 43.8622 72.2941 43.8617 72.2857 43.8614C72.2759 43.8611 72.2661 43.8617 72.2569 43.8622C72.246 43.863 72.2357 43.8641 72.2256 43.866C72.2227 43.8666 72.2202 43.8676 72.2175 43.8682C72.2153 43.8687 72.2132 43.8696 72.211 43.8701C72.2034 43.872 72.1955 43.8736 72.1884 43.8761C72.1689 43.8831 72.1512 43.8926 72.1349 43.9043L71.7959 44.1529C71.8179 44.1369 71.8437 44.1257 71.872 44.1187C71.8741 44.1181 71.876 44.1173 71.8785 44.1168C71.9073 44.1102 71.9391 44.1083 71.9736 44.1116L71.9741 44.1119C72.0094 44.1154 72.0474 44.1241 72.0876 44.1385C72.0876 44.1385 72.0887 44.1388 72.0893 44.139C72.1298 44.1534 72.1724 44.1735 72.217 44.1993L93.4238 56.4589C93.4662 56.4833 93.508 56.5121 93.5493 56.5439L93.5498 56.5442C93.5911 56.5759 93.6313 56.611 93.6705 56.649L93.6707 56.6493C93.7099 56.6871 93.7476 56.7275 93.7835 56.7699C93.7837 56.7704 93.7843 56.7707 93.7843 56.7707C93.8204 56.8131 93.8541 56.8574 93.8862 56.9027C93.8867 56.9036 93.8875 56.9044 93.8881 56.9052C93.9198 56.9506 93.9494 56.9973 93.9766 57.0448C93.9766 57.0448 93.9769 57.0456 93.9772 57.0459C94.0043 57.0937 94.0288 57.1418 94.0502 57.1901C94.0502 57.1904 94.0505 57.1907 94.0505 57.1907C94.072 57.2393 94.0899 57.2877 94.1046 57.3355V57.3358C94.1192 57.3836 94.1304 57.4306 94.1372 57.4762L96.2161 71.4517C96.2223 71.4941 96.2245 71.5332 96.2234 71.5691C96.2234 71.5702 96.2234 71.5715 96.2234 71.5726C96.2221 71.6071 96.2174 71.6386 96.2098 71.6669C96.2093 71.6685 96.2088 71.6701 96.2085 71.6718C96.2025 71.6924 96.1933 71.7098 96.1843 71.7269C96.1677 71.7582 96.1482 71.7856 96.1221 71.8046L96.4611 71.556C96.4872 71.537 96.507 71.5096 96.5233 71.4784C96.5255 71.4746 96.5293 71.4727 96.5312 71.4686C96.5366 71.4566 96.5415 71.4439 96.5456 71.4305C96.5461 71.4284 96.5467 71.4257 96.5475 71.4235C96.548 71.4219 96.5483 71.42 96.5489 71.4183C96.5508 71.4115 96.5527 71.405 96.554 71.3979C96.5559 71.3884 96.5576 71.3784 96.5589 71.3681C96.5603 71.3586 96.5611 71.3491 96.5616 71.3393C96.5619 71.3344 96.5619 71.3292 96.5622 71.3241C96.5622 71.3227 96.5624 71.3219 96.5624 71.3205Z" fill="white"/>
<g opacity="0.2">
<path d="M81.6766 64.3511L79.1055 66.3094L83.4437 68.814L86.4829 67.126L81.6766 64.3511Z" fill="#777DB2"/>
</g>
<path d="M84.3569 60.2109L83.4428 69.1411L79.0898 66.6199L80.7909 58.2632L84.3569 60.2109Z" fill="#BAC0D2"/>
<g opacity="0.5">
<path d="M114.581 7.24553C116.752 8.49865 118.515 11.5528 118.508 14.0468L118.491 19.9359C118.484 22.4299 116.709 23.4413 114.539 22.1882L109.17 19.0889L106.796 21.0486L106.806 17.7233L102.921 15.4806C100.75 14.2275 98.9871 11.1733 98.9942 8.6793L99.0107 2.79021C99.0178 0.296196 100.793 -0.715153 102.963 0.537968L114.581 7.24553ZM118.132 19.7286L118.149 13.8398C118.155 11.5694 116.555 8.79828 114.58 7.65762L102.962 0.950059C100.986 -0.190598 99.3761 0.726766 99.3696 2.99721L99.3527 8.88629C99.3462 11.1567 100.946 13.9278 102.922 15.0685L107.165 17.5185L107.158 20.1032L109.007 18.582L114.54 21.7761C116.516 22.9167 118.126 21.9991 118.132 19.7286Z" fill="#79AEF5"/>
<path d="M107.265 6.44606L107.265 6.94915C107.265 7.2458 106.945 7.43079 106.688 7.28301L104.311 5.9139C104.192 5.84517 104.118 5.71777 104.118 5.58004V5.07722C104.118 4.78058 104.439 4.59558 104.696 4.74336L107.072 6.1122C107.192 6.18093 107.265 6.30833 107.265 6.44606Z" fill="#79AEF5"/>
<path d="M114.791 13.2557L114.791 13.7599C114.791 14.0557 114.471 14.2415 114.214 14.0943L104.312 8.41765C104.192 8.34919 104.118 8.22152 104.118 8.08352L104.118 7.57934C104.118 7.28324 104.438 7.0977 104.695 7.24494L114.598 12.9219C114.717 12.9903 114.791 13.1177 114.791 13.2557Z" fill="#79AEF5"/>
<path d="M110.709 15.9235V16.4277C110.709 16.7238 110.389 16.9091 110.133 16.7618L104.313 13.4257C104.193 13.357 104.119 13.2296 104.119 13.0916V12.5874C104.119 12.2913 104.439 12.106 104.696 12.2533L110.516 15.5894C110.635 15.6581 110.709 15.7855 110.709 15.9235Z" fill="#79AEF5"/>
<path d="M113.255 14.8805L113.256 15.3844C113.256 15.6805 112.935 15.866 112.679 15.7188L104.312 10.9223C104.192 10.8538 104.118 10.7264 104.118 10.5884V10.084C104.118 9.78789 104.438 9.60263 104.695 9.74986L113.062 14.5464C113.181 14.6148 113.255 14.7425 113.255 14.8805Z" fill="#79AEF5"/>
</g>
<path d="M75.42 68.1949L67.2545 76.5296L59.3242 74.4678L67.4897 66.1328L75.42 68.1949Z" fill="white"/>
<path d="M66.6533 68.705L67.4351 69.0008C68.0232 68.5398 69.0411 68.3765 69.7317 68.6376C69.7458 68.643 69.7594 68.6487 69.7732 68.6544L70.4219 68.1209C70.4081 68.1152 70.3942 68.1098 70.3798 68.1043C69.2579 67.68 67.5997 67.9495 66.6533 68.705Z" fill="#E2EDFF"/>
<path d="M66.5559 68.7876C65.7972 69.4588 65.8412 70.2635 66.6121 70.7326L67.2806 70.1825C66.9275 69.8921 66.9357 69.4569 67.3388 69.0837L66.5559 68.7876Z" fill="#E2EDFF"/>
<path d="M66.7148 70.7926C66.7942 70.8344 66.88 70.873 66.9724 70.9081C68.0783 71.3261 69.7046 71.0705 70.6573 70.3398L69.8747 70.0439C69.2808 70.4799 68.2945 70.6294 67.6205 70.3745C67.5268 70.3392 67.4445 70.2977 67.3728 70.2512L66.7148 70.7926Z" fill="#3EABFF"/>
<path d="M69.8867 68.7066C70.4349 68.9924 70.4838 69.5246 69.9783 69.9619L70.7601 70.2575C71.6231 69.5251 71.5161 68.6222 70.5387 68.1704L69.8867 68.7066Z" fill="#3EABFF"/>
<path d="M61.167 81.4686C61.167 81.4686 56.6041 77.5693 55.8038 77.4894C54.8435 77.4093 54.0593 78.8901 53.7393 80.2505C53.4193 81.6109 54.1392 82.6513 54.8596 83.0515C55.5797 83.4516 61.9021 86.493 63.0226 86.493C64.1429 86.493 65.3474 85.091 64.6273 83.8906C63.9071 82.6902 61.167 81.4686 61.167 81.4686Z" fill="#DC70BC"/>
<path d="M66.4639 76.809C66.4639 76.809 66.6641 76.4088 66.7043 76.1287C66.7442 75.8487 66.5842 75.4885 66.7442 74.8482C66.9042 74.2079 67.1843 73.6478 67.3044 73.2077C67.6244 72.8076 67.9047 73.528 67.6646 74.1281C67.4244 74.7284 67.5043 75.0886 67.7444 75.1285C67.9846 75.1685 68.985 74.5681 69.2651 74.2481C69.5452 73.9281 71.146 72.3675 71.306 72.5674C71.466 72.7674 71.466 72.9676 70.9056 73.5679C70.3455 74.168 70.1455 74.4483 70.1053 74.6083C70.0654 74.7683 70.1053 74.9283 69.9054 75.4086C69.7055 75.8889 69.8655 76.2089 69.5053 76.649C69.145 77.089 68.4646 77.1692 68.1446 77.4492C67.8246 77.7293 67.8246 77.7296 67.8246 77.7296L66.4639 76.809Z" fill="#FFAA83"/>
<path d="M63.024 86.4933C63.024 86.4933 64.7047 86.8136 65.6117 84.946C66.5187 83.0787 68.0658 78.0633 68.2793 77.583C68.2793 77.583 67.7458 76.4095 66.412 76.4627C66.412 76.4627 64.9179 79.3971 64.0644 80.7309C63.2109 82.0646 60.1695 85.9598 63.024 86.4933Z" fill="#DC70BC"/>
<path d="M120.733 6.93956H119.305V5.51123H120.733V6.93956Z" fill="#79AEF5"/>
<path d="M125.019 11.2247H121.687V7.89209H125.019V11.2247Z" fill="#79AEF5"/>
<path d="M135.887 38.2591C136.071 38.3656 136.252 38.4775 136.43 38.5951L136.429 38.9852C136.158 39.0689 135.98 39.3405 135.978 39.773C135.977 40.1935 136.149 40.6705 136.423 41.0729L136.422 41.2483C136.244 41.1269 136.064 41.0112 135.88 40.905C132.844 39.1523 130.372 40.5605 130.362 44.0528C130.352 47.5414 132.808 51.7949 135.844 53.5475C135.901 53.5807 135.958 53.6125 136.015 53.6432C136.084 53.6806 136.153 53.7162 136.221 53.7502C136.276 53.7779 136.332 53.8048 136.386 53.8306L136.386 54.0077C136.111 54.0938 135.937 54.3687 135.936 54.7895C135.934 55.2217 136.111 55.6985 136.38 56.0937L136.379 56.4841C136.328 56.4588 136.276 56.4324 136.224 56.4056C136.096 56.3395 135.967 56.2689 135.836 56.1934C131.527 53.7056 128.045 47.6747 128.06 42.7234C128.074 37.7682 131.578 35.7713 135.887 38.2591Z" stroke="#79AEF5" stroke-width="0.9" stroke-miterlimit="10"/>
<path d="M137.136 39.1155C137.189 39.1462 137.243 39.1813 137.296 39.2209C137.316 39.2356 137.336 39.2506 137.356 39.2663C140.351 41.6525 142.732 45.6555 143.446 49.4513C143.454 49.4928 143.46 49.5273 143.466 49.5613C143.475 49.6137 143.481 49.6444 143.486 49.6751C143.495 49.7267 143.5 49.7577 143.505 49.7889C143.514 49.843 143.519 49.8753 143.524 49.9068C143.531 49.9527 143.535 49.9834 143.54 50.0138C143.548 50.0723 143.552 50.1035 143.557 50.1347C143.564 50.1863 143.568 50.2217 143.573 50.2575C143.583 50.3385 143.592 50.414 143.6 50.489C143.605 50.5419 143.608 50.5718 143.611 50.6009C143.616 50.656 143.619 50.684 143.621 50.7117C143.626 50.7698 143.629 50.7967 143.631 50.8234C143.635 50.8815 143.637 50.9054 143.639 50.929C143.643 50.995 143.644 51.0179 143.646 51.0401C143.649 51.1045 143.651 51.1263 143.652 51.1477C143.655 51.2143 143.656 51.236 143.657 51.2577C143.657 51.2729 143.658 51.2884 143.658 51.3036C143.659 51.3232 143.66 51.3422 143.661 51.3618C143.661 51.3783 143.662 51.3957 143.662 51.4123C143.662 51.434 143.663 51.4555 143.664 51.477C143.665 51.5465 143.665 51.5734 143.665 51.6008C143.666 51.6617 143.666 51.6978 143.666 51.7342C143.666 51.7706 143.666 51.8065 143.665 51.8423C143.664 51.8934 143.664 51.92 143.663 51.9466C143.662 52.0086 143.661 52.0295 143.66 52.0504C143.66 52.0667 143.659 52.083 143.658 52.099C143.658 52.1178 143.657 52.1362 143.656 52.1547C143.656 52.1694 143.655 52.1835 143.654 52.1982C143.653 52.2186 143.652 52.2395 143.651 52.2596C143.647 52.3221 143.646 52.3427 143.645 52.3625C143.64 52.4236 143.639 52.444 143.637 52.4647C143.632 52.5263 143.63 52.5483 143.629 52.5698C143.623 52.6258 143.621 52.6494 143.619 52.6736C143.613 52.7268 143.611 52.7515 143.608 52.7762C143.602 52.8262 143.599 52.8526 143.595 52.8787C143.584 52.9642 143.575 53.0292 143.565 53.0935C143.56 53.128 143.555 53.1582 143.55 53.1883C143.543 53.2299 143.539 53.2554 143.535 53.2807C143.526 53.3282 143.521 53.3527 143.517 53.3771C143.508 53.419 143.504 53.4437 143.499 53.4676C143.489 53.5135 143.484 53.5369 143.479 53.5605C143.47 53.6042 143.464 53.6271 143.459 53.6504C143.448 53.6961 143.442 53.7213 143.436 53.7466C143.426 53.7854 143.419 53.8139 143.412 53.8422C142.652 56.7393 140.274 57.9463 137.306 56.883C137.286 56.876 137.266 56.8684 137.247 56.86C137.193 56.8374 137.139 56.8105 137.086 56.7798C136.822 56.6277 136.576 56.3821 136.379 56.0934C136.11 55.6981 135.933 55.2214 135.935 54.7892C135.936 54.3684 136.11 54.0935 136.385 54.0074C136.515 53.9666 136.668 53.9685 136.836 54.0177C136.854 54.0231 136.873 54.0291 136.892 54.0359C137.764 54.3467 138.564 54.379 139.239 54.1622C139.269 54.1524 139.299 54.1424 139.328 54.1318C139.362 54.1193 139.39 54.1087 139.418 54.0976C139.452 54.084 139.479 54.0723 139.506 54.0601C139.538 54.0459 139.564 54.034 139.59 54.0212C139.621 54.0063 139.646 53.9932 139.671 53.9802C139.707 53.9609 139.73 53.9481 139.753 53.9348C139.791 53.9126 139.813 53.8992 139.834 53.8859C139.874 53.8607 139.894 53.8471 139.915 53.8335C139.954 53.8058 139.975 53.7917 139.995 53.777C140.03 53.7504 140.048 53.7368 140.065 53.7232C140.104 53.6917 140.121 53.6784 140.138 53.6643C140.174 53.6328 140.192 53.617 140.21 53.601C140.248 53.5662 140.265 53.5496 140.282 53.5331C140.319 53.4964 140.336 53.4796 140.352 53.4624C140.388 53.4236 140.405 53.4059 140.421 53.388C140.454 53.35 140.468 53.3331 140.482 53.3166C140.489 53.3079 140.496 53.2994 140.503 53.2908C140.516 53.2747 140.529 53.2587 140.541 53.2424C140.549 53.2334 140.556 53.2242 140.563 53.215C140.577 53.1968 140.59 53.1786 140.603 53.1601C140.634 53.1174 140.649 53.0965 140.663 53.0759C140.693 53.03 140.707 53.0088 140.72 52.9876C140.75 52.9395 140.764 52.9178 140.776 52.8958C140.804 52.8474 140.817 52.8238 140.831 52.7999C140.853 52.7575 140.865 52.7347 140.877 52.7119C140.9 52.6654 140.912 52.641 140.923 52.6165C140.946 52.5687 140.958 52.5418 140.969 52.5152C140.991 52.4652 141.002 52.4378 141.014 52.4098C141.033 52.3598 141.044 52.3313 141.055 52.3025C141.074 52.2506 141.084 52.221 141.094 52.1911C141.111 52.1428 141.121 52.111 141.131 52.0789C141.144 52.0346 141.154 52.0015 141.163 51.9681C141.176 51.9246 141.184 51.8901 141.193 51.8554C141.206 51.8056 141.214 51.7717 141.221 51.7377C141.234 51.6831 141.241 51.6494 141.248 51.6155C141.259 51.5587 141.266 51.5234 141.272 51.4878C141.281 51.4348 141.287 51.3971 141.293 51.3588C141.3 51.3104 141.306 51.271 141.311 51.2314C141.317 51.1874 141.321 51.1477 141.326 51.1081C141.332 51.0518 141.335 51.0124 141.339 50.9733C141.343 50.9163 141.347 50.8766 141.349 50.8367C141.353 50.7772 141.355 50.7373 141.357 50.6965C141.359 50.6359 141.361 50.5941 141.362 50.552C141.363 50.4952 141.363 50.4501 141.363 50.4048C141.363 50.3594 141.363 50.314 141.363 50.2684C141.362 50.2127 141.361 50.1698 141.359 50.126C141.357 50.0638 141.355 50.0212 141.353 49.9785C141.349 49.9152 141.346 49.8715 141.343 49.8286C141.339 49.7666 141.336 49.7229 141.331 49.6794C141.326 49.6162 141.321 49.5708 141.316 49.5252C141.311 49.4765 141.306 49.4284 141.3 49.3809C141.293 49.3274 141.287 49.2809 141.28 49.2345C141.272 49.1774 141.266 49.1326 141.259 49.0881C141.248 49.0234 141.241 48.9789 141.233 48.9346C141.223 48.8716 141.214 48.8257 141.205 48.7797C141.175 48.6208 141.143 48.4717 141.107 48.3226C141.095 48.2726 141.084 48.224 141.071 48.1745C141.044 48.068 141.017 47.9672 140.989 47.8673C140.4 45.7957 139.166 43.7265 137.627 42.2433C137.59 42.2075 137.559 42.1779 137.527 42.1485C137.472 42.0964 137.445 42.0719 137.418 42.0477C137.403 42.0341 137.388 42.0206 137.374 42.007C137.354 41.9891 137.334 41.9714 137.313 41.9535C137.291 41.9334 137.268 41.9135 137.246 41.8937C137.134 41.7962 137.031 41.7103 136.927 41.6275C136.738 41.4762 136.566 41.2847 136.422 41.0725C136.148 40.6702 135.976 40.1932 135.977 39.7727C135.979 39.3402 136.157 39.0686 136.428 38.9849C136.625 38.924 136.872 38.9634 137.136 39.1155Z" fill="#79AEF5"/>
<path d="M10.443 65.6158H9.01465V64.1875H10.443V65.6158Z" fill="#79AEF5"/>
<path d="M14.7284 69.901H11.3955V66.5684H14.7284V69.901Z" fill="#79AEF5"/>
<path d="M151.017 86.5935C153.281 87.9007 153.293 90.0168 151.05 91.3208C148.806 92.6247 145.152 92.625 142.888 91.3178C140.63 90.0139 140.618 87.8977 142.862 86.5938C145.106 85.2899 148.759 85.2896 151.017 86.5935Z" fill="#A6D0F4"/>
<path d="M151.691 74.9442L151.655 87.7625C151.653 88.5535 151.133 89.3429 150.095 89.946C148.006 91.1605 144.603 91.1603 142.495 89.943C141.437 89.3318 140.908 88.5293 140.91 87.728L140.947 74.9097C140.944 75.711 141.473 76.5138 142.531 77.1247C144.639 78.342 148.042 78.3422 150.132 77.1277C151.169 76.5249 151.689 75.7352 151.691 74.9442Z" fill="#CBDCEB"/>
<path d="M150.104 72.7248C152.212 73.942 152.224 75.9131 150.134 77.1274C148.044 78.3419 144.641 78.3417 142.533 77.1244C140.43 75.9101 140.419 73.9393 142.508 72.7248C144.598 71.5105 148 71.5102 150.104 72.7248Z" fill="white"/>
<path d="M149.266 73.2126C150.907 74.1604 150.916 75.695 149.289 76.6406C147.662 77.5862 145.012 77.5862 143.371 76.6384C141.733 75.6928 141.724 74.1582 143.351 73.2126C144.979 72.267 147.628 72.267 149.266 73.2126Z" fill="#713336"/>
<path d="M142.18 75.3084C142.18 75.3084 139.485 66.3502 138.533 65.0026C138.533 63.8135 140.991 65.2405 141.942 67.4602C142.893 69.6798 143.765 74.6741 143.765 74.6741C143.765 74.6741 143.607 63.1795 145.588 60.6426C146.857 60.9599 146.064 73.5644 145.906 74.5157C145.906 74.5157 149.869 66.1125 152.485 64.3685C153.675 64.5272 148.68 74.912 148.68 74.912C148.68 74.912 150.741 71.0275 154.467 70.3141C154.467 70.3141 151.534 74.5154 150.345 75.6254C150.345 75.6254 148.997 77.6867 145.43 77.2903C145.43 77.2903 142.972 77.1317 142.18 75.3084Z" fill="#00C42B"/>
</svg>
