<svg width="166" height="144" viewBox="0 0 166 144" fill="none" xmlns="http://www.w3.org/2000/svg">
<g opacity="0.5">
<path d="M37.3983 89.8499C36.5215 82.2152 38.8865 74.0985 47.6555 68.8757C55.7263 64.0692 56.0708 62.6441 56.173 45.0645C56.3679 11.4545 103.305 4.83381 135.318 17.095C177.412 33.2184 170.662 52.8565 146.099 75.7312C125.013 95.369 166.557 130.684 131.317 140.164C114.719 144.629 73.1793 143.903 55.9155 142.328C42.135 141.07 44.2563 129.481 45.1796 118.711C46.686 101.151 39.151 105.121 37.3983 89.8499Z" fill="#A5DBFF"/>
</g>
<path d="M64.1979 104.276H92.1461C93.3229 104.276 94.2828 105.236 94.2828 106.413V106.814C94.2828 107.991 93.3226 108.951 92.1461 108.951H61.4985C60.7143 108.951 59.8936 108.628 59.6483 107.883L50.0302 78.7028C49.662 77.5852 49.7931 76.3719 50.8124 75.784L51.1606 75.5828C52.1796 74.9948 53.7324 75.2413 54.0788 76.3655L62.3474 103.208C62.5784 103.957 63.4131 104.276 64.1979 104.276Z" fill="#19A5FF"/>
<path d="M80.9009 83.5398L81.7985 84.2563L83.5457 79.0699L79.6418 76.2663C79.0495 76.0877 76.4022 72.0136 75.236 73.5101C74.0698 75.0066 76.3891 80.3431 76.3891 80.3431L80.9009 83.5398Z" fill="#CC544E"/>
<path d="M83.545 79.0695L85.793 80.7756C87.3477 81.9556 97.1835 81.4916 99.3436 81.3629C101.536 81.2325 102.279 82.5105 102.415 84.5021L101.471 84.7301C101.012 83.8424 100.482 84.0394 98.9551 84.1303C96.795 84.2587 85.2406 84.8407 83.6859 83.6607L82.3216 82.6255L83.545 79.0695Z" fill="#E4A7A9"/>
<path d="M60.7997 93.7231C64.0488 93.7231 78.9055 95.8264 87.8128 97.8318C94.8889 99.4242 94.5793 101.415 95.1133 105.031C95.5705 112.756 96.0277 120.482 96.4846 128.207H92.4218C91.3042 120.832 88.2282 113.457 87.1109 106.083C74.3734 106.083 57.4834 110.513 60.7997 93.7231Z" fill="#0D0369"/>
<path d="M60.7998 93.7236C66.8502 75.8193 64.7832 70.8597 74.8341 66.8398C76.9423 67.3289 78.5484 68.1914 79.7252 69.3441C77.9318 76.0367 80.4303 74.457 79.1367 79.284C79.1367 79.284 76.5811 84.7468 76.2387 85.464C75.2119 87.6149 74.4503 93.2446 73.6776 95.2517C68.2088 94.4991 66.2687 94.4765 60.7998 93.7236Z" fill="#E9605A"/>
<path d="M79.2059 79.1764L81.5283 80.9158L79.5273 86.0097L77.5367 84.6604C76.65 83.9992 73.0828 80.1942 71.4268 76.1408C69.9647 72.5622 72.9542 69.3868 79.2059 79.1764Z" fill="#E9605A"/>
<path d="M74.834 66.8396C76.3981 67.7427 78.1607 68.4408 79.7248 69.3442C80.1672 68.5779 80.7937 67.4977 81.052 67.0455C81.31 66.5932 78.0166 61.8221 76.9477 63.893C76.7462 64.2838 76.5305 64.6377 76.2983 64.9291L74.834 66.8396Z" fill="#F1BABB"/>
<path d="M80.978 67.189C83.8714 68.4479 86.63 66.7385 87.8432 65.2612C89.2394 66.4078 88.8687 64.1914 88.8272 63.7687C89.0387 63.3021 89.2043 62.8605 89.3293 62.4442L89.3074 62.4218C89.2456 62.4348 89.2487 62.3948 89.1884 62.4074C89.1813 62.408 88.5795 60.9935 88.5272 60.8547C88.3809 61.1778 88.2344 61.5009 88.0881 61.824C86.33 61.2624 86.5018 60.1313 86.0798 59.5416C85.158 61.5757 84.693 62.2144 81.8249 62.0236L81.8236 62.1151L81.822 62.0231C81.432 61.9971 80.9983 61.9545 80.514 61.8938C81.8495 60.187 81.3018 59.1773 80.3328 58.4854C79.8362 58.6719 78.7578 61.3653 77.4515 63.2356C77.1296 63.6966 80.952 67.1776 80.978 67.189Z" fill="#F1BABB"/>
<path d="M80.3703 67.7993C80.4119 67.7489 80.8859 67.1711 80.8999 67.1538C80.5407 65.1306 80.3715 64.3007 80.374 62.2456C80.0325 64.3107 80.286 66.9411 80.3703 67.7993Z" fill="#E4A7A9"/>
<path d="M81.3776 52.2573C74.8304 38.4206 67.9778 56.3385 61.7651 56.9489C72.5116 64.2737 76.1997 48.3265 79.4925 52.9311C82.7851 57.536 81.3821 52.2671 81.3776 52.2573Z" fill="#0C0366"/>
<path d="M79.3986 53.0027C75.0511 54.7103 74.6163 59.1272 76.4498 64.4191C79.7245 61.498 80.4523 60.15 80.1786 59.4221C80.9575 59.9785 80.9658 61.3448 80.5146 61.8943C84.8159 62.4828 85.2428 61.735 86.0803 59.5424C86.5024 60.1318 86.3309 61.2626 88.0884 61.8242C88.235 61.5014 88.3815 61.1786 88.5278 60.8555C88.731 61.3963 88.9343 61.9371 89.1375 62.4776C94.7766 60.3571 89.5657 50.4306 81.5027 52.2614C81.4657 52.2697 81.4288 52.2779 81.3918 52.2868C81.3918 52.2868 79.4364 52.9878 79.3986 53.0027Z" fill="#0C0366"/>
<path d="M81.5265 80.9159L83.6874 82.7311C85.1818 83.9866 96.7509 83.9767 98.9148 83.9552C101.111 83.9334 101.997 84.7352 102.035 86.7312L99.3677 86.7816C99.3535 86.0436 96.967 86.1134 96.6613 86.8328L86.9247 87.0168C83.9577 87.0729 82.0085 87.8665 79.5222 85.8519L81.5265 80.9159Z" fill="#F1BABB"/>
<path d="M92.4219 128.208V129.634C96.3281 131.889 97.722 135.621 101.7 135.023C101.965 134.983 102.119 134.92 102.187 134.839C100.189 133.685 96.6056 130.577 96.6056 128.208H92.4219Z" fill="#F1BABB"/>
<path d="M94.0132 136.359V133.532C94.3591 133.609 96.3746 135.068 97.2788 135.484C100.967 137.179 104.428 136.132 102.189 134.839C102.12 134.92 101.966 134.983 101.702 135.023C97.7241 135.622 96.3299 131.89 92.4248 129.635L92.4312 136.359H94.0132Z" fill="#0D0369"/>
<path d="M57.2803 136.367L64.4092 106.343C64.871 104.398 66.0112 102.824 67.5312 101.723C69.1147 100.577 71.1105 99.9453 73.1746 99.9453C75.2388 99.9453 77.2346 100.577 78.8175 101.723C80.3378 102.825 81.4783 104.398 81.9401 106.343L89.069 136.367H87.5218L80.4752 106.69C80.1012 105.115 79.1738 103.838 77.9353 102.941C76.6089 101.981 74.9254 101.451 73.1746 101.451C71.4239 101.451 69.7401 101.981 68.414 102.941C67.1755 103.838 66.2478 105.115 65.8741 106.69L58.8272 136.367H57.2803Z" fill="#0B132A"/>
<path d="M93.2422 20.3521H136.631V79.6145H93.2422V20.3521Z" fill="#91B3FA"/>
<path d="M94.3896 21.4985H135.486V78.4678H94.3896V21.4985Z" fill="#FFFEFF"/>
<path d="M135.486 35.9702H94.3896V35.5112H135.486V35.9702ZM135.486 50.212H94.3896V49.7534H135.486V50.212ZM135.486 64.4548H94.3896V63.9958H135.486V64.4548Z" fill="#BDD0FB"/>
<path d="M107.749 26.7603H129.005C129.293 26.7603 129.529 26.998 129.529 27.2888C129.529 27.5795 129.293 27.8173 129.005 27.8173H107.749C107.461 27.8173 107.225 27.5795 107.225 27.2888C107.225 26.998 107.461 26.7603 107.749 26.7603Z" fill="#91B3FA"/>
<path d="M107.749 29.1919H125.484C125.773 29.1919 126.009 29.4296 126.009 29.7204C126.009 30.0112 125.773 30.2489 125.484 30.2489H107.749C107.461 30.2489 107.225 30.0112 107.225 29.7204C107.225 29.4296 107.461 29.1919 107.749 29.1919Z" fill="#91B3FA"/>
<path d="M99.6143 28.3013L100.774 29.171C100.774 29.171 102.586 28.105 103.861 27.355" stroke="#91B3FA" stroke-width="2"/>
<path d="M100.702 25.8008C102.182 25.8008 103.384 27.0024 103.384 28.4825C103.384 29.9625 102.182 31.1641 100.702 31.1641C99.2222 31.1641 98.0205 29.9625 98.0205 28.4825C98.0205 27.0024 99.2222 25.8008 100.702 25.8008Z" stroke="#91B3FA" stroke-width="2"/>
<path d="M104.259 87.2677H90.2129V88.3972H103.607H104.911L105.564 87.2677L112.44 75.3582L111.461 74.7935L104.259 87.2677Z" fill="#666E83"/>
<path d="M0 40.7988C6.68971 45.5059 11.8231 48.7188 17.5767 53.3136C29.9478 63.1922 29.1002 75.7316 29.5374 90.4529C27.4553 81.7848 24.5333 72.49 18.9559 65.2704C13.9168 58.7488 0.404655 51.2424 0 40.7988Z" fill="#65DC7F"/>
<path d="M27.9226 53.3337C28.4192 46.8087 29.7408 41.9059 28.3335 35.5043C25.5861 23.0076 27.1585 11.996 29.4392 1.25757e-06C7.62576 15.9494 23.951 37.0474 27.9226 53.3337Z" fill="#65DC7F"/>
<path d="M24.0285 127.396H40.9834C41.9111 127.396 42.6698 128.154 42.6698 129.082V130.413C42.6698 131.341 41.9111 132.1 40.9834 132.1H39.5448C39.5428 132.174 39.5355 132.249 39.5219 132.325L38.0129 140.796C37.8117 141.927 37.0725 142.885 35.9235 142.885H28.6795C27.5309 142.885 26.7383 141.936 26.5901 140.796L25.4899 132.325C25.4798 132.249 25.4757 132.174 25.4766 132.1H24.0285C23.1008 132.1 22.3418 131.341 22.3418 130.413V129.082C22.3418 128.154 23.1008 127.396 24.0285 127.396Z" fill="#FFC46B"/>
<path d="M60.7497 38.9955C54.3511 44.0912 49.4174 47.6031 43.9465 52.5311C32.1833 63.1263 33.7731 75.5934 34.2103 90.3147C35.7746 81.5384 38.1397 72.0865 43.2792 64.5487C47.9224 57.7396 60.9651 49.4447 60.7497 38.9955Z" fill="#65DC7F"/>
<path d="M32.3145 97.708L35.0366 80.4592L35.0398 80.4417L35.0885 80.1969C37.1322 67.5773 38.2905 60.4842 48.3347 51.8244C43.1006 59.1012 39.8264 57.9112 35.9571 80.3689L35.9096 80.6073L32.6327 101.373C32.6327 101.373 32.0799 101.118 32.0522 100.187C32.0246 99.2553 32.3145 97.708 32.3145 97.708Z" fill="#00C42B"/>
<path d="M31.2779 94.5855C30.6525 83.9643 29.8281 73.7425 28.7027 63.5567C27.5147 52.8029 25.9888 42.0846 24.0053 30.9727C22.9219 24.9009 21.4585 20.4467 23.6867 14.5423C22.6255 20.8142 23.4951 24.8025 24.8766 30.8174C26.8629 41.9438 28.3911 52.6818 29.5824 63.4601C30.7725 74.2321 31.6262 85.0424 32.2642 96.3201L32.2645 96.3201L32.3683 97.7123L32.6319 101.381L32.6307 101.381C32.8743 104.901 33.0893 108.368 33.2679 111.845C33.5318 116.987 33.7151 122.109 33.7936 127.396L32.906 127.409C32.8268 122.073 32.6449 116.967 32.3845 111.889C32.2042 108.376 31.9852 104.855 31.7354 101.265L31.2779 94.5855Z" fill="#00C42B"/>
<path d="M31.6911 101.045L27.265 80.8633L27.071 80.1216C23.4221 66.1736 22.275 61.7906 10.4492 51.7271C22.9896 59.4053 24.4768 66.7061 27.9281 79.8981L28.1235 80.6464L28.1278 80.6634L31.0161 93.8344L31.5629 96.7276C31.5629 96.7276 32.045 98.6945 31.9506 99.443C31.8924 99.9053 31.6911 101.045 31.6911 101.045Z" fill="#00C42B"/>
<path d="M23.0999 84.0444C25.9221 93.0114 27.8263 99.1039 29.0268 105.333C30.2291 111.57 30.7234 117.923 30.7234 127.395H29.8357C29.8357 117.978 29.3466 111.673 28.1565 105.5C26.9652 99.319 25.0672 93.2462 22.2539 84.3077L23.0999 84.0444Z" fill="#00C42B"/>
<path d="M15.9656 120.391C16.0083 120.127 18.7165 115.19 18.7165 115.19C24.8159 102.938 13.833 98.2524 10.1543 108.362C8.4064 113.169 11.5184 117.115 9.34644 117.235C6.48167 117.393 6.94522 120.26 7.91464 123.937C11.4073 137.185 16.6802 132.578 16.7196 126.589C16.7336 124.497 15.6531 122.329 15.9656 120.391Z" fill="#65DC7F"/>
<path d="M12.8369 127.589C12.7392 132.624 13.0955 137.697 13.9095 142.798L13.218 142.905C12.3984 137.769 12.0395 132.656 12.1381 127.577C12.2373 122.487 12.7969 117.432 13.8129 112.422C13.4076 116.933 12.9404 122.28 12.8369 127.589Z" fill="#00C42B"/>
<path d="M129.695 122.917C131.916 122.917 133.716 124.717 133.716 126.937C133.716 129.158 131.916 130.958 129.695 130.958C127.475 130.958 125.675 129.158 125.675 126.937C125.675 124.717 127.475 122.917 129.695 122.917Z" fill="#FFC46B"/>
<path d="M52.1524 12.4331C55.78 12.4331 58.7208 15.3742 58.7208 19.0018C58.7208 22.6294 55.78 25.5705 52.1524 25.5705C48.5248 25.5705 45.584 22.6294 45.584 19.0018C45.584 15.3742 48.5248 12.4331 52.1524 12.4331Z" fill="#FFC46B"/>
<path d="M149.041 12.2998C154.734 12.2998 159.35 16.9152 159.35 22.6085C159.35 28.3014 154.734 32.9165 149.041 32.9165C143.348 32.9165 138.732 28.3014 138.732 22.6085C138.732 16.9152 143.348 12.2998 149.041 12.2998Z" fill="#FFC46B"/>
<path d="M125.987 90.6564H87.0225V88.3975H125.987V90.6564Z" fill="#CB128D"/>
<path d="M98.7446 136.366H96.4854V90.0024H98.7446V136.366ZM117.219 136.366H114.96V90.0024H117.219V136.366Z" fill="#CB128D"/>
</svg>
