<svg width="265" height="273" viewBox="0 0 265 273" fill="none" xmlns="http://www.w3.org/2000/svg">
<path d="M181.378 5.1001V63.7501C181.378 74.5473 190.131 83.3001 200.928 83.3001H259.578M73.853 83.3001H112.953M73.853 141.95H191.153M73.853 200.6H191.153M230.253 34.4251C221.552 26.64 212.523 17.4065 206.823 11.4095C203.03 7.41897 197.79 5.1001 192.284 5.1001H44.5234C22.9292 5.1001 5.42353 22.6056 5.42339 44.1999L5.42188 278.799C5.42174 300.393 22.9273 317.899 44.5217 317.899L220.472 317.9C242.066 317.9 259.572 300.395 259.573 278.801L259.578 71.5348C259.578 66.5359 257.671 61.7305 254.201 58.1316C247.786 51.4767 237.072 40.5266 230.253 34.4251Z" stroke="url(#paint0_linear_4128_2136)" stroke-width="10" stroke-linecap="round" stroke-linejoin="round"/>
<defs>
<linearGradient id="paint0_linear_4128_2136" x1="-20.0975" y1="65.9223" x2="253.059" y2="253.82" gradientUnits="userSpaceOnUse">
<stop stop-color="#65DC7F"/>
<stop offset="1" stop-color="#65DC7F" stop-opacity="0"/>
</linearGradient>
</defs>
</svg>
